<?xml version="1.0" encoding="UTF-8"?>
<svg id="Layer_2" data-name="Layer 2" xmlns="http://www.w3.org/2000/svg" viewBox="0 0 203.05 92.84">
  <g id="Layer_1-2" data-name="Layer 1">
    <g>
      <path d="M0,72.76h4.76l5.28,8.49,5.28-8.49h4.76v20.09h-4.39v-13.11l-5.65,8.58h-.12l-5.6-8.49v13.03H0v-20.09Z"/>
      <path d="M30.7,72.76h4.76l5.28,8.49,5.28-8.49h4.76v20.09h-4.39v-13.11l-5.65,8.58h-.12l-5.6-8.49v13.03h-4.33v-20.09Z"/>
      <path d="M87.22,84.44l-2.67-6.51-2.67,6.51h5.34ZM82.57,72.61h4.07l8.61,20.23h-4.62l-1.84-4.5h-8.49l-1.83,4.5h-4.51l8.61-20.23Z"/>
      <g>
        <path d="M112.68,82.51c2.15,0,3.39-1.15,3.39-2.84v-.06c0-1.89-1.32-2.87-3.47-2.87h-4.39v5.77h4.47ZM103.79,72.76h9.18c2.55,0,4.53.72,5.85,2.04,1.12,1.12,1.72,2.7,1.72,4.59v.06c0,3.24-1.75,5.28-4.3,6.22l4.91,7.18h-5.16l-4.3-6.43h-3.47v6.43h-4.42v-20.09Z"/>
        <path d="M139.6,66.67l3.76,1.64-3.9,2.87h-3.33l3.47-4.51ZM130.27,72.76h15.15v3.93h-10.76v4.07h9.47v3.93h-9.47v4.22h10.9v3.93h-15.29v-20.09Z"/>
        <path d="M155.4,72.76h4.07l9.41,12.37v-12.37h4.36v20.09h-3.76l-9.73-12.77v12.77h-4.36v-20.09Z"/>
        <path d="M195.02,84.44l-2.67-6.51-2.67,6.51h5.34ZM190.38,72.61h4.07l8.61,20.23h-4.62l-1.84-4.5h-8.49l-1.83,4.5h-4.51l8.61-20.23Z"/>
        <path d="M129.28,49.89l9.73-3.03v-9.85l-9.73,12.89Z"/>
        <path d="M108.63,48.88v-3.51l-14.2-6.63v12.21l14.2-2.06Z"/>
        <path d="M108.63,43.8v-10.06l8.32,11.36,7.86-5.39v11.58l2.14-.67,12.06-15.97v-3.59l-12.75-9.58-5.99,4.11-8.03-10.96-8.53,4.76,16.5,12.93-.88,1.12-16.98-13.3-20.22,11.29,10.4,4.86,1.87-2.55v3.43l14.2,6.63Z"/>
        <path d="M94.42,56.33l7.1,2.22,7.1-2.22v-6.02l-14.2,2.06v3.95Z"/>
        <path d="M68.83,42.64l.59-1.29,8.82,4.05v-5.69l7.86,5.39,5.59-7.63-11.08-5.17-4.55,2.54-.69-1.24,3.65-2.04-6.77-3.16.6-1.29,7.7,3.6,20.6-11.5-8.7-6.82-9.68,13.21-18.73-12.85v34.12l14.2,4.43v-4.32l-9.42-4.32Z"/>
        <path d="M139.01,29.29V12.74l-11.51,7.89,11.51,8.65Z"/>
        <path d="M102.5,18.45l8.9-4.96L101.52,0l-8.23,11.24,9.21,7.21Z"/>
      </g>
    </g>
  </g>
</svg>