<?xml version="1.0" encoding="UTF-8"?>
<svg id="Layer_2" data-name="Layer 2" xmlns="http://www.w3.org/2000/svg" viewBox="0 0 128.32 75.19">
  <g id="Layer_1-2" data-name="Layer 1">
    <g>
      <path d="M12.04,73.12c-.69.75-1.92,1.12-3.71,1.12h-3.15v-7.06h1.39c.86,0,1.5.2,1.92.59.42.4.66,1.22.72,2.46h.6v-6.55h-.6c-.04.9-.19,1.56-.47,1.98-.27.42-.58.68-.92.78-.34.1-.76.14-1.25.14h-1.39v-6.63h3.28c1.45,0,2.49.28,3.11.83.62.55,1.03,1.46,1.23,2.71h.59l-.27-4.13H0v.59h2.45v14.28H0v.59h13.7l.15-5.17h-.59c-.13,1.56-.54,2.71-1.23,3.46Z"/>
      <polygon points="38.54 59.96 41.09 59.96 41.09 70.21 41.05 70.21 33.85 59.37 27.95 59.37 27.95 59.96 30.4 59.96 30.4 74.24 28.11 74.24 28.11 74.83 33.6 74.83 33.6 74.24 30.99 74.24 30.99 59.89 31.03 59.89 41.21 75.19 41.68 75.19 41.68 59.96 44.02 59.96 44.02 59.37 38.54 59.37 38.54 59.96"/>
      <path d="M70.11,71.99c-.2.53-.49.99-.86,1.37-.37.38-.75.63-1.14.73-.38.1-.91.15-1.58.15h-3.47v-14.28h2.57v-.59h-7.74v.59h2.43v14.28h-2.43v.59h12.99l.43-5.05h-.54c-.23.95-.45,1.68-.65,2.21Z"/>
      <path d="M97.09,73.12c-.69.75-1.92,1.12-3.71,1.12h-3.15v-7.06h1.39c.86,0,1.5.2,1.92.59.42.4.66,1.22.72,2.46h.6v-6.55h-.6c-.04.9-.19,1.56-.47,1.98-.27.42-.58.68-.92.78-.34.1-.76.14-1.25.14h-1.39v-6.63h3.28c1.45,0,2.49.28,3.11.83.62.55,1.03,1.46,1.23,2.71h.59l-.27-4.13h-13.14v.59h2.45v14.28h-2.45v.59h13.7l.15-5.17h-.59c-.13,1.56-.54,2.71-1.23,3.46Z"/>
      <path d="M120.84,59.02h-.36l-5.64,15.22h-2.13v.59h5.6v-.59h-2.86l1.58-4.23h4.91l1.51,4.23h-2.5v.59h7.36v-.59h-2.07l-5.4-15.22ZM117.26,69.42l2.26-6.19h.05l2.18,6.19h-4.48Z"/>
      <path d="M93.59,25.02c-.22.03-.45.06-.69.1-.24.04-.5.08-.77.13-.26.05-1.47.3-1.77.37-.34.07-.71.17-1.08.26-.65.18-2.1.6-2.14.61-.72.23-2.27.79-2.28.79-.78.31-1.58.65-2.4,1.02h0c.01-.07.03-.15.04-.21.83-4.21.83-8.11.62-11.02.01-.01.01-.02,0-.03-.19-2.42-.69-4.98-.7-5.01l-.29-1.22-1.05.69c-.05.03-1.1.78-1.27.9-.25.19-.52.4-.81.64-.78.63-1.74,1.44-2.78,2.42h0c-.26.26-.52.52-.79.79-1.35,1.34-2.79,2.97-4.17,4.84-.23-2.08-.59-4.07-1.02-5.92-.15-.61-.3-1.22-.46-1.8-.16-.59-.31-1.17-.49-1.72-.25-.82-.52-1.61-.78-2.37-.34-1.01-.7-1.94-1.05-2.77-.26-.63-.52-1.2-.75-1.72,0,0,0,0,0,0-.97-2.1-1.71-3.36-1.79-3.51l-.76-1.28-.76,1.28c-.08.15-.82,1.41-1.79,3.51,0,0,0,0,0,0-.23.52-.49,1.09-.75,1.72-.35.83-.71,1.76-1.05,2.77-.26.75-.53,1.54-.78,2.37-.18.55-.33,1.12-.49,1.72-.16.58-.31,1.19-.46,1.8-.43,1.84-.79,3.83-1.02,5.92-1.37-1.88-2.81-3.5-4.17-4.84-.27-.27-.53-.53-.79-.78h0c-1.04-.99-2-1.8-2.78-2.43-.29-.24-.56-.45-.81-.64-.17-.11-1.22-.86-1.27-.9l-1.05-.69-.29,1.22s-.51,2.59-.7,5.01c-.01,0-.01.02,0,.03-.21,2.91-.21,6.81.62,11.02.01.06.03.14.04.2h0c-.81-.36-1.61-.7-2.4-1.01,0,0-1.56-.56-2.28-.79-.03,0-1.49-.44-2.14-.61-.38-.09-.74-.19-1.08-.26-.3-.06-1.51-.31-1.77-.37-.27-.05-.53-.09-.77-.13-.24-.04-.47-.07-.69-.1-.31-.04-3.08-.28-3.08-.28l.35,1.21c.11.4,2.64,8.9,9.53,15.63.71.7,1.47,1.37,2.28,2.02.26.21.52.42.78.62.27.2.53.41.79.6,2.63,1.98,5.3,3.66,7.79,4.93.25.12.5.24.75.36,2.19.99,4.47,1.73,6.86,2.09,1.1.16,2.23.25,3.37.25s2.27-.09,3.37-.25c2.4-.37,4.68-1.1,6.86-2.09.25-.12.5-.24.75-.36,2.49-1.27,5.16-2.95,7.79-4.93.26-.2.52-.41.79-.6.26-.21.52-.42.78-.62.81-.65,1.57-1.32,2.28-2.02,6.9-6.74,9.42-15.24,9.53-15.63l.35-1.21s-2.77.24-3.08.28ZM70.64,25.32c.27-.47.55-.94.84-1.38,1.66-2.57,3.53-4.74,5.25-6.45.64-.64,1.25-1.22,1.82-1.73h.01c.95-.85,1.78-1.52,2.39-1.98h0c.09.6.21,1.38.29,2.3.03.26.05.53.07.81,0,.15.03.3.03.45.02.29.04.59.05.92h0c.11,2.36.06,5.23-.45,8.3-.14.91-.32,1.83-.55,2.76h0c-.41.23-.8.46-1.21.69t0,.01c-.8.48-1.6,1-2.39,1.57-.01,0-.01,0-.01,0-.39.28-.79.58-1.18.9-.97.77-1.91,1.57-2.82,2.41,0,0,0-.01.01-.02.02-.03.04-.08.06-.14.6-1.39,3.18-9.36,3.34-9.87-.28.49-3.7,6.75-4.77,8.75-.05.1-.63,1.22-.81,1.55-.19.34-.38.67-.55,1-.01,0-.01,0-.01,0-.38.71-.78,1.39-1.17,2.04-.44.72-1.77,2.66-2,2.96-.46.58-.87,1.17-1.26,1.74-.19.28-.55.86-.55.86.02-.19.19-2.09.3-2.85,0-.08.02-.17.03-.25.29-1.84.75-3.83,1.36-5.89.54-1.82,1.19-3.69,1.95-5.57.31-.78.66-1.54,1.03-2.27.28-.56.57-1.11.88-1.64ZM46.91,18.28h0c.01-.33.03-.64.05-.93,0-.15.02-.3.03-.45.02-.28.04-.55.07-.81.08-.92.2-1.7.29-2.29h0c.61.45,1.45,1.12,2.39,1.96h.01c.57.52,1.19,1.1,1.82,1.74,1.72,1.71,3.59,3.87,5.25,6.45.29.44.57.91.84,1.38.31.53.6,1.08.88,1.64.38.73.72,1.49,1.03,2.27.76,1.89,1.41,3.75,1.95,5.57.61,2.06,1.07,4.05,1.36,5.89,0,.08.02.17.03.25.11.75.28,2.66.3,2.85,0,0-.36-.58-.55-.86-.38-.57-.8-1.16-1.26-1.74-.23-.3-1.56-2.24-2-2.96-.38-.66-.78-1.33-1.17-2.04,0,0,0,0-.01,0-.18-.33-.36-.66-.55-1-.19-.33-.76-1.45-.81-1.55-1.07-2-4.49-8.26-4.77-8.75.17.51,2.74,8.49,3.34,9.87.02.05.04.1.06.14,0,0,0,.01.01.02-.92-.83-1.85-1.63-2.82-2.41-.38-.31-.78-.61-1.18-.9,0,0,0,0-.01,0-.79-.57-1.59-1.09-2.39-1.57t0-.01c-.41-.23-.8-.46-1.21-.68h0c-.23-.94-.42-1.86-.55-2.77-.51-3.07-.56-5.95-.45-8.29ZM63.24,49.06c-.06-.04-.12-.09-.2-.14-.06-.04-.14-.09-.2-.14,0,0-.15-.1-.22-.15-.13-.09-.27-.19-.42-.29-.15-.1-.3-.21-.46-.32-.21-.13-.41-.28-.62-.44-.22-.16-.44-.3-.67-.47-.23-.17-.47-.33-.72-.51-.45-.32-.93-.68-1.43-1.04-.71-.52-1.46-1.08-2.25-1.69-.14-.1-.55-.43-1.16-.9-.51-.38-1.04-.8-1.58-1.23-.07-.05-.56-.45-.74-.59-4-3.13-10.02-7.84-10.45-8.18.19.21,1.77,1.97,3.71,4.01,1.94,2.04,4.22,4.36,5.82,5.7.1.09.21.18.31.26.38.3.75.59,1.12.89.36.28.73.56,1.08.83.25.2.49.38.73.57.1.07.2.15.29.22.61.46,1.2.9,1.76,1.31.36.27,2.29,1.68,2.48,1.8.45.31,2.57,1.79,2.57,1.79-.05,0-.85.07-1.08.05-.01,0-.49-.03-.75-.07,0,0-.14-.02-.21-.03-.78-.11-1.69-.35-2.67-.71-.2-.06-.39-.15-.58-.22-.9-.34-1.82-.76-2.78-1.25-.47-.23-.96-.49-1.45-.77-.24-.13-.49-.26-.74-.42-.03-.02-.06-.04-.08-.04-1.18-.69-2.42-1.48-3.7-2.4-.77-.54-1.53-1.1-2.29-1.7-.25-.19-.5-.39-.76-.59-.81-.65-1.56-1.33-2.27-2.04-4.95-4.91-7.54-10.85-8.5-13.44h0c.29.03.63.08,1,.15.86.15,1.93.35,3.13.66.34.08.7.18,1.06.28.37.09.73.21,1.12.33,1.11.33,2.29.75,3.51,1.27.36.15.73.31,1.1.49.44.19.87.4,1.31.63.06.03.14.06.2.09.3.16.59.32.9.49h0c.38.21.76.44,1.15.68.5.31,1,.64,1.5.98.49.34.99.71,1.47,1.09,1.57,1.26,2.99,2.51,4.24,3.74.25.24.5.48.73.73.48.47.93.95,1.34,1.41.41.44.78.87,1.14,1.29h0s.04.05.06.07c.45.54.85,1.06,1.23,1.56.38.51.72,1,1.02,1.48.3.48.57.93.8,1.35.25.48.47.92.63,1.33.04.1.08.22.12.32.04.11.08.22.1.31.03.09.06.2.08.28.04.15.07.29.1.43.02.07.06.86.05.86ZM65.05,34.38s-.19-7.94-.27-11.31c-.08-3.37-.61-10.29-.61-10.29,0,0-.53,6.92-.61,10.29-.08,3.37-.27,11.31-.27,11.31,0,0,0-.02,0-.03-.28-.94-.58-1.9-.92-2.85-.33-.97-.71-1.95-1.09-2.93-.56-1.38-1.2-2.68-1.9-3.91-.24-.41-.47-.81-.72-1.2.04-.57.08-1.14.15-1.7.1-1.11.26-2.21.45-3.27.18-1.05.4-2.07.64-3.06h0c.58-2.48,1.3-4.7,2.02-6.59t0-.01c.21-.56.42-1.1.64-1.6,0,0-.01,0,0,0,.13-.33.27-.66.41-.96.46-1.07.88-1.97,1.23-2.64.34.67.77,1.56,1.23,2.64.14.3.27.62.41.96.01,0,0,0,0,0,.22.5.43,1.04.64,1.6t0,.01c.72,1.9,1.44,4.11,2.02,6.58h0c.24,1,.46,2.02.64,3.07.19,1.06.34,2.16.45,3.27.06.56.1,1.13.15,1.7-.25.38-.48.79-.72,1.2-.7,1.23-1.33,2.53-1.9,3.91-.38.98-.76,1.96-1.09,2.93-.33.96-.63,1.92-.92,2.85,0,0,0,.02,0,.03ZM94.17,26.75c-.96,2.58-3.55,8.53-8.5,13.44-.71.71-1.46,1.4-2.27,2.04-.26.21-.51.41-.76.59-.76.59-1.52,1.16-2.29,1.7-1.28.92-2.52,1.71-3.7,2.4-.02,0-.05.02-.08.04-.25.16-.5.29-.74.42-.49.28-.98.54-1.45.77-.96.49-1.89.91-2.78,1.25-.2.07-.38.16-.58.22-.98.35-1.89.59-2.67.71-.07.01-.21.03-.21.03-.26.04-.74.07-.75.07-.23.02-1.03-.04-1.08-.05,0,0,2.12-1.48,2.57-1.79.19-.12,2.11-1.53,2.48-1.8.56-.42,1.15-.85,1.76-1.31.09-.07.19-.15.29-.22.24-.19.48-.38.73-.57.35-.27.72-.55,1.08-.83.37-.29.74-.58,1.12-.89.1-.08.21-.17.31-.26,1.6-1.33,3.88-3.66,5.82-5.7,1.94-2.04,3.52-3.8,3.71-4.01-.43.33-6.45,5.05-10.45,8.18-.18.15-.67.54-.74.59-.54.43-1.07.84-1.58,1.23-.6.47-1.02.79-1.16.9-.79.6-1.54,1.17-2.25,1.69-.5.36-.98.72-1.43,1.04-.25.18-.49.34-.72.51-.23.17-.45.31-.67.47-.22.16-.42.3-.62.44-.16.11-.31.22-.46.32-.15.1-.28.2-.42.29-.07.04-.22.15-.22.15-.06.04-.13.09-.2.14-.07.04-.13.09-.2.14-.01,0,.03-.79.05-.86.02-.14.05-.28.1-.43.02-.08.05-.19.08-.28.02-.1.06-.2.1-.31.04-.1.08-.22.12-.32.16-.42.38-.85.63-1.33.23-.43.5-.87.8-1.35.3-.48.65-.97,1.02-1.48.38-.5.78-1.02,1.23-1.56.02-.02.03-.04.06-.06h0c.36-.43.73-.86,1.14-1.3.42-.46.86-.94,1.34-1.41.23-.25.48-.49.73-.73,1.25-1.23,2.67-2.48,4.24-3.74.48-.39.98-.75,1.47-1.09.5-.34,1-.67,1.5-.98.39-.24.76-.47,1.15-.68h0c.3-.17.59-.33.9-.49.06-.03.14-.06.2-.09.44-.23.87-.44,1.31-.63.38-.18.74-.34,1.1-.49,1.22-.52,2.4-.94,3.51-1.27.38-.13.75-.24,1.12-.33.36-.1.72-.2,1.06-.28,1.2-.3,2.26-.51,3.13-.66.38-.06.71-.11,1-.16h0Z"/>
    </g>
  </g>
</svg>