<?xml version="1.0" encoding="UTF-8"?>
<svg id="Layer_2" data-name="Layer 2" xmlns="http://www.w3.org/2000/svg" viewBox="0 0 160.4 91.85">
  <defs>
    <style>
      .cls-1 {
        fill-rule: evenodd;
      }
    </style>
  </defs>
  <g id="Layer_1-2" data-name="Layer 1">
    <g>
      <path d="M62.44,16.37c5.74,4.45,13.15,10.51,17.92,16.37,5.15-5.71,11.63-11.79,17.92-16.37-4.97-5.91-10.79-11.28-17.92-16.37-7.12,4.96-13.15,10.4-17.92,16.37"/>
      <g>
        <path class="cls-1" d="M37.52,24.74c-1.56-4.22-2.66-8.83-2.62-13.13v-.56s.55.09.55.09c4.64.73,15.8,7.48,26.25,17.21,3.79,3.53,7.49,7.45,10.77,11.62,5.19.13,10.39.13,15.58,0,3.27-4.17,6.98-8.09,10.77-11.62,10.45-9.73,21.62-16.48,26.25-17.21l.55-.09v.56c.05,4.3-1.05,8.92-2.61,13.13-2.04,5.49-4.88,10.32-7.04,12.89l-.07.09-.1.04c-3.99,1.78-15,2.84-27.27,3.16-3.13,4.04-5.85,8.31-7.83,12.66l-.43.83-.45-.83c-1.98-4.36-4.7-8.63-7.83-12.66-12.27-.32-23.29-1.38-27.27-3.16l-.1-.04-.07-.09c-2.16-2.57-5-7.4-7.04-12.89"/>
        <path class="cls-1" d="M101.55,86.37h48.53v2.57h-48.53v-2.57ZM10.63,86.37h48.59v2.57H10.63v-2.57Z"/>
        <path class="cls-1" d="M138.8,75.39c.19.64.35,1.28.48,1.93.13.65.22,1.29.29,1.94h0c.02.27.22.44.59.51.24.05.58.06,1.02.05h0c1.09-.04,2.33-.08,3.71-.1,1.34-.02,2.88-.03,4.63-.03,1.89,0,3.61.01,5.15.04,1.61.03,3.09.07,4.45.12h0c.05,0,.09,0,.1,0,.33,0,.59-.06.78-.19.23-.15.34-.37.35-.66h0s0-.04,0-.04h0c0-.27-.13-.48-.39-.62-.19-.1-.46-.17-.81-.2h0c-.4-.04-.73-.09-.99-.14-.23-.05-.38-.11-.46-.17-.09-.07-.16-.18-.22-.35-.06-.2-.1-.45-.1-.77v-15.12c0-.49.03-.88.08-1.18.05-.26.11-.44.19-.53.09-.1.27-.2.55-.31.32-.13.74-.25,1.26-.38.36-.09.61-.23.76-.42.18-.23.21-.5.09-.81h0c-.05-.15-.12-.26-.21-.35-.1-.11-.23-.17-.37-.19-.1-.02-.26-.03-.46-.01-.19.01-.44.04-.75.08h0c-.45.05-1.25.09-2.41.12-1.13.03-2.65.04-4.56.04s-3.65-.02-5.22-.05c-1.62-.03-3.12-.08-4.49-.15-.23-.01-.43-.02-.59-.02-.28,0-.5.02-.65.05-.3.06-.45.2-.46.42h0s0,.02,0,.02c0,.05,0,.11.02.17.01.04.02.08.04.11.14.51.23,1.06.29,1.64.06.6.08,1.24.07,1.92-.01.27.07.49.26.64h0c.16.13.38.2.67.2.25,0,.46-.05.65-.15.19-.1.35-.26.45-.46h0c.19-.38.36-.69.53-.93.16-.24.3-.42.43-.54.2-.18.44-.33.73-.45.3-.12.64-.21,1.03-.26h0c.33-.05,1.08-.08,2.26-.11,1.14-.02,2.73-.04,4.79-.04.21,0,.38.01.51.04.09.02.14.03.15.05h0s0,0,0,0h0s-.02,0-.02,0c.01.06.02.14.02.25v6.86s0,.04,0,.04c-.05.03-.14.05-.28.05h0c-.64,0-1.42-.03-2.34-.07-.91-.03-1.97-.08-3.18-.14h0c-.17-.01-.31-.05-.42-.11h0c-.11-.06-.19-.13-.26-.23h0c-.06-.09-.12-.23-.2-.43-.08-.22-.16-.49-.24-.83h0c-.09-.33-.25-.56-.5-.69-.23-.12-.52-.14-.86-.06-.29.04-.5.12-.65.25-.2.17-.27.39-.21.65h0c.19.73.32,1.57.38,2.52.06.95.06,2.02-.01,3.2h0c-.01.25.09.45.3.6.16.11.38.18.68.21h0c.29.03.53-.02.72-.17.19-.14.31-.36.36-.64h0c.07-.41.15-.74.23-1,.08-.24.16-.41.24-.52.07-.09.18-.16.34-.22.18-.07.41-.12.67-.14.57-.05,1.29-.09,2.16-.12h0c.84-.03,1.84-.04,3.01-.04.02,0,.04,0,.06,0v7.06c0,.41-.15.74-.45.98-.33.27-.85.46-1.55.57-.18.03-.58.05-1.22.06-.61.01-1.5.02-2.65.02-1.7,0-3.07-.23-4.12-.69-1.01-.44-1.72-1.1-2.12-1.98h0c-.14-.3-.33-.5-.58-.61-.24-.1-.51-.11-.81-.02-.29.06-.51.17-.64.32-.16.19-.2.42-.12.69M21.6,75.47c-.19.64-.35,1.28-.48,1.93-.13.65-.22,1.29-.29,1.94h0c-.02.27-.22.44-.59.51-.24.05-.58.06-1.02.05h0c-1.09-.05-2.33-.08-3.71-.1-1.34-.02-2.88-.03-4.63-.03-1.89,0-3.61.01-5.15.04-1.61.03-3.09.07-4.45.12h0c-.05,0-.09,0-.1,0-.33,0-.59-.06-.78-.19-.23-.15-.34-.37-.35-.66H.05s0-.04,0-.04h0c0-.27.13-.48.39-.62.19-.1.46-.17.81-.2h0c.4-.04.73-.09.99-.14.23-.05.38-.11.46-.17h0c.09-.07.16-.18.22-.35.06-.2.1-.45.1-.77v-15.12c0-.49-.03-.88-.08-1.18-.05-.26-.11-.44-.19-.53-.09-.1-.27-.2-.55-.31-.32-.13-.74-.25-1.26-.38-.36-.09-.61-.23-.76-.42-.18-.23-.21-.5-.09-.81h0c.05-.15.12-.26.21-.35.1-.11.23-.17.37-.19.1-.02.26-.03.46-.01.19.01.44.04.75.08h0c.45.05,1.25.09,2.41.12,1.13.03,2.65.04,4.56.04s3.65-.02,5.22-.05c1.62-.03,3.12-.08,4.49-.15.23-.01.43-.02.58-.02.28,0,.5.02.65.05.3.06.45.2.46.42h0s0,.02,0,.02c0,.05,0,.11-.02.17-.01.04-.02.08-.04.11-.14.51-.23,1.06-.29,1.64-.06.6-.08,1.24-.07,1.92h0c.01.27-.07.48-.26.64-.16.13-.39.2-.67.2-.25,0-.46-.05-.65-.15-.19-.1-.35-.26-.45-.46h0c-.19-.38-.36-.69-.53-.93-.16-.24-.3-.42-.43-.54-.2-.18-.44-.33-.73-.45-.3-.12-.64-.21-1.03-.26h0c-.33-.05-1.08-.08-2.26-.11-1.14-.02-2.73-.04-4.79-.04-.21,0-.38.01-.5.04-.09.02-.14.03-.16.05h0s.02,0,.01,0c-.01.06-.02.14-.02.25v6.86s0,.04,0,.04c.05.03.14.05.28.05h0c.64,0,1.42-.03,2.34-.07.91-.03,1.97-.08,3.18-.14h0c.16-.01.31-.05.42-.11h0c.1-.05.19-.13.26-.23h0c.06-.09.12-.23.2-.43.08-.22.16-.49.24-.83h0c.09-.33.25-.56.5-.69.23-.12.52-.14.86-.06.29.04.5.12.65.25.2.17.27.39.21.65h0c-.19.73-.32,1.57-.38,2.52-.06.95-.06,2.02.01,3.2h0c.01.25-.09.45-.3.6-.16.11-.38.18-.68.21h0c-.29.03-.53-.02-.72-.17-.19-.14-.31-.36-.36-.64h0c-.07-.41-.15-.74-.23-1-.08-.24-.16-.41-.24-.52h0c-.07-.09-.18-.16-.34-.22-.18-.07-.41-.12-.67-.14-.57-.05-1.29-.09-2.16-.12h0c-.84-.03-1.84-.04-3.01-.04-.02,0-.04,0-.06,0v7.06c0,.41.15.74.45.98.33.27.85.46,1.55.57.18.03.58.05,1.22.06.61.01,1.5.02,2.65.02,1.7,0,3.07-.23,4.12-.69,1.01-.44,1.72-1.1,2.12-1.98h0c.14-.3.33-.5.58-.61h0c.24-.1.51-.11.81-.02.29.06.51.17.64.32.16.19.2.42.12.69h0ZM63.16,78.94c0,.18-.03.33-.08.46-.07.16-.18.28-.33.34-.11.05-.28.08-.5.1-.19.01-.45.01-.76,0-1.8-.06-3.42-.09-4.86-.09s-2.63.03-3.62.09h0c-.38.02-.68-.03-.89-.16-.26-.16-.39-.4-.39-.73,0-.24.14-.44.41-.58.19-.1.45-.17.8-.23h0c.62-.11,1.11-.21,1.48-.3h0c.34-.08.56-.15.66-.2.08-.05.15-.14.19-.27.06-.17.08-.4.07-.68l-.73-14.02h0s0-.07,0-.09c-.03.03-.06.07-.1.12-1.22,1.92-2.28,3.6-3.18,5.02-.88,1.41-1.57,2.52-2.06,3.32h0c-1,1.63-1.87,3.07-2.59,4.33-.72,1.25-1.29,2.3-1.7,3.14h0c-.26.55-.34.72-.4.85-.12.25-.18.39-.2.42v.02c-.11.13-.22.24-.36.32-.13.08-.28.15-.45.19h0c-.08.02-.15.03-.22.04-.08.01-.15.02-.21.02-.24,0-.46-.12-.65-.37-.15-.19-.28-.46-.4-.82h0c-.44-1.23-1.41-3.2-2.92-5.92-1.51-2.73-3.57-6.22-6.17-10.48h0c-.05-.09-.1-.15-.15-.19h0s-.05-.03-.07-.03c0,0,0-.01,0,0h0s0,0,0,0c-.02.04-.03.1-.04.2h0c-.1,1.65-.2,3.54-.32,5.69-.12,2.17-.24,4.6-.37,7.29h0c-.04.63.14,1.12.53,1.48.42.38,1.08.64,1.98.77h0c.43.06.75.16.98.28.3.17.45.39.45.67,0,.18-.03.33-.08.46-.07.16-.18.27-.32.34h0c-.11.05-.28.08-.5.1-.19.01-.44.01-.75,0-1.58-.05-3.01-.07-4.28-.07s-2.31.03-3.19.07h0c-.38.02-.68-.03-.89-.16-.26-.16-.39-.4-.39-.73,0-.24.14-.44.41-.58.19-.1.46-.17.81-.23h0c.53-.09.98-.2,1.32-.34.32-.13.55-.27.69-.42h0c.11-.12.19-.29.26-.52.07-.25.11-.56.13-.93h0s.73-14.53.73-14.53h0c.01-.28-.02-.52-.08-.72-.06-.19-.16-.35-.3-.49-.13-.13-.34-.26-.63-.41-.3-.15-.68-.31-1.13-.47h0c-.37-.13-.65-.28-.83-.43-.25-.2-.36-.43-.32-.68.03-.28.18-.47.45-.57.2-.08.47-.09.81-.05,1.06.12,2.05.19,2.97.21.93.02,1.8,0,2.6-.08.32-.03.59-.04.81-.03.24,0,.44.03.58.08.16.06.3.15.43.27.12.12.23.26.33.44h0l8.78,15.71h0s.02.04.02.04c.03-.05.06-.1.1-.16.28-.47,1.28-2.1,3-4.9,1.55-2.51,3.67-5.95,6.38-10.32h0c.2-.32.43-.57.69-.73.27-.17.58-.26.9-.26.65,0,1.42-.04,2.31-.11.92-.07,1.95-.18,3.1-.33h0c.27-.03.49-.05.66-.07.19-.01.33-.01.42,0h0c.22.05.38.16.48.34.09.15.13.34.13.58,0,.25-.14.47-.43.64h0c-.21.13-.52.24-.92.34h0c-.84.2-1.46.43-1.87.67-.32.19-.48.37-.47.55l.77,15.97h0c.01.28.06.51.15.69.08.17.19.3.33.4h0c.13.1.31.19.56.26.27.08.59.15.99.21h0c.43.07.76.16.99.29.31.17.46.39.46.67M89.36,63.89c0,1.1-.29,2.09-.87,2.97-.57.86-1.42,1.61-2.56,2.24h0c-1.06.58-2.28,1.01-3.66,1.3-1.37.29-2.89.43-4.57.43-.13,0-.33,0-.6-.01-.22,0-.47-.02-.75-.03-.31-.02-.55-.03-.72-.04-.07,0-.13,0-.18,0,0,.05-.01.11-.01.19v5.88c0,.21.03.39.08.51.04.1.1.17.17.21h0c.11.06.33.13.66.2.36.08.84.16,1.43.24h0c.43.06.75.15.98.28.3.17.46.39.46.68,0,.18-.02.33-.07.45-.06.16-.16.27-.29.34h0c-.1.06-.27.09-.49.11-.18.01-.42.01-.72,0-1.26-.04-2.58-.06-3.96-.03-1.37.02-2.81.08-4.31.16-.06,0-.11,0-.15,0-.31,0-.56-.06-.74-.19h0c-.21-.15-.33-.36-.35-.64,0-.03,0-.05,0-.06,0-.27.13-.47.39-.62.19-.1.46-.17.81-.2.62-.05,1.07-.2,1.37-.45.27-.23.4-.56.4-.99v-15.72c0-.42-.16-.76-.47-1.01-.34-.28-.88-.48-1.6-.59h0c-.41-.06-.73-.15-.96-.26-.31-.16-.47-.37-.47-.63,0-.22.04-.41.12-.55.09-.18.23-.3.42-.36h0c.11-.03.26-.05.45-.04.17,0,.39.03.65.06h0c.31.05.69.08,1.15.11.45.02.98.03,1.6.03.35,0,.8,0,1.34-.02.54-.01,1.19-.03,1.98-.05.8-.02,1.52-.04,2.18-.06.69-.01,1.26-.02,1.7-.02,3.05,0,5.47.51,7.26,1.52h0c.96.54,1.68,1.2,2.16,1.98.49.79.73,1.69.73,2.71M84.64,64.25c0-.92-.13-1.69-.4-2.32-.26-.61-.65-1.09-1.17-1.44-.5-.33-1.19-.59-2.05-.76-.89-.18-1.96-.27-3.23-.27-.51,0-.93.03-1.27.08-.31.05-.54.12-.69.21h0c-.12.07-.21.2-.28.37-.08.2-.12.47-.12.8v7.87s.14-.02.43.03c.45.07,1.13.11,2.04.11,1.06,0,2-.1,2.84-.31.82-.21,1.53-.52,2.13-.93h0c.59-.4,1.03-.88,1.32-1.45.29-.57.44-1.23.44-1.99M105.2,58.24c0,.26-.15.47-.44.65-.22.13-.53.24-.94.34-.81.19-1.41.4-1.81.64-.32.19-.48.39-.48.59v15.97c0,.41.15.74.46.99.34.27.87.46,1.59.56h0c.42.06.75.16.98.28.3.17.45.39.45.67,0,.18-.02.33-.07.45-.06.16-.17.28-.31.35h0c-.11.05-.27.09-.49.1-.19.01-.44.01-.74,0-1.82-.06-3.45-.09-4.9-.09s-2.64.03-3.63.09c-.29.02-.53,0-.71-.04-.25-.06-.42-.19-.5-.37v-.02c-.03-.06-.05-.13-.06-.22,0-.07-.01-.15-.01-.24,0-.24.14-.43.41-.57.19-.1.45-.18.8-.24.58-.1,1.04-.19,1.38-.26.32-.07.51-.12.57-.15h0c.16-.08.28-.2.36-.36h0c.09-.18.13-.41.13-.7v-16.1c0-.34-.15-.62-.45-.84-.35-.25-.89-.42-1.62-.52-.36-.05-.64-.12-.84-.21-.29-.14-.43-.33-.43-.58,0-.18.02-.34.05-.46h0c.05-.17.13-.3.25-.38h0c.1-.07.24-.11.42-.12.14-.01.31,0,.52.01,1.36.11,2.74.17,4.13.16,1.4-.01,2.82-.09,4.27-.22h0c.28-.03.5-.04.66-.05.19,0,.32,0,.4.01h0c.2.05.36.16.46.34.08.15.12.33.12.56M135.72,79.5c0,.27-.12.46-.39.58-.18.08-.43.12-.76.12-2.58,0-5.08-.86-7.51-2.58-2.37-1.68-4.66-4.18-6.89-7.51-.76.03-1.36.05-1.79.07l-.47.02v6.58c0,.21.03.37.09.5.05.11.13.19.23.24h0c.13.07.36.14.69.21.34.07.79.14,1.33.2h0c.43.06.76.15.98.27.31.17.46.4.46.68,0,.18-.02.33-.07.45-.06.16-.16.27-.29.34h0c-.1.06-.27.09-.49.11-.18.01-.42.01-.72,0-1.26-.04-2.58-.06-3.96-.03-1.37.02-2.81.08-4.31.16-.06,0-.11,0-.15,0-.31,0-.56-.06-.75-.19-.21-.15-.33-.36-.35-.64,0-.03,0-.05,0-.06,0-.27.13-.47.39-.62.19-.1.46-.17.81-.2.62-.05,1.07-.2,1.37-.45.27-.23.4-.56.4-.99v-15.72c0-.42-.16-.76-.47-1.01-.34-.28-.88-.48-1.59-.59h0c-.41-.06-.73-.15-.96-.26-.31-.16-.47-.37-.47-.63,0-.31.11-.54.32-.71.19-.15.45-.22.78-.22.08,0,.17,0,.26,0,.09,0,.19.01.28.03.28.03.64.06,1.06.07.41.02.92.02,1.53.02.24,0,.59,0,1.04-.01.49,0,1.13-.02,1.92-.04.79-.02,1.55-.03,2.29-.04.81,0,1.52-.01,2.12-.01,1.42,0,2.69.1,3.82.31,1.14.21,2.12.53,2.96.95.96.48,1.68,1.08,2.17,1.79.49.73.74,1.56.74,2.52,0,1.61-.6,2.95-1.79,4.01-1.09.97-2.67,1.71-4.76,2.21.65,1.12,1.34,2.16,2.09,3.12.83,1.07,1.72,2.06,2.68,2.96.97.91,1.88,1.62,2.75,2.12.85.49,1.65.79,2.4.88h0c.28.03.51.13.68.28.18.16.28.38.3.65h0ZM126.64,63.64c0-.76-.12-1.41-.37-1.95-.24-.52-.6-.94-1.08-1.25h0c-.5-.32-1.15-.57-1.96-.73-.83-.17-1.81-.25-2.96-.25-.51,0-.93.03-1.27.08-.31.05-.54.12-.69.21h0c-.12.07-.21.2-.28.37-.08.2-.12.47-.12.8v7.4c1.53-.05,2.86-.18,3.99-.4h0c1.18-.23,2.13-.54,2.84-.95h0c.63-.36,1.11-.81,1.42-1.37.31-.55.47-1.21.47-1.98"/>
      </g>
      <g>
        <path d="M63.92,84.48c-.88.77-1.32,1.81-1.32,3.11s.44,2.39,1.32,3.13c.88.74,2.06,1.11,3.56,1.11.48,0,.85-.02,1.12-.06.27-.04.56-.1.88-.18.25-.06.5-.14.74-.23.24-.09.45-.17.64-.24v-1.92h-.23c-.12.09-.27.19-.44.31-.17.12-.37.23-.59.34-.2.11-.46.21-.76.3-.3.09-.61.13-.94.13s-.64-.04-.95-.14c-.32-.09-.61-.24-.87-.44-.27-.21-.48-.49-.65-.84-.16-.34-.25-.77-.25-1.28s.08-.9.24-1.26c.16-.35.36-.64.61-.85.27-.23.56-.39.86-.48.3-.09.63-.14.99-.14.3,0,.6.04.88.12.28.08.53.18.77.3.23.12.44.24.62.36.18.12.33.23.46.31h.25v-1.95c-.16-.07-.38-.15-.65-.25-.27-.1-.51-.17-.74-.23-.29-.07-.59-.12-.91-.15-.32-.04-.67-.05-1.07-.05-1.5,0-2.68.39-3.56,1.16"/>
        <polygon points="72.33 83.49 72.33 91.68 78.98 91.68 78.98 90.11 74.84 90.11 74.84 83.49 72.33 83.49"/>
        <path d="M85.88,83.49v5.1c0,.59-.13,1.02-.4,1.29-.27.27-.69.4-1.26.4s-1.01-.14-1.27-.42c-.26-.28-.39-.7-.39-1.27v-5.1h-2.51v5.23c0,1.02.36,1.8,1.08,2.33.72.53,1.75.8,3.09.8s2.42-.27,3.12-.81c.7-.54,1.06-1.32,1.06-2.32v-5.22h-2.51Z"/>
        <path d="M92.81,88.13h.46c.45,0,.8,0,1.07,0,.27,0,.47.03.63.08.25.07.44.18.56.32.13.14.19.34.19.59,0,.2-.05.37-.16.53-.11.16-.27.27-.5.35-.26.09-.51.14-.76.15-.25,0-.7.01-1.35.01h-.13v-2.05ZM92.81,84.99h.17c.45,0,.78,0,1.01,0,.23,0,.42.04.58.1.18.06.3.16.39.3.08.14.12.28.12.41,0,.18-.04.34-.11.47-.08.14-.21.24-.41.32-.19.07-.36.11-.53.12-.17,0-.47.01-.9.01h-.32v-1.73ZM90.31,83.49v8.19h4c.69,0,1.26-.05,1.71-.15.45-.1.86-.28,1.24-.52.32-.2.57-.46.76-.76.19-.31.28-.67.28-1.07,0-.56-.19-1-.56-1.33-.37-.33-.86-.54-1.48-.65v-.05c.43-.15.77-.38,1.01-.69.24-.31.37-.67.37-1.07,0-.35-.09-.65-.27-.91-.18-.26-.44-.47-.8-.63-.33-.15-.69-.24-1.07-.29-.38-.05-.93-.07-1.67-.07h-3.53Z"/>
      </g>
    </g>
  </g>
</svg>