<?xml version="1.0" encoding="UTF-8"?>
<svg id="Layer_2" data-name="Layer 2" xmlns="http://www.w3.org/2000/svg" viewBox="0 0 181.55 43.27">
  <g id="Layer_1-2" data-name="Layer 1">
    <g>
      <path d="M21.51,0C9.63,0,0,9.63,0,21.5s9.63,21.51,21.51,21.51,21.5-9.63,21.5-21.51S33.39,0,21.51,0ZM35.97,28.02c0,.48-.18.9-.5,1.23-.35.34-.76.51-1.24.51s-.9-.18-1.22-.51c-.34-.33-.51-.74-.51-1.23v-8.69c0-1.21-.44-2.32-1.34-3.28-.96-.9-2.07-1.33-3.29-1.33-.65,0-1.25.12-1.81.36-.56.23-1.04.57-1.47.98-.4.43-.74.93-.98,1.49-.24.57-.36,1.17-.36,1.78v8.69c0,.48-.17.9-.51,1.23-.33.34-.74.51-1.23.51s-.89-.18-1.24-.51c-.33-.33-.5-.74-.5-1.23v-8.69c0-1.21-.45-2.32-1.34-3.28-.97-.9-2.06-1.33-3.29-1.33-.66,0-1.26.12-1.81.36-.55.23-1.04.57-1.47.98-.42.43-.75.93-1,1.49-.23.57-.36,1.17-.36,1.78v8.69c0,.48-.16.9-.51,1.23-.33.34-.74.51-1.21.51s-.9-.18-1.24-.51c-.33-.33-.5-.74-.5-1.23v-8.69c0-1.13.21-2.19.63-3.17.43-1,1.01-1.85,1.73-2.57.73-.72,1.61-1.29,2.59-1.72.98-.43,2.03-.62,3.14-.62,1.28,0,2.46.25,3.54.77,1.08.53,2.02,1.28,2.82,2.3.79-.98,1.74-1.75,2.81-2.28,1.09-.54,2.28-.79,3.55-.79,1.14,0,2.21.2,3.19.62.98.43,1.85,1,2.56,1.73.72.74,1.3,1.61,1.72,2.59.43.98.63,2.04.63,3.14v8.69Z"/>
      <g>
        <path d="M86.41,13.35c-.48-1.12-1.12-2.08-1.93-2.9-.82-.83-1.77-1.48-2.89-1.96-1.1-.47-2.3-.7-3.57-.7-1.43,0-2.76.3-3.97.89-1.22.6-2.26,1.46-3.16,2.56-.9-1.14-1.96-2-3.17-2.58-1.21-.57-2.54-.86-3.97-.86-1.25,0-2.42.23-3.52.7-1.12.48-2.08,1.12-2.91,1.94-.82.81-1.47,1.76-1.94,2.88-.48,1.1-.71,2.3-.71,3.57v9.74c0,.54.19,1.01.56,1.38.38.38.84.57,1.39.57s1-.19,1.38-.57c.37-.37.57-.84.57-1.38v-9.74c0-.7.13-1.37.4-2,.26-.63.63-1.19,1.12-1.67.47-.47,1.02-.84,1.64-1.11.62-.27,1.29-.4,2.02-.4,1.38,0,2.62.49,3.69,1.5,1.01,1.07,1.5,2.31,1.5,3.69v9.74c0,.54.2,1.01.58,1.38.37.38.83.57,1.38.57s1-.19,1.37-.57c.38-.37.57-.84.57-1.38v-9.74c0-.7.14-1.37.42-2,.26-.63.63-1.19,1.11-1.67.48-.47,1.03-.84,1.65-1.11.61-.27,1.29-.4,2.02-.4,1.38,0,2.62.49,3.7,1.5,1,1.07,1.5,2.31,1.5,3.69v9.74c0,.54.19,1.01.57,1.38.37.38.83.57,1.37.57s1.01-.19,1.39-.57c.37-.37.57-.84.57-1.38v-9.74c0-1.24-.24-2.42-.71-3.52Z"/>
        <path d="M109.34,14.14c-.54-1.26-1.27-2.35-2.2-3.3-.94-.94-2.03-1.7-3.29-2.23-1.26-.54-2.62-.81-4.08-.81s-2.77.27-4.03.81c-1.27.54-2.35,1.28-3.28,2.21-.94.93-1.68,2.04-2.24,3.3-.55,1.27-.83,2.63-.83,4.06s.27,2.78.81,4.03c.55,1.27,1.28,2.36,2.22,3.29.93.93,2.03,1.67,3.3,2.23,1.27.55,2.62.83,4.05.83s2.75-.27,4.03-.81c1.27-.55,2.36-1.28,3.3-2.22.93-.93,1.67-2.02,2.23-3.3.55-1.26.83-2.61.83-4.05s-.27-2.78-.82-4.04ZM105.76,20.68c-.33.79-.79,1.48-1.38,2.06-.58.58-1.27,1.05-2.07,1.4s-1.64.53-2.54.53-1.72-.18-2.51-.5c-.79-.35-1.48-.81-2.06-1.4-.58-.6-1.05-1.29-1.4-2.08-.35-.78-.53-1.61-.53-2.51s.18-1.74.5-2.52c.35-.79.8-1.47,1.39-2.05.58-.59,1.26-1.05,2.07-1.4.8-.35,1.64-.53,2.53-.53s1.74.16,2.52.5c.79.34,1.48.8,2.07,1.38.6.58,1.07,1.27,1.4,2.07.34.8.51,1.64.51,2.54s-.18,1.73-.51,2.51Z"/>
        <path d="M116.41.57c-.38-.38-.84-.57-1.39-.57s-1,.19-1.38.57c-.37.37-.56.83-.56,1.38v24.66c0,.54.19,1.01.56,1.38.38.38.84.57,1.38.57s1.01-.19,1.39-.57c.37-.37.57-.84.57-1.38V1.95c0-.55-.2-1.01-.57-1.38Z"/>
        <path d="M124.44,2.59c-.44-.43-.98-.65-1.63-.65s-1.16.22-1.6.67c-.45.44-.67.98-.67,1.6s.22,1.16.67,1.61c.44.45.98.67,1.6.67s1.16-.22,1.61-.67.67-.98.67-1.61-.22-1.18-.65-1.62ZM124.2,8.36c-.38-.38-.85-.57-1.39-.57s-1,.19-1.38.57c-.37.37-.57.83-.57,1.38v16.87c0,.54.2,1.01.57,1.38.38.38.84.57,1.38.57s1.01-.19,1.39-.57c.37-.37.56-.84.56-1.38V9.74c0-.55-.19-1.01-.56-1.38Z"/>
        <path d="M137.75,24.66h-1.95c-1.12,0-2.03-.37-2.78-1.12-.75-.74-1.12-1.67-1.12-2.78v-9.08h5.84c.54,0,1-.19,1.38-.58.37-.37.56-.83.56-1.37s-.19-1.01-.56-1.38c-.38-.38-.84-.57-1.38-.57h-5.84v-3.25c0-.54-.2-1.01-.57-1.38-.38-.38-.84-.57-1.38-.57s-1.01.19-1.39.57c-.37.37-.56.84-.56,1.38v16.23c0,1.08.2,2.1.6,3.04.42.95.96,1.77,1.66,2.48.71.7,1.53,1.25,2.47,1.65.95.42,1.97.61,3.05.61h1.95c.54,0,1-.19,1.38-.57.37-.37.56-.84.56-1.38s-.19-1-.56-1.38c-.38-.37-.84-.57-1.38-.57Z"/>
        <path d="M159.97,14.14c-.54-1.26-1.27-2.35-2.2-3.3-.94-.94-2.03-1.7-3.29-2.23-1.26-.54-2.61-.81-4.08-.81s-2.77.27-4.03.81c-1.26.54-2.35,1.28-3.29,2.21-.93.93-1.67,2.04-2.23,3.3-.55,1.27-.83,2.63-.83,4.06s.27,2.78.81,4.03c.55,1.27,1.28,2.36,2.22,3.29.93.93,2.02,1.67,3.3,2.23,1.27.55,2.61.83,4.05.83,1.21,0,2.37-.2,3.46-.59,1.07-.39,2.09-.95,3.04-1.67v.32c0,.54.19,1.01.57,1.38.37.38.83.57,1.37.57s1.01-.19,1.39-.57c.37-.37.57-.84.57-1.38v-8.44c0-1.43-.27-2.78-.82-4.04ZM156.38,20.68c-.33.79-.79,1.48-1.38,2.06-.58.58-1.27,1.05-2.07,1.4s-1.64.53-2.54.53-1.73-.18-2.51-.5c-.79-.35-1.48-.81-2.06-1.4-.58-.6-1.05-1.29-1.4-2.08-.35-.78-.53-1.61-.53-2.51s.17-1.74.5-2.52c.35-.79.81-1.47,1.39-2.05.58-.59,1.27-1.05,2.07-1.4.79-.35,1.64-.53,2.53-.53s1.74.16,2.52.5c.79.34,1.48.8,2.07,1.38.6.58,1.07,1.27,1.4,2.07.34.8.51,1.64.51,2.54s-.17,1.73-.51,2.51Z"/>
        <path d="M181.07,20.03c-.33-.72-.77-1.4-1.31-2.02-.61-.54-1.29-.97-2.02-1.3-.72-.32-1.51-.48-2.34-.48h-5.85c-.61,0-1.16-.23-1.6-.67-.45-.45-.67-.98-.67-1.61s.22-1.15.67-1.61c.44-.44.98-.66,1.6-.66h8.76c.55,0,1-.19,1.38-.58.38-.37.57-.83.57-1.37s-.19-1.01-.57-1.38c-.38-.38-.83-.57-1.38-.57h-8.76c-.83,0-1.63.16-2.37.48-.74.33-1.39.77-1.96,1.31-.57.57-1.02,1.21-1.35,1.98-.32.75-.48,1.54-.48,2.39s.15,1.61.46,2.37c.32.77.77,1.42,1.37,1.97.54.59,1.19,1.05,1.96,1.36.78.31,1.56.47,2.37.47h5.85c.65,0,1.18.21,1.62.65.43.44.65.97.65,1.62s-.23,1.16-.67,1.61c-.45.45-.98.67-1.6.67h-10.07c-.55,0-1.01.2-1.38.57-.38.38-.57.84-.57,1.38s.19,1.01.57,1.38c.37.38.83.57,1.38.57h10.07c.83,0,1.62-.16,2.36-.48.74-.33,1.4-.77,1.97-1.32s1.02-1.2,1.35-1.95c.32-.74.48-1.54.48-2.42s-.16-1.62-.48-2.35Z"/>
      </g>
      <g>
        <path d="M58.28,36.48h-2.77c0-.23.04-.45.13-.66.09-.21.22-.39.37-.55.15-.15.33-.27.54-.36.21-.1.42-.14.66-.14h1.07c.12,0,.22-.03.31-.11.08-.08.11-.19.11-.31s-.03-.23-.11-.31c-.09-.08-.19-.12-.31-.12h-1.07c-.35,0-.68.07-1,.2-.31.13-.57.32-.81.55-.22.23-.4.5-.54.81-.13.32-.2.65-.2,1v6.37c0,.13.04.23.11.31.09.09.19.12.32.12.11,0,.22-.03.3-.12.08-.08.12-.18.12-.31v-5.53h2.77c.12,0,.22-.03.31-.11.08-.09.11-.19.11-.31,0-.13-.03-.23-.11-.31-.09-.08-.19-.12-.31-.12Z"/>
        <path d="M67.79,38.56c-.19-.4-.43-.78-.73-1.08-.31-.31-.67-.55-1.07-.73-.42-.18-.85-.26-1.33-.26s-.91.09-1.32.26c-.42.19-.77.43-1.07.73-.31.31-.55.66-.73,1.07-.17.42-.27.86-.27,1.32s.1.91.27,1.32c.18.42.42.78.72,1.08.3.3.67.55,1.08.72.42.19.85.27,1.32.27s.9-.09,1.31-.26c.42-.19.78-.43,1.08-.73.31-.3.55-.66.73-1.07.18-.42.27-.85.27-1.33s-.09-.9-.26-1.31ZM67,40.86c-.13.32-.32.59-.55.81-.23.24-.49.42-.81.55-.32.13-.65.21-1,.21s-.69-.08-1-.21-.58-.31-.81-.55c-.23-.22-.42-.49-.54-.81-.14-.31-.21-.63-.21-1s.07-.68.21-.98c.12-.32.31-.58.54-.82.23-.22.5-.4.81-.54s.65-.21,1-.21.68.08,1,.21c.32.13.58.32.81.54.23.24.42.5.55.82.13.31.2.63.2.98s-.07.69-.2,1Z"/>
        <path d="M78.08,38.56c-.18-.4-.42-.78-.71-1.08-.31-.31-.67-.55-1.08-.73-.4-.18-.85-.26-1.34-.26s-.91.09-1.31.26c-.42.19-.78.43-1.08.73-.31.31-.55.66-.72,1.07-.19.42-.27.86-.27,1.32s.09.91.26,1.32.42.78.72,1.08c.31.3.67.55,1.08.72.42.19.85.27,1.32.27s.95-.1,1.4-.3c.45-.2.83-.48,1.15-.85v.72c0,.13.03.23.12.31.08.09.18.12.31.12.12,0,.22-.03.31-.12.08-.08.12-.18.12-.31v-2.98c0-.46-.09-.9-.27-1.31ZM77.3,40.86c-.13.32-.31.59-.55.81-.23.24-.5.42-.81.55s-.63.21-1,.21-.68-.08-1-.21c-.31-.13-.57-.31-.81-.55-.23-.22-.4-.49-.55-.81-.13-.31-.2-.63-.2-1s.07-.68.2-.98c.14-.32.32-.58.55-.82.24-.22.5-.4.81-.54.32-.13.65-.21,1-.21s.69.08,1,.21.58.32.81.54c.24.24.42.5.55.82.13.31.2.63.2.98s-.07.69-.2,1Z"/>
        <path d="M92.87,38.3c-.15-.37-.36-.69-.62-.96-.26-.26-.58-.48-.94-.63-.37-.15-.75-.23-1.17-.23-.53,0-1.02.13-1.48.38-.46.26-.81.61-1.07,1.06-.26-.45-.61-.8-1.07-1.06-.46-.25-.95-.38-1.48-.38-.4,0-.79.08-1.15.23-.37.15-.68.37-.95.63-.26.26-.48.58-.63.94-.15.36-.24.75-.24,1.17v3.39c0,.13.04.23.13.31.08.09.18.12.3.12s.23-.03.31-.12c.08-.08.12-.18.12-.31v-3.39c0-.3.05-.57.17-.83.1-.25.25-.47.45-.67.19-.19.42-.34.68-.46.25-.11.53-.18.82-.18s.57.07.83.18c.25.11.48.26.67.45.2.19.35.42.46.68.11.26.16.54.16.83v3.39c0,.13.04.23.12.31.09.09.19.12.31.12.13,0,.23-.03.31-.12.08-.08.12-.18.12-.31v-3.39c0-.3.06-.57.16-.83.11-.25.26-.47.46-.67.19-.19.4-.34.67-.46.26-.11.55-.18.83-.18s.56.07.82.18c.26.11.48.26.68.45.2.19.35.42.46.68.11.26.16.54.16.83v3.39c0,.13.04.23.12.31.09.09.19.12.31.12s.23-.03.31-.12c.08-.08.12-.18.12-.31v-3.39c0-.42-.09-.8-.24-1.15Z"/>
        <path d="M113.02,40.62c-.1-.23-.24-.44-.42-.6-.16-.18-.37-.32-.6-.42-.23-.11-.47-.15-.74-.15h-2.12c-.3,0-.55-.11-.74-.33-.21-.19-.32-.44-.32-.73s.11-.55.31-.75c.22-.21.46-.32.75-.32h3.18c.13,0,.23-.03.31-.11.09-.09.12-.19.12-.31,0-.13-.03-.23-.12-.31-.08-.08-.17-.12-.31-.12h-3.18c-.25,0-.5.05-.73.15-.24.1-.44.24-.61.4-.16.18-.31.38-.4.61-.11.23-.15.48-.15.74s.04.49.15.73c.1.22.24.43.4.6.18.19.37.32.61.43.23.1.48.15.73.15h2.12c.28,0,.54.1.76.3.21.22.31.48.31.77s-.1.54-.31.74c-.21.21-.46.32-.76.32h-3.61c-.12,0-.22.03-.31.11-.08.09-.11.19-.11.31,0,.13.03.23.11.31.09.09.19.12.31.12h3.61c.25,0,.5-.05.73-.15.24-.1.45-.24.61-.4.17-.18.32-.38.42-.6.11-.24.15-.48.15-.74s-.04-.53-.15-.74Z"/>
        <path d="M123.1,38.56c-.18-.4-.42-.78-.72-1.08-.31-.31-.66-.55-1.07-.73-.42-.18-.85-.26-1.34-.26s-.91.09-1.31.26c-.42.19-.78.43-1.08.73-.31.31-.55.66-.72,1.07-.19.42-.28.86-.28,1.32s.1.91.27,1.32c.18.42.42.78.72,1.08.31.3.67.55,1.08.72.42.19.85.27,1.32.27s.9-.09,1.31-.26c.42-.19.78-.43,1.08-.73.31-.3.55-.66.73-1.07.18-.42.27-.85.27-1.33s-.09-.9-.27-1.31ZM122.32,40.86c-.13.32-.32.59-.55.81-.23.24-.5.42-.81.55-.31.13-.63.21-1,.21s-.69-.08-1-.21-.58-.31-.81-.55c-.23-.22-.4-.49-.55-.81-.13-.31-.2-.63-.2-1s.07-.68.2-.98c.14-.32.32-.58.55-.82.23-.22.5-.4.81-.54s.63-.21,1-.21.69.08,1,.21c.31.13.58.32.81.54.23.24.42.5.55.82.13.31.2.63.2.98s-.07.69-.2,1Z"/>
        <path d="M127.92,34.05c-.09-.08-.19-.12-.31-.12-.13,0-.23.04-.31.12-.08.08-.12.19-.12.31v8.49c0,.13.04.23.12.31.08.09.17.12.31.12.12,0,.22-.03.31-.12.08-.08.12-.18.12-.31v-8.49c0-.12-.04-.23-.12-.31Z"/>
        <path d="M138.64,36.6c-.09-.08-.19-.12-.31-.12-.13,0-.23.04-.31.12s-.12.18-.12.31v2.97c0,.36-.07.69-.2,1-.13.32-.32.59-.55.81-.23.24-.5.42-.81.55-.31.13-.63.21-1,.21s-.68-.08-1-.21c-.31-.13-.57-.31-.81-.55-.23-.22-.42-.49-.55-.81-.13-.31-.2-.63-.2-1v-2.97c0-.13-.04-.23-.11-.31-.09-.08-.19-.12-.31-.12-.13,0-.23.04-.31.12-.08.08-.12.18-.12.31v2.97c0,.48.09.91.26,1.32.17.42.42.78.72,1.08.31.3.67.55,1.08.72.42.19.86.27,1.32.27s.9-.09,1.31-.26c.43-.19.78-.43,1.08-.73.31-.3.55-.66.73-1.07.18-.42.27-.85.27-1.33v-2.97c0-.13-.04-.23-.12-.31Z"/>
        <path d="M145.88,42.43h-.85c-.22,0-.44-.04-.66-.13-.21-.08-.38-.21-.54-.38-.16-.14-.3-.33-.38-.54-.08-.21-.12-.43-.12-.66v-3.4h2.55c.12,0,.23-.03.31-.11.08-.09.12-.19.12-.31,0-.13-.04-.23-.12-.31-.08-.08-.19-.12-.31-.12h-2.55v-1.27c0-.13-.04-.23-.11-.31-.09-.09-.19-.13-.31-.13-.13,0-.23.04-.31.13-.09.08-.13.18-.13.31v5.51c0,.36.07.69.21,1,.13.31.32.58.54.81.23.23.5.42.82.55.31.13.63.2.99.2h.85c.12,0,.23-.03.31-.12.08-.08.12-.18.12-.31,0-.12-.04-.22-.12-.31-.08-.08-.19-.11-.31-.11Z"/>
        <path d="M150.83,34.92c-.12-.1-.24-.15-.39-.15s-.27.05-.37.15c-.11.11-.15.24-.15.38,0,.16.06.28.15.37.09.11.22.16.37.16s.28-.05.38-.15c.1-.11.15-.23.15-.38,0-.14-.06-.27-.14-.38ZM150.75,36.6c-.08-.08-.18-.12-.31-.12-.12,0-.22.04-.31.12-.08.08-.11.18-.11.31v5.94c0,.13.03.23.11.31.09.09.19.12.31.12.13,0,.23-.03.31-.12.09-.08.12-.18.12-.31v-5.94c0-.13-.03-.23-.12-.31Z"/>
        <path d="M161.23,38.56c-.19-.4-.43-.78-.73-1.08-.31-.31-.66-.55-1.07-.73-.42-.18-.85-.26-1.34-.26s-.91.09-1.32.26c-.4.19-.77.43-1.07.73-.31.31-.55.66-.73,1.07-.18.42-.26.86-.26,1.32s.09.91.26,1.32c.17.42.42.78.72,1.08.31.3.67.55,1.08.72.42.19.85.27,1.32.27s.9-.09,1.31-.26c.42-.19.78-.43,1.08-.73.31-.3.55-.66.73-1.07s.27-.85.27-1.33-.09-.9-.26-1.31ZM160.44,40.86c-.13.32-.32.59-.55.81-.23.24-.49.42-.81.55-.32.13-.63.21-1,.21s-.69-.08-1-.21c-.31-.13-.58-.31-.81-.55-.23-.22-.4-.49-.54-.81-.14-.31-.21-.63-.21-1s.07-.68.21-.98c.13-.32.31-.58.54-.82.23-.22.5-.4.81-.54.31-.13.65-.21,1-.21s.68.08,1,.21c.32.13.58.32.81.54.23.24.42.5.55.82.13.31.2.63.2.98s-.07.69-.2,1Z"/>
        <path d="M171.63,38.56c-.17-.4-.42-.78-.72-1.08-.31-.31-.68-.55-1.08-.73-.42-.18-.85-.26-1.34-.26s-.91.09-1.32.26c-.4.19-.77.43-1.07.73-.3.31-.55.66-.73,1.07-.18.42-.26.86-.26,1.32v2.98c0,.13.03.23.11.31.09.09.19.12.31.12.13,0,.23-.03.31-.12.09-.08.13-.18.13-.31v-2.98c0-.35.07-.68.19-.98.13-.32.32-.58.55-.82.23-.22.5-.4.81-.54.31-.13.65-.21,1-.21s.69.08,1,.21.58.32.81.54c.23.24.42.5.55.82.13.31.2.63.2.98v2.98c0,.13.04.23.12.31.08.09.19.12.31.12s.23-.03.31-.12c.08-.08.11-.18.11-.31v-2.98c0-.46-.09-.9-.25-1.31Z"/>
        <path d="M181.4,40.62c-.1-.23-.24-.44-.42-.6-.18-.18-.37-.32-.6-.42-.23-.11-.47-.15-.74-.15h-2.12c-.3,0-.55-.11-.74-.33-.21-.19-.32-.44-.32-.73s.11-.55.31-.75c.22-.21.46-.32.75-.32h3.18c.13,0,.23-.03.31-.11.09-.09.12-.19.12-.31,0-.13-.03-.23-.12-.31-.08-.08-.17-.12-.31-.12h-3.18c-.25,0-.5.05-.73.15-.24.1-.44.24-.61.4-.17.18-.31.38-.42.61-.1.23-.15.48-.15.74s.06.49.15.73c.11.22.24.43.42.6.18.19.37.32.61.43.23.1.48.15.73.15h2.12c.28,0,.54.1.76.3.21.22.31.48.31.77s-.1.54-.31.74c-.21.21-.46.32-.76.32h-3.61c-.12,0-.23.03-.31.11-.08.09-.12.19-.12.31,0,.13.04.23.12.31.08.09.19.12.31.12h3.61c.25,0,.5-.05.73-.15.24-.1.44-.24.61-.4.17-.18.32-.38.42-.6.1-.24.15-.48.15-.74s-.05-.53-.15-.74Z"/>
      </g>
    </g>
  </g>
</svg>