<?xml version="1.0" encoding="UTF-8"?>
<svg id="Layer_2" data-name="Layer 2" xmlns="http://www.w3.org/2000/svg" viewBox="0 0 118.95 95.99">
  <g id="Layer_1-2" data-name="Layer 1">
    <g>
      <path d="M13,81.63c1.12,0,2.06-.16,2.81-.48.75-.32,1.36-.75,1.81-1.3.46-.54.78-1.18.97-1.91.19-.73.29-1.51.29-2.34,0-1.17-.33-2.03-1-2.57s-1.65-.82-2.96-.82h-2.61l-1.66,9.42h2.35ZM8.53,93.7h3.21c.93,0,1.77-.11,2.5-.34.73-.23,1.35-.59,1.85-1.09.5-.5.88-1.14,1.15-1.93.26-.78.39-1.73.39-2.85,0-1.31-.38-2.3-1.13-2.97-.75-.67-1.97-1.01-3.64-1.01h-2.54l-1.79,10.19ZM6.18,74.03l-1.86-2.96.12-.72h12.32c1.39,0,2.6.13,3.62.39,1.02.26,1.87.62,2.54,1.09.67.46,1.17,1.01,1.5,1.64.33.63.49,1.31.49,2.05,0,.78-.15,1.53-.46,2.24-.3.71-.76,1.36-1.36,1.95-.6.59-1.36,1.11-2.27,1.55-.91.44-1.97.79-3.17,1.05,1.02.15,1.91.4,2.67.75.76.35,1.41.77,1.93,1.27.52.5.91,1.06,1.17,1.68.26.62.39,1.29.39,1.99,0,1.37-.29,2.53-.88,3.48-.58.96-1.43,1.74-2.54,2.34-1.11.6-2.47,1.04-4.08,1.31-1.61.27-3.45.41-5.5.41H0l.12-.7,2.91-2.98,3.15-17.84Z"/>
      <path d="M34.18,93.19c.39,0,.8-.08,1.24-.25s.86-.38,1.27-.63c.41-.25.79-.52,1.15-.81.36-.29.65-.56.88-.81l1.68-9.53c-.1-.32-.23-.6-.39-.87-.15-.26-.33-.49-.53-.69-.2-.2-.43-.35-.68-.46-.26-.11-.55-.17-.88-.17-.56,0-1.1.15-1.61.44-.51.29-.99.69-1.43,1.21-.44.51-.83,1.12-1.18,1.81s-.65,1.45-.9,2.26c-.25.81-.44,1.66-.58,2.56-.13.89-.2,1.79-.2,2.69,0,1.1.17,1.91.51,2.45.34.54.89.81,1.65.81M47.43,93.19c-.39.34-.81.67-1.29,1.01-.47.33-.98.63-1.52.9-.54.27-1.1.48-1.69.65-.59.16-1.19.25-1.8.25-.4,0-.76-.07-1.08-.2-.32-.13-.58-.35-.79-.65-.2-.3-.34-.69-.39-1.16-.06-.48-.02-1.07.11-1.77h-.16c-.44.41-.97.83-1.59,1.28-.61.44-1.27.85-1.97,1.22-.7.37-1.43.67-2.19.91s-1.5.36-2.22.36-1.37-.14-1.94-.42c-.57-.28-1.06-.67-1.45-1.18-.4-.51-.7-1.12-.92-1.83-.22-.71-.32-1.5-.32-2.36,0-1.2.13-2.36.39-3.46.26-1.1.64-2.13,1.12-3.08.48-.95,1.07-1.81,1.75-2.58.68-.77,1.44-1.43,2.28-1.97.83-.54,1.74-.96,2.72-1.26.98-.3,1.99-.45,3.06-.45.42,0,.81.05,1.17.14.36.09.68.21.97.36.29.15.56.31.8.48.24.18.45.35.64.53l3.73-1.03h1.59l-2.35,13.24c-.12.63-.11,1.08.03,1.34.13.26.34.39.62.39.47,0,.87-.08,1.21-.25.34-.16.64-.3.91-.42l.58,1.03Z"/>
      <path d="M58.78,77.83l-.77,3.27h.35c.19-.21.44-.45.76-.72.32-.27.68-.54,1.08-.81.4-.27.82-.54,1.26-.81.44-.26.89-.5,1.34-.71.45-.21.89-.38,1.31-.5.43-.12.81-.18,1.17-.18.16,0,.34.02.54.06.2.04.4.11.6.22l-1.59,6.18-.6.02c-.18-.27-.35-.55-.52-.85-.17-.3-.34-.59-.51-.87-.17-.28-.34-.53-.51-.76-.17-.23-.34-.41-.52-.55-.3,0-.65.07-1.05.21-.4.14-.79.32-1.18.54-.39.22-.76.47-1.1.75-.34.28-.62.56-.83.84l.14-.86-.18,1.02-2.16,12.22h-5.43l2.16-12.22.26-1.49-2.12-2.31.12-.68,7.59-1.47.39.46Z"/>
      <path d="M76.53,79.02c-.42,0-.84.12-1.27.35-.43.23-.83.6-1.2,1.09-.37.49-.72,1.11-1.02,1.86-.31.75-.56,1.63-.74,2.66l6.01-.39c.19-1.09.28-1.98.29-2.7,0-.71-.07-1.28-.24-1.71-.16-.43-.4-.73-.71-.9-.31-.18-.68-.26-1.11-.26M81.84,91.96c-.56.55-1.14,1.07-1.75,1.56-.61.49-1.26.92-1.95,1.28-.7.36-1.44.65-2.23.86-.79.21-1.66.32-2.59.32-1.15,0-2.16-.18-3.05-.53-.89-.36-1.64-.86-2.25-1.51-.61-.65-1.08-1.42-1.4-2.33-.32-.9-.48-1.9-.48-2.99,0-1.61.28-3.1.85-4.47.57-1.37,1.35-2.56,2.34-3.56.99-1,2.15-1.79,3.48-2.36,1.33-.57,2.75-.85,4.28-.85,1.26,0,2.34.23,3.25.68.9.46,1.63,1.08,2.16,1.88.54.8.88,1.74,1.04,2.81.16,1.07.13,2.22-.1,3.45h-11.39s-.05.14-.08.27c-.03.13-.04.37-.04.71-.01.91.08,1.73.27,2.45.19.72.48,1.33.85,1.83.37.5.83.88,1.38,1.15.54.27,1.16.4,1.85.4.51,0,1.01-.08,1.48-.23.47-.15.92-.34,1.33-.55s.8-.45,1.16-.69c.36-.25.67-.47.95-.67l.65,1.09Z"/>
      <path d="M94.37,93.19c-.37.34-.79.67-1.26,1.01-.47.33-.97.63-1.5.89-.53.26-1.09.48-1.69.65-.6.17-1.21.25-1.84.25-.44,0-.86-.08-1.24-.23-.38-.15-.69-.41-.94-.77-.25-.36-.41-.84-.48-1.44-.08-.6-.03-1.34.13-2.22l3.17-17.98.19-1.1-2.1-1.77.1-.67,7.95-1.47.37.47-1.07,4.54-3.14,17.72c-.12.64-.11,1.09.02,1.36.13.26.36.39.7.39.4,0,.77-.08,1.11-.25.34-.17.66-.31.95-.41l.54,1.03Z"/>
      <path d="M106.73,93.19c-.37.34-.79.67-1.26,1.01-.47.33-.97.63-1.5.89-.53.26-1.09.48-1.69.65-.6.17-1.21.25-1.84.25-.44,0-.86-.08-1.24-.23-.38-.15-.69-.41-.94-.77-.25-.36-.41-.84-.48-1.44-.08-.6-.03-1.34.13-2.22l3.17-17.98.19-1.1-2.1-1.77.1-.67,7.95-1.47.37.47-1.07,4.54-3.14,17.72c-.12.64-.11,1.09.02,1.36.13.26.36.39.7.39.4,0,.77-.08,1.11-.25.34-.17.66-.31.95-.41l.54,1.03Z"/>
      <path d="M118.95,71.65c0,.48-.09.92-.28,1.32-.19.4-.44.75-.77,1.04-.33.29-.71.52-1.14.68-.43.16-.89.25-1.38.25-.81,0-1.44-.2-1.91-.59-.47-.39-.7-.98-.7-1.76,0-.48.09-.92.28-1.33.19-.41.44-.76.77-1.06.33-.3.71-.53,1.15-.69.44-.16.91-.25,1.41-.25.78,0,1.41.2,1.87.6.47.4.7,1,.7,1.78M118.89,93.19c-.37.34-.79.67-1.26,1.01-.47.33-.97.63-1.5.89-.53.26-1.09.48-1.69.65-.6.17-1.21.25-1.84.25-.44,0-.86-.08-1.24-.23-.38-.15-.69-.41-.93-.77-.24-.36-.4-.84-.47-1.44-.08-.6-.03-1.34.13-2.22l1.47-8.37.19-1.14-1.98-2.28.12-.7,7.76-1.44.46.51-.68,2.57-.44,2.47-1.44,8.11c-.12.64-.11,1.09.02,1.36.13.26.36.39.7.39.4,0,.77-.08,1.11-.25s.66-.31.95-.41l.54,1.03Z"/>
      <path d="M62.05,32.61l1.68-9.47h2.63c1.32,0,2.31.28,2.98.83.67.55,1,1.41,1,2.59,0,.83-.1,1.62-.29,2.35-.19.73-.52,1.37-.98,1.92s-1.07.98-1.82,1.3-1.7.48-2.83.48h-2.36ZM64.27,34.5c1.68,0,2.9.34,3.66,1.01s1.14,1.67,1.14,2.98c0,1.13-.13,2.08-.4,2.87-.26.79-.65,1.43-1.15,1.94-.51.5-1.13.87-1.86,1.1-.73.23-1.57.34-2.51.34h-3.23l1.8-10.25h2.56ZM65.08,57.45c-.73.04-1.46.12-2.17.01-6.88-1.01-8.5-3.72-8.4-6.18.1-2.64,2.39-4.67,5.03-4.67h2.66c2.07,0,3.91-.14,5.54-.41,1.62-.28,2.99-.72,4.11-1.32,1.12-.6,1.97-1.39,2.56-2.35.59-.96.88-2.13.88-3.5,0-.7-.13-1.37-.39-2-.26-.63-.65-1.19-1.17-1.69-.52-.5-1.17-.92-1.94-1.28-.77-.35-1.67-.6-2.69-.76,1.21-.26,2.27-.61,3.19-1.06.92-.45,1.68-.97,2.28-1.56.61-.59,1.06-1.25,1.37-1.96.31-.72.46-1.47.46-2.25,0-.74-.16-1.43-.49-2.06-.33-.63-.83-1.18-1.51-1.65-.68-.46-1.53-.83-2.56-1.09-1.03-.26-2.24-.4-3.64-.4h-12.4l-.12.72,1.87,2.98-3.17,17.95s-2.67,8.1-7.33,6.63c-.82-.26-1.52-.81-2.04-1.5-3.18-4.23-4.97-9.56-4.68-15.31.61-12.09,10.47-21.84,22.58-22.32,13.69-.54,24.96,10.65,24.51,24.3-.4,12.15-10.18,22.11-22.34,22.72M66.58,6.46l-.75-6.46h-3.94l-.75,6.46c-13.97,1.37-24.93,13.17-24.93,27.48,0,15.23,12.4,27.62,27.65,27.62s27.65-12.39,27.65-27.62c0-14.31-10.96-26.11-24.93-27.48"/>
      <path d="M47.79,47.48c.16.06.38.05.38.05.8,0,1.25-.94.73-1.55-3.78-4.5-5.58-10.71-4.01-17.29,1.69-7.08,7.32-12.63,14.43-14.23,14.22-3.22,26.69,9.18,23.59,23.37-1.58,7.2-7.22,12.9-14.4,14.59-3.62.85-7.11.67-10.28-.28-.69-.21-1.2.66-.66,1.15.23.21.51.4.81.58.49.29,1.04.46,1.6.57,1.26.23,2.55.36,3.87.36,11.78,0,21.36-9.57,21.36-21.33,0-.25-.01-.51-.02-.76-.29-5.1-2.37-9.87-5.98-13.6-4.07-4.2-9.52-6.51-15.36-6.51-.29,0-.58,0-.87.02-10.88.43-19.84,9.24-20.47,20.08,0,.26-.02.51-.02.77,0,5.37,2,10.27,5.28,14.02"/>
    </g>
  </g>
</svg>