<?xml version="1.0" encoding="UTF-8"?>
<svg id="Layer_2" data-name="Layer 2" xmlns="http://www.w3.org/2000/svg" viewBox="0 0 176.08 57.52">
  <g id="Layer_1-2" data-name="Layer 1">
    <g>
      <path d="M38.85,14.33v9.48h-5.52v-8.95c0-.57-.1-1-.24-1.29-.19-.29-.57-.48-1.14-.48-.29,0-.67.1-1.24.29-.57.19-1.1.38-1.52.57v9.86h-5.57v-8.95c0-.57-.1-1-.24-1.29-.19-.29-.57-.48-1.14-.48-.29,0-.67.1-1.24.29s-1.1.38-1.57.57v9.86h-5.57v-14.67h3.29l.95,1.52c2.14-1.33,4.09-2,5.86-2,1.95,0,3.33.62,4.19,1.81,2-1.19,3.86-1.81,5.52-1.81,3.43,0,5.19,1.9,5.19,5.67Z"/>
      <path d="M49.04,24.14c-2.48,0-4.43-.67-5.95-2-1.52-1.33-2.24-3.24-2.24-5.76,0-1.57.38-3,1.1-4.14.71-1.19,1.71-2.1,3-2.71,1.24-.62,2.67-.9,4.24-.9s3.09.29,4.33.9,2.24,1.52,2.95,2.71,1.05,2.62,1.05,4.33c0,1.57-.38,2.95-1.1,4.09-.71,1.14-1.76,2-3.05,2.62-1.33.57-2.76.86-4.33.86ZM51.8,16.57c0-1-.24-1.86-.67-2.48-.48-.67-1.1-.95-1.9-.95-.86,0-1.52.29-2,.86-.48.57-.71,1.38-.71,2.43s.24,1.81.67,2.38,1.1.86,1.9.86c.86,0,1.52-.29,2-.81.48-.48.71-1.29.71-2.29Z"/>
      <path d="M75.13,16.28c0,2.57-.71,4.52-2.1,5.86s-3.29,2-5.67,2c-1.33,0-2.57-.43-3.71-1.29l-.95.95h-2.76V2.76l5.52-.33v6.57c.76-.24,1.48-.38,2.19-.38,2.24,0,4.09.67,5.48,1.95,1.29,1.29,2,3.19,2,5.71ZM69.42,16.33c0-1.1-.24-1.95-.71-2.57-.48-.57-1.14-.9-2-.9-.43,0-.9.14-1.33.48v6.19c.57.29,1.1.38,1.57.38.71,0,1.29-.33,1.76-.95.48-.67.71-1.52.71-2.62Z"/>
      <path d="M82.99,4.19c0,.81-.29,1.52-.9,2.1-.57.57-1.29.86-2.14.86-.81,0-1.52-.29-2.1-.86s-.86-1.29-.86-2.1.29-1.52.86-2.14c.57-.57,1.29-.9,2.1-.9s1.52.29,2.14.9c.62.57.9,1.29.9,2.14ZM82.75,9.14v14.67h-5.52v-14.67h5.52Z"/>
      <path d="M91.56,2.43v21.38h-5.52V2.76l5.52-.33Z"/>
      <path d="M103.37,13.09c-.33,0-.76.1-1.38.24-.57.19-1.14.38-1.62.57v9.9h-5.52v-14.67h3.29l.95,1.52c2.14-1.33,4.14-2,6-2s3.09.52,4,1.57c.9,1.05,1.33,2.43,1.33,4.14v9.43h-5.52v-8.95c0-.52-.14-.9-.38-1.24s-.57-.52-1.14-.52Z"/>
      <path d="M120.37,8.62c1.52,0,2.81.33,3.86,1.05,1.05.67,1.86,1.62,2.38,2.76.52,1.14.81,2.43.81,3.86v1.62h-8.9c.19.62.57,1.1,1.14,1.48.57.33,1.29.52,2.19.52,1.38,0,2.71-.33,4.05-1l1.52,3.71c-.62.43-1.48.81-2.62,1.14-1.14.29-2.29.48-3.48.48-1.71,0-3.24-.29-4.57-.86s-2.33-1.48-3.09-2.62-1.14-2.52-1.14-4.14.33-3,1.05-4.19c.67-1.19,1.62-2.1,2.81-2.76,1.14-.71,2.48-1.05,4-1.05ZM125.03,0l-3.43,6-4-.67,2-5.33h5.43ZM120.18,13.05c-.52,0-.95.19-1.33.62s-.57.9-.57,1.48h3.81c0-.52-.14-1-.48-1.43-.29-.43-.76-.67-1.43-.67Z"/>
      <path d="M19.38,45.85v4.71h-5.52v-21.05l5.52-.33v10.9l5.48-4.62,3.29,3.76-3.9,2.95,4.95,8.38h-5.9l-2.9-5.48-1,.76Z"/>
      <path d="M38,50.9c-2.48,0-4.43-.67-5.95-2-1.52-1.33-2.24-3.24-2.24-5.76,0-1.57.38-3,1.1-4.14.71-1.19,1.71-2.1,3-2.71,1.24-.62,2.67-.9,4.24-.9s3.09.29,4.33.9,2.24,1.52,2.95,2.71,1.05,2.62,1.05,4.33c0,1.57-.38,2.95-1.1,4.09s-1.76,2-3.05,2.62c-1.29.57-2.71.86-4.33.86ZM40.76,43.33c0-1-.24-1.86-.67-2.48-.48-.67-1.1-.95-1.9-.95-.86,0-1.52.29-2,.86-.48.57-.71,1.38-.71,2.43s.24,1.81.67,2.38,1.1.86,1.9.86c.86,0,1.52-.29,2-.81.48-.48.71-1.29.71-2.29Z"/>
      <path d="M57.04,39.85c-.33,0-.76.1-1.38.24-.57.19-1.14.38-1.62.57v9.86h-5.48v-14.62h3.29l.95,1.52c2.14-1.33,4.14-2,6-2s3.09.52,4,1.57c.9,1.05,1.33,2.43,1.33,4.14v9.48h-5.52v-9c0-.52-.14-.9-.38-1.24s-.62-.52-1.19-.52Z"/>
      <path d="M73.61,36.52h3.86l.52,4.33h-4.38v3.62c0,.62.14,1.1.48,1.43s.71.52,1.24.52c.71,0,1.43-.19,2.1-.57l1.57,3.76c-.38.33-1,.62-1.81.9-.81.29-1.57.43-2.24.43-1.19,0-2.33-.24-3.38-.67-1.05-.43-1.9-1.1-2.52-2-.62-.86-.95-1.95-.95-3.19v-4.24h-2.29v-4.33h2.29v-3.95l5.52-.76v4.71h0Z"/>
      <path d="M85.9,39.85c-.48,0-1.1.1-1.76.24-.71.19-1.33.38-1.9.62l-1.48-3.95c.86-.38,1.86-.71,3.05-1s2.33-.43,3.43-.43c1.95,0,3.48.52,4.52,1.62,1.05,1.1,1.57,2.57,1.57,4.48v9.09h-2.67l-1.57-1.52c-.95,1.24-2.05,1.86-3.29,1.86-1.81,0-3.19-.48-4.09-1.38-.9-.9-1.38-2.14-1.38-3.71,0-2.86,1.9-4.29,5.76-4.29h1.76c-.1-.57-.29-1-.62-1.29-.38-.19-.81-.33-1.33-.33ZM86.13,44.57c-.38,0-.67.1-.9.33s-.33.52-.33.86c0,.29.1.57.29.76.19.19.43.29.71.29.62,0,1.29-.29,1.95-.81v-1.38h-1.71v-.05Z"/>
      <path d="M96.47,30.95c0-.81.29-1.52.86-2.14.57-.57,1.29-.9,2.1-.9s1.52.29,2.14.9c.57.62.9,1.29.9,2.14,0,.81-.29,1.52-.9,2.1-.57.57-1.29.86-2.14.86-.76,0-1.43-.29-2.05-.9-.57-.57-.9-1.29-.9-2.05ZM102.23,35.9v21.62h-5.52v-21.62h5.52Z"/>
      <path d="M113.85,39.85c-.33,0-.76.1-1.38.24-.57.19-1.14.38-1.62.57v9.86h-5.52v-14.62h3.29l.95,1.52c2.14-1.33,4.14-2,6-2s3.09.52,4,1.57c.9,1.05,1.33,2.43,1.33,4.14v9.48h-5.52v-9c0-.52-.14-.9-.38-1.24s-.57-.52-1.14-.52Z"/>
      <path d="M130.84,35.38c1.52,0,2.81.33,3.86,1.05,1.05.67,1.86,1.62,2.38,2.76s.81,2.43.81,3.86v1.62h-8.9c.19.62.57,1.1,1.14,1.48.57.33,1.29.52,2.19.52,1.38,0,2.71-.33,4.05-1l1.52,3.71c-.62.43-1.48.81-2.62,1.14-1.14.29-2.29.48-3.48.48-1.71,0-3.24-.29-4.57-.86-1.33-.57-2.33-1.48-3.09-2.62s-1.14-2.52-1.14-4.14.33-3,1.05-4.19c.67-1.19,1.62-2.1,2.81-2.76,1.14-.71,2.48-1.05,4-1.05ZM130.65,39.81c-.52,0-.95.19-1.33.62s-.57.9-.57,1.48h3.81c0-.52-.14-1-.48-1.43-.33-.43-.76-.67-1.43-.67Z"/>
      <path d="M147.7,40.76c-.86.29-1.62.71-2.24,1.19v8.62h-5.52v-14.62h2.76l1.33,1.81c.71-.48,1.52-.9,2.43-1.29.9-.38,1.76-.52,2.52-.52l1.14,4.43c-.76-.05-1.57.1-2.43.38Z"/>
      <path d="M167.32,35.9l-5.76,14.67v6.95h-5.19v-6.95l-5.33-13.76,5.09-1.48,2.95,8.86,2.81-8.28h5.43Z"/>
      <path d="M11.38,54.28h-4.43c-3.86,0-6.95-3.09-6.95-6.95V12.38c0-3.81,3.09-6.95,6.95-6.95h4.43v4.76h-4.43c-1.19,0-2.19.95-2.19,2.19v35c0,1.19.95,2.19,2.19,2.19h4.43v4.71Z"/>
      <path d="M169.13,53.76h-4.43v-4.76h4.43c1.19,0,2.19-.95,2.19-2.19V11.86c0-1.19-.95-2.19-2.19-2.19h-39.71v-4.76h39.71c3.81,0,6.95,3.09,6.95,6.95v35c0,3.81-3.09,6.9-6.95,6.9Z"/>
    </g>
  </g>
</svg>