<?xml version="1.0" encoding="UTF-8"?>
<svg id="Layer_2" data-name="Layer 2" xmlns="http://www.w3.org/2000/svg" viewBox="0 0 216.99 46.51">
  <g id="Layer_1-2" data-name="Layer 1">
    <g>
      <g>
        <g>
          <path d="M73.74,21.78l3.48-16.28h2.7s-3.48,16.28-3.48,16.28h-2.7Z"/>
          <path d="M79.73,21.78l.47-2.11,11.24-11.98h-8.45s.47-2.2.47-2.2h12.07s-.45,2.04-.45,2.04l-11.34,12.05h8.88s-.47,2.2-.47,2.2h-12.42Z"/>
          <path d="M102.4,21.97c-1.61,0-2.87-.1-3.79-.31s-1.56-.57-1.94-1.09c-.38-.52-.57-1.26-.57-2.22,0-.58.07-1.27.2-2.05.13-.78.31-1.69.53-2.73.28-1.39.55-2.57.8-3.54.25-.97.55-1.77.9-2.39.35-.62.8-1.1,1.35-1.44.55-.34,1.26-.57,2.12-.7.86-.13,1.94-.19,3.23-.19,1.61,0,2.87.1,3.77.31.91.2,1.55.57,1.93,1.1.38.53.57,1.28.57,2.26,0,.58-.06,1.26-.18,2.02-.12.77-.29,1.67-.51,2.71-.3,1.39-.58,2.57-.85,3.54-.27.97-.58,1.76-.92,2.38s-.79,1.09-1.34,1.43c-.54.34-1.24.58-2.09.71-.85.13-1.93.2-3.22.2ZM102.52,19.76c.8,0,1.47-.02,2-.07.53-.05.97-.17,1.31-.36s.64-.5.88-.93c.24-.43.46-1.04.67-1.81.21-.77.45-1.76.7-2.96.24-.99.41-1.84.51-2.54.1-.7.15-1.28.15-1.74,0-.6-.12-1.03-.36-1.29-.24-.26-.62-.42-1.15-.47-.53-.05-1.23-.08-2.12-.08-.8,0-1.48.02-2.01.07-.54.05-.98.17-1.34.36s-.65.5-.89.93c-.24.43-.46,1.04-.66,1.81-.21.77-.43,1.76-.69,2.96-.14.66-.26,1.27-.37,1.81-.1.54-.19,1.02-.25,1.42-.06.4-.09.76-.09,1.08,0,.58.12,1.01.37,1.27.24.26.63.42,1.17.47.54.06,1.25.08,2.15.08Z"/>
          <path d="M114.38,21.78l.17-16.28h4.76s-.47,10.82-.47,10.82h.26s4.52-10.82,4.52-10.82h4.97s-.02,10.82-.02,10.82h.24s4-10.82,4-10.82h4.92s-6.79,16.28-6.79,16.28h-6.11s-.12-9.09-.12-9.09h-.21s-3.98,9.09-3.98,9.09h-6.13Z"/>
          <path d="M135.84,21.78l3.48-16.28h11.81s-.78,3.55-.78,3.55h-6.93s-.57,2.77-.57,2.77h5.8s-.73,3.48-.73,3.48h-5.82s-.62,2.93-.62,2.93h6.93s-.76,3.55-.76,3.55h-11.81Z"/>
          <path d="M150.06,21.78l3.48-16.28h4.88s-2.67,12.54-2.67,12.54h5.96s-.83,3.74-.83,3.74h-10.82Z"/>
          <path d="M162.61,21.78l3.48-16.28h5.82c1.69,0,3.01.11,3.96.33s1.63.59,2.02,1.1c.39.51.59,1.24.59,2.19,0,.57-.07,1.24-.2,2.02-.13.78-.29,1.68-.46,2.69-.28,1.31-.55,2.43-.8,3.36-.25.93-.55,1.7-.89,2.3-.34.6-.79,1.06-1.35,1.4-.56.33-1.29.56-2.18.7-.89.13-2.03.2-3.42.2h-6.58ZM168.26,18.23h1.02c.52,0,.95-.02,1.29-.06.34-.04.62-.13.85-.28.23-.15.42-.39.57-.71.15-.32.3-.77.44-1.34.14-.57.31-1.29.5-2.18.17-.85.31-1.55.41-2.11.1-.55.15-.99.15-1.33,0-.27-.04-.48-.12-.64-.08-.16-.21-.28-.39-.36-.18-.08-.41-.13-.7-.15-.28-.02-.64-.04-1.07-.04h-1.02s-1.94,9.18-1.94,9.18Z"/>
          <path d="M184.68,21.91c-.36,0-.75-.01-1.17-.03-.42-.02-.83-.05-1.22-.08-.39-.03-.75-.07-1.06-.1l.29-1.35c.28.02.54.05.79.07.25.02.49.04.73.06.24.02.48.03.71.03.23,0,.47,0,.72,0,.54,0,.95-.04,1.24-.11.29-.07.5-.19.63-.35.13-.16.24-.38.3-.65.04-.11.08-.22.1-.32.02-.1.03-.19.03-.27,0-.21-.07-.35-.22-.4-.15-.06-.38-.1-.71-.13l-2.26-.29c-.55-.08-.93-.24-1.15-.47-.21-.24-.32-.56-.32-.98,0-.1.01-.25.03-.45.02-.2.06-.4.1-.6.12-.56.29-1.01.51-1.33.22-.33.49-.57.8-.72.31-.16.69-.26,1.11-.31.43-.05.91-.08,1.45-.08.35,0,.71.01,1.08.03.37.02.73.05,1.08.08.35.03.64.07.88.12l-.27,1.35c-.31-.04-.62-.08-.92-.1-.3-.02-.59-.04-.88-.06-.29-.02-.58-.03-.86-.03-.38,0-.72.01-1.01.04-.29.03-.54.1-.74.23-.2.12-.35.33-.45.61-.05.1-.08.21-.12.33-.03.12-.05.25-.05.4,0,.2.07.34.2.4s.37.12.71.15l2.22.29c.34.03.62.1.84.19s.4.23.51.42c.12.19.18.46.18.81,0,.11-.01.27-.03.46-.02.2-.06.41-.12.63-.12.55-.28.99-.48,1.33-.2.34-.44.59-.74.76-.3.17-.65.28-1.05.34-.4.06-.88.08-1.42.08Z"/>
          <path d="M189.96,21.78l.4-1.89h1.99s-.39,1.89-.39,1.89h-2Z"/>
          <path d="M194.35,21.78l1.82-8.59h1.65s-.29,1.63-.29,1.63h.1c.26-.48.54-.85.86-1.1.31-.25.67-.43,1.08-.52.4-.1.86-.14,1.36-.14l-.37,1.7c-.61,0-1.12.07-1.54.22-.42.15-.76.37-1.03.66-.26.29-.48.66-.66,1.1-.17.44-.32.94-.45,1.52l-.77,3.54h-1.77Z"/>
          <path d="M200.72,21.78l.4-1.89h1.99s-.39,1.89-.39,1.89h-2Z"/>
          <path d="M208.77,21.91c-.94,0-1.68-.06-2.22-.18-.53-.12-.91-.33-1.12-.63-.21-.3-.32-.71-.32-1.23,0-.3.03-.65.1-1.04s.15-.84.25-1.36c.15-.72.29-1.33.42-1.84.13-.51.3-.93.49-1.26.19-.34.44-.6.75-.8.31-.2.7-.33,1.18-.41.48-.08,1.08-.12,1.79-.12.94,0,1.68.06,2.21.19.53.12.9.33,1.11.63.21.3.32.71.32,1.24,0,.3-.03.65-.08,1.04-.06.39-.14.83-.25,1.34-.16.72-.31,1.33-.45,1.84s-.3.93-.49,1.26c-.19.34-.43.6-.72.8-.3.2-.69.33-1.17.41-.48.08-1.08.12-1.8.12ZM208.81,20.48c.44,0,.8-.02,1.09-.06.29-.04.52-.12.69-.24.17-.12.32-.29.44-.51.12-.22.22-.51.31-.88.09-.37.19-.81.3-1.32.09-.46.16-.85.22-1.18.06-.33.08-.6.08-.83,0-.28-.06-.49-.17-.63-.11-.14-.3-.24-.57-.29-.27-.05-.64-.08-1.11-.08-.55,0-.98.03-1.3.1-.31.07-.56.2-.73.41-.17.21-.31.51-.42.9-.11.39-.23.92-.38,1.58-.09.47-.17.87-.23,1.2-.06.33-.09.6-.09.83,0,.27.06.47.17.61.11.14.31.24.58.29.28.05.65.08,1.12.08Z"/>
          <path d="M214.6,21.78l.4-1.89h1.99s-.39,1.89-.39,1.89h-2Z"/>
        </g>
        <g>
          <path d="M96.42,32.52c-.11-.02-.26-.03-.46-.03-.23,0-.4.01-.53.04-.13.03-.23.09-.3.17-.07.09-.13.22-.18.4-.05.18-.1.41-.17.71-.04.22-.08.4-.11.55-.03.15-.04.27-.04.37,0,.12.02.2.07.26.05.06.13.1.24.12s.27.02.46.02.34,0,.46-.02.21-.05.29-.1c.07-.05.14-.12.19-.22.05-.1.1-.23.14-.39.04-.16.09-.36.14-.59.04-.21.07-.39.1-.54.03-.15.04-.27.04-.37,0-.12-.02-.21-.07-.27s-.13-.1-.24-.12Z"/>
          <path d="M107.9,32.52c-.11-.02-.26-.03-.46-.03-.23,0-.4.01-.53.04-.13.03-.23.09-.3.17-.07.09-.13.22-.18.4-.05.18-.1.41-.17.71-.04.22-.08.4-.11.55-.03.15-.04.27-.04.37,0,.12.02.2.07.26s.13.1.24.12.27.02.46.02.34,0,.46-.02c.12-.02.21-.05.29-.1.07-.05.14-.12.19-.22.05-.1.1-.23.14-.39.04-.16.09-.36.14-.59.04-.21.07-.39.1-.54.02-.15.04-.27.04-.37,0-.12-.02-.21-.07-.27-.05-.06-.13-.1-.24-.12Z"/>
          <path d="M114.45,32.55c-.19,0-.35.01-.47.04-.12.03-.22.08-.3.17-.08.09-.14.21-.2.38-.06.17-.12.4-.18.69-.03.19-.06.35-.08.48-.02.13-.03.25-.03.34,0,.13.02.23.07.3s.13.11.24.13c.11.02.25.03.43.03.15,0,.29-.02.39-.05.11-.03.2-.07.28-.13.08-.06.14-.13.18-.23.04-.06.08-.14.11-.25.04-.1.07-.22.1-.33.03-.12.06-.24.1-.37.03-.13.05-.25.07-.36.01-.12.02-.21.02-.29,0-.2-.05-.35-.16-.43-.1-.08-.29-.12-.57-.12Z"/>
          <path d="M87.65,32.55c-.2,0-.36.01-.48.04-.12.03-.22.08-.29.17-.07.09-.14.21-.2.38s-.12.4-.18.69c-.04.19-.07.35-.09.48-.02.13-.03.25-.03.34,0,.13.02.23.07.3s.13.11.24.13c.11.02.25.03.43.03.15,0,.29-.02.39-.05.11-.03.2-.07.28-.13.08-.06.14-.13.18-.23.03-.07.07-.15.11-.25.04-.1.07-.21.11-.33.03-.12.06-.25.1-.37.03-.12.05-.24.07-.36.01-.11.02-.21.02-.29,0-.2-.05-.35-.16-.43-.1-.08-.29-.12-.56-.12Z"/>
          <path d="M140.2,32.52c-.11-.02-.26-.03-.46-.03-.23,0-.4.01-.53.04-.13.03-.23.09-.3.17-.07.09-.13.22-.18.4-.05.18-.1.41-.17.71-.04.22-.08.4-.11.55-.03.15-.04.27-.04.37,0,.12.02.2.07.26s.13.1.24.12.27.02.46.02.34,0,.46-.02.21-.05.29-.1c.07-.05.14-.12.19-.22.05-.1.1-.23.14-.39.04-.16.09-.36.14-.59.04-.21.07-.39.1-.54.03-.15.04-.27.04-.37,0-.12-.02-.21-.07-.27-.05-.06-.13-.1-.24-.12Z"/>
          <path d="M183.37,32.54c-.09-.02-.22-.03-.37-.03-.19,0-.34.01-.45.04-.11.02-.2.07-.27.14-.07.07-.13.17-.17.3-.05.13-.09.3-.13.5h1.58l.03-.1c.02-.1.04-.19.05-.27,0-.07.01-.14.01-.2,0-.12-.02-.2-.06-.26-.04-.06-.11-.1-.2-.12Z"/>
          <path d="M133.14,32.57c-.11-.02-.25-.03-.43-.03-.15,0-.28.01-.39.04-.11.03-.2.07-.28.13-.08.06-.14.14-.18.23-.04.07-.08.15-.11.25-.04.1-.07.21-.11.33-.04.12-.07.25-.09.38-.03.13-.05.25-.06.36s-.03.21-.03.29c0,.2.05.35.16.43.1.08.29.12.56.12.2,0,.37-.01.49-.04.12-.02.22-.08.3-.17.08-.09.14-.21.19-.38.05-.17.11-.4.18-.69.04-.19.07-.35.09-.48.02-.13.03-.25.03-.34,0-.14-.02-.24-.07-.31-.05-.07-.13-.11-.24-.13Z"/>
          <path d="M126.01,32.54c-.09-.02-.22-.03-.37-.03-.19,0-.34.01-.45.04-.11.02-.2.07-.27.14-.07.07-.13.17-.17.3s-.09.3-.13.5h1.58l.03-.1c.02-.1.04-.19.05-.27,0-.07.01-.14.01-.2,0-.12-.02-.2-.06-.26-.04-.06-.11-.1-.2-.12Z"/>
          <path d="M197.75,27.16h-123.83c-.91,0-1.81.73-2.01,1.63l-2.05,9.53c-.19.9.39,1.63,1.3,1.63h123.84c.91,0,1.81-.73,2-1.63l2.06-9.53c.19-.9-.4-1.63-1.31-1.63ZM153.04,31.07l1.06-1.15h1.14v.04s-1.39,1.15-1.39,1.15h-.82v-.04ZM113.9,31.07l1.06-1.15h1.14v.04s-1.39,1.15-1.39,1.15h-.82v-.04ZM99.54,29.78h1.13l-.2.95h-1.13l.2-.95ZM79.49,33c-.03.15-.05.3-.09.46l-.53,2.47h-1.09l.49-2.28c.02-.14.04-.27.07-.39.02-.12.03-.22.03-.29,0-.18-.05-.3-.15-.35-.11-.04-.27-.07-.5-.07-.21,0-.38.03-.5.08-.13.05-.24.12-.31.22-.08.09-.14.22-.18.38-.05.16-.1.33-.14.53l-.47,2.17h-1.09l1.3-6.15h1.1l-.53,2.43h.06c.1-.12.2-.23.33-.31.12-.09.26-.15.43-.19s.36-.07.57-.07c.32,0,.57.04.75.11.17.07.3.17.37.32.07.15.11.34.11.57,0,.1-.01.22-.03.36ZM83.92,35.53c-.08.37-.17.69-.27.96-.11.27-.24.48-.41.65-.17.17-.39.29-.67.37-.28.08-.64.12-1.08.12-.17,0-.34,0-.52-.01-.18,0-.35-.02-.51-.03-.16-.02-.3-.03-.41-.05l.17-.82c.2.01.36.01.5.02.14,0,.27,0,.38,0h.3c.27,0,.49-.02.66-.04.16-.03.29-.08.38-.16.09-.08.16-.19.21-.33s.1-.32.15-.55c.01-.05.02-.09.03-.14s.02-.1.02-.15h-.06c-.09.14-.21.24-.33.32s-.27.14-.44.18c-.17.05-.36.07-.58.07-.28,0-.5-.04-.66-.1-.16-.07-.27-.17-.34-.29-.07-.13-.1-.29-.1-.48,0-.11.01-.23.03-.35.02-.13.04-.26.08-.41l.55-2.61h1.09l-.47,2.19c-.04.17-.07.32-.09.44s-.03.22-.03.3c0,.11.03.19.07.25.04.05.11.09.2.1.09,0,.21,0,.36,0,.18,0,.33-.02.44-.06.12-.04.21-.11.29-.2.07-.09.13-.21.18-.35.05-.15.1-.33.14-.54l.46-2.14h1.09l-.81,3.82ZM87.87,35.93l.1-.55h-.06c-.11.18-.23.31-.38.4-.14.09-.3.15-.45.17-.16.03-.32.05-.49.05-.31,0-.56-.04-.75-.1-.19-.07-.34-.19-.43-.36-.09-.16-.14-.4-.14-.69,0-.14.01-.29.04-.47.02-.18.06-.38.1-.6.09-.42.18-.77.29-1.04.1-.27.22-.49.36-.65.13-.17.3-.28.49-.35.19-.06.42-.1.69-.1.21,0,.4.02.58.05.17.03.32.08.45.16.13.08.22.2.27.36h.07l.51-2.43h1.1l-1.31,6.15h-1.04ZM92.63,32.76c-.2.06-.36.16-.49.29-.13.13-.24.3-.32.51-.08.21-.15.46-.21.75l-.36,1.62h-1.09l.9-4.22h1.03l-.15.78h.07c.12-.23.26-.41.41-.53.15-.12.32-.2.52-.25.19-.04.41-.07.66-.07l-.22,1.03c-.3,0-.55.03-.75.09ZM97.81,33.17c-.03.19-.07.41-.12.65-.08.35-.15.65-.22.9s-.15.46-.24.62c-.09.17-.22.3-.37.39-.15.1-.34.17-.58.21-.24.04-.55.06-.91.06-.48,0-.85-.03-1.12-.1-.27-.06-.46-.16-.57-.31-.11-.15-.16-.36-.16-.62,0-.14.01-.3.05-.49.03-.19.07-.41.12-.66.08-.35.15-.65.21-.9s.14-.46.24-.62c.1-.17.22-.3.37-.4.16-.09.35-.16.59-.2.24-.04.54-.06.9-.06.48,0,.85.03,1.12.1.27.06.45.16.56.31.11.16.16.36.16.63,0,.14-.01.3-.03.49ZM99.36,35.93h-1.11l.89-4.22h1.11l-.89,4.22ZM104.66,32.51l-2.69,2.57h2.15l-.18.85h-3.63l.16-.8,2.69-2.57h-2.02l.17-.85h3.52l-.17.8ZM109.28,33.17c-.02.19-.06.41-.12.65-.08.35-.15.65-.22.9-.07.25-.15.46-.24.62-.09.17-.21.3-.36.39-.15.1-.35.17-.59.21-.24.04-.54.06-.91.06-.48,0-.85-.03-1.12-.1-.26-.06-.45-.16-.56-.31s-.17-.36-.17-.62c0-.14.02-.3.05-.49.03-.19.07-.41.12-.66.08-.35.15-.65.22-.9.06-.25.14-.46.24-.62.09-.17.22-.3.37-.4.15-.09.35-.16.59-.2.24-.04.53-.06.89-.06.48,0,.86.03,1.12.1.27.06.46.16.57.31.1.16.16.36.16.63,0,.14,0,.3-.04.49ZM109.72,35.93l1.3-6.15h1.11l-1.3,6.15h-1.11ZM115.72,35.93h-1.03l.1-.55h-.07c-.11.18-.24.31-.38.4-.14.09-.3.15-.46.17-.16.03-.32.05-.48.05-.31,0-.56-.04-.75-.1-.19-.07-.33-.19-.43-.36-.09-.16-.14-.4-.14-.69,0-.14.01-.29.04-.47.02-.18.06-.38.1-.6.09-.42.18-.77.29-1.04.1-.27.22-.49.36-.65.13-.17.3-.28.49-.35.2-.06.42-.1.68-.1.22,0,.41.02.59.05.18.03.33.08.45.16.12.08.22.2.28.36h.05l.17-.5h1.03l-.89,4.22ZM120.49,32.57c-.11-.02-.26-.04-.44-.05-.18-.02-.35-.02-.51-.02-.22,0-.4.01-.54.05-.15.03-.26.09-.35.19-.1.09-.17.22-.23.4-.06.17-.12.4-.18.68-.03.18-.06.33-.08.46-.03.14-.04.25-.04.34,0,.15.03.26.08.33.06.08.15.13.28.16.13.02.3.03.51.03.14,0,.31,0,.5-.02.19,0,.36-.03.51-.05l-.17.79c-.16.04-.35.07-.56.1-.22.02-.42.04-.63.04-.42,0-.76-.05-1-.13-.24-.09-.41-.22-.5-.39-.1-.17-.15-.37-.15-.62,0-.1.01-.25.04-.46.03-.21.06-.44.11-.69.08-.33.16-.63.25-.89.08-.25.2-.47.35-.65.14-.17.34-.31.58-.39.25-.09.57-.14.96-.14.25,0,.49.02.74.04.25.02.47.05.66.09l-.19.8ZM121.93,35.93h-1.1l.89-4.22h1.11l-.9,4.22ZM123.05,30.73h-1.13l.2-.95h1.13l-.2.95ZM127.33,32.96c-.02.13-.04.27-.07.41-.03.15-.06.3-.1.46l-.06.32h-2.63c-.03.11-.05.21-.06.3-.02.09-.03.18-.03.25,0,.11.03.2.09.27.06.06.17.1.33.12.15.02.37.03.65.03.12,0,.26,0,.41,0,.14,0,.3-.01.46-.02.16-.02.3-.03.44-.05l-.18.82c-.12.03-.28.05-.45.07-.18.02-.36.04-.55.05s-.37.02-.54.02c-.46,0-.81-.04-1.06-.11-.26-.07-.44-.19-.54-.34-.11-.15-.17-.35-.17-.59,0-.15.02-.32.05-.51.03-.19.07-.4.11-.62.09-.38.18-.7.28-.98.09-.27.22-.5.39-.68.16-.19.38-.32.65-.4.27-.08.63-.13,1.06-.13s.72.04.94.11c.22.07.37.17.47.32.09.14.13.32.13.54,0,.11-.01.22-.02.35ZM134.53,33.26c-.02.18-.05.38-.1.6-.09.42-.19.77-.29,1.04-.1.27-.22.49-.36.65-.14.17-.3.28-.5.35-.19.06-.42.1-.68.1-.21,0-.41-.02-.58-.05-.18-.03-.33-.09-.46-.17-.12-.08-.22-.19-.27-.35h-.07l-.44,2.15h-1.1l1.24-5.87h1.03l-.09.55h.07c.1-.18.23-.32.37-.4.15-.09.3-.15.47-.17.16-.03.32-.05.47-.05.32,0,.57.04.76.1.19.07.33.19.43.36.09.16.14.4.14.69,0,.14,0,.29-.04.47ZM135,35.93l1.3-6.15h1.11l-1.3,6.15h-1.11ZM141.58,33.17c-.03.19-.07.41-.12.65-.08.35-.15.65-.22.9s-.15.46-.24.62c-.09.17-.21.3-.37.39-.15.1-.34.17-.58.21-.24.04-.55.06-.91.06-.48,0-.85-.03-1.12-.1-.27-.06-.46-.16-.57-.31-.11-.15-.16-.36-.16-.62,0-.14.01-.3.05-.49.03-.19.07-.41.12-.66.08-.35.15-.65.21-.9.07-.25.15-.46.24-.62.1-.17.22-.3.37-.4.16-.09.35-.16.59-.2.24-.04.54-.06.9-.06.48,0,.85.03,1.12.1.27.06.46.16.56.31.11.16.16.36.16.63,0,.14-.01.3-.03.49ZM145.64,32.57c-.12-.02-.27-.04-.45-.05-.18-.02-.35-.02-.51-.02-.22,0-.4.01-.54.05-.15.03-.26.09-.35.19-.09.09-.17.22-.23.4-.06.17-.11.4-.18.68-.03.18-.06.33-.08.46-.03.14-.04.25-.04.34,0,.15.03.26.08.33.06.08.15.13.28.16.13.02.3.03.51.03.14,0,.31,0,.5-.02.19,0,.36-.03.51-.05l-.17.79c-.16.04-.35.07-.56.1-.22.02-.42.04-.63.04-.42,0-.75-.05-1-.13-.23-.09-.4-.22-.5-.39-.1-.17-.15-.37-.15-.62,0-.1.01-.25.04-.46.03-.21.06-.44.11-.69.08-.33.16-.63.25-.89.08-.25.2-.47.35-.65.14-.17.34-.31.58-.39.25-.09.57-.14.96-.14.25,0,.5.02.74.04.25.02.47.05.66.09l-.18.8ZM150.42,33c-.02.15-.04.3-.08.46l-.53,2.47h-1.09l.49-2.28c.02-.14.04-.27.06-.39.03-.12.04-.22.04-.29,0-.18-.05-.3-.15-.35-.11-.04-.27-.07-.51-.07-.2,0-.37.03-.5.08s-.23.12-.3.22c-.08.09-.14.22-.18.38-.05.16-.1.33-.14.53l-.47,2.17h-1.09l1.29-6.15h1.11l-.53,2.43h.06c.1-.12.2-.23.32-.31.13-.09.27-.15.44-.19s.36-.07.57-.07c.32,0,.56.04.74.11s.31.17.38.32c.07.15.11.34.11.57,0,.1-.01.22-.04.36ZM154.86,35.53c-.08.37-.17.69-.27.96-.11.27-.25.48-.41.65-.17.17-.39.29-.67.37-.28.08-.64.12-1.08.12-.17,0-.34,0-.52-.01-.18,0-.35-.02-.51-.03-.17-.02-.3-.03-.41-.05l.17-.82c.19.01.36.01.5.02.14,0,.27,0,.38,0h.3c.27,0,.49-.02.66-.04.16-.03.29-.08.38-.16.09-.08.16-.19.21-.33s.1-.32.15-.55c.01-.05.02-.09.03-.14s.02-.1.02-.15h-.06c-.1.14-.21.24-.33.32-.13.08-.27.14-.44.18-.17.05-.36.07-.58.07-.28,0-.5-.04-.66-.1-.16-.07-.27-.17-.34-.29-.07-.13-.1-.29-.1-.48,0-.11.01-.23.03-.35.02-.13.04-.26.07-.41l.56-2.61h1.09l-.47,2.19c-.04.17-.07.32-.09.44s-.03.22-.03.3c0,.11.03.19.07.25.04.05.11.09.2.1.09,0,.21,0,.35,0,.19,0,.33-.02.45-.06.12-.04.21-.11.29-.2.07-.09.13-.21.18-.35.05-.15.1-.33.13-.54l.47-2.14h1.09l-.81,3.82ZM159.72,32.57c-.12-.02-.27-.04-.45-.05-.18-.02-.35-.02-.51-.02-.22,0-.4.01-.54.05-.15.03-.26.09-.35.19-.09.09-.17.22-.23.4-.05.17-.11.4-.17.68-.04.18-.07.33-.09.46-.03.14-.04.25-.04.34,0,.15.03.26.08.33.06.08.15.13.28.16.13.02.3.03.51.03.14,0,.31,0,.5-.02.19,0,.36-.03.51-.05l-.17.79c-.16.04-.35.07-.56.1-.22.02-.42.04-.63.04-.42,0-.75-.05-.99-.13-.24-.09-.41-.22-.51-.39-.1-.17-.15-.37-.15-.62,0-.1.01-.25.04-.46.03-.21.07-.44.11-.69.08-.33.16-.63.25-.89.08-.25.2-.47.35-.65.14-.17.34-.31.58-.39.25-.09.57-.14.96-.14.25,0,.5.02.74.04.25.02.47.05.66.09l-.18.8ZM164.51,33c-.03.15-.05.3-.09.46l-.53,2.47h-1.09l.49-2.28c.02-.14.04-.27.07-.39.02-.12.03-.22.03-.29,0-.18-.05-.3-.15-.35-.11-.04-.27-.07-.51-.07-.2,0-.37.03-.5.08s-.23.12-.3.22c-.08.09-.14.22-.18.38-.05.16-.1.33-.14.53l-.47,2.17h-1.09l1.3-6.15h1.1l-.53,2.43h.06c.1-.12.2-.23.32-.31.13-.09.27-.15.44-.19.17-.04.36-.07.57-.07.32,0,.57.04.74.11.18.07.31.17.38.32.07.15.11.34.11.57,0,.1-.01.22-.03.36ZM170.97,32.55c-.14-.02-.29-.03-.44-.04-.14-.01-.29-.02-.43-.03-.14,0-.27-.01-.4-.01-.16,0-.31.01-.45.01-.13.01-.24.04-.33.08-.08.04-.15.11-.2.22-.02.03-.05.07-.06.13-.02.06-.03.12-.03.19,0,.08.03.14.09.16.07.03.18.05.34.06l1.04.15c.15.02.28.05.4.1.11.04.19.11.25.21.06.09.08.23.08.4,0,.06,0,.13-.01.23,0,.09-.03.2-.06.31-.06.29-.14.52-.24.69-.11.17-.23.3-.38.38-.16.08-.33.14-.53.16-.21.03-.44.05-.71.05-.18,0-.38,0-.6-.02-.21-.01-.42-.03-.62-.04-.2-.02-.38-.04-.53-.05l.17-.8c.13.02.25.02.37.03.11.01.23.02.35.03.11.01.23.01.34.01.11.01.22.01.34.01.23,0,.41-.01.54-.04.13-.02.23-.07.3-.13.06-.06.11-.14.14-.25.03-.04.05-.08.06-.12.01-.04.02-.09.02-.13,0-.08-.04-.14-.1-.16-.07-.03-.19-.05-.35-.06l-1.07-.15c-.25-.03-.43-.11-.53-.23-.1-.12-.16-.28-.16-.48,0-.06.01-.14.03-.24.01-.1.03-.21.05-.31.07-.28.15-.5.26-.67.11-.16.24-.28.4-.36.16-.08.35-.13.56-.16.22-.02.46-.04.73-.04.18,0,.37.01.56.02s.37.03.55.04c.17.02.31.04.43.06l-.17.79ZM174.61,32.56h-.99l-.37,1.78s-.01.08-.03.14c-.01.07-.02.14-.03.21-.02.07-.02.12-.02.15,0,.08.03.15.08.19.06.05.16.08.3.1.14.02.33.03.58.03l-.17.77c-.35,0-.64,0-.88-.02-.25-.01-.45-.05-.6-.1-.16-.05-.28-.13-.35-.24-.08-.11-.11-.26-.11-.45,0-.06,0-.13.01-.2s.03-.15.04-.24c.01-.08.03-.17.05-.26l.4-1.86h-.83l.19-.85h.82l.25-1.22h1.12l-.26,1.22h.97l-.17.85ZM177.32,32.76c-.2.06-.36.16-.49.29-.13.13-.24.3-.32.51-.08.21-.16.46-.22.75l-.35,1.62h-1.09l.9-4.22h1.02l-.14.78h.07c.12-.23.26-.41.41-.53.15-.12.32-.2.52-.25.19-.04.41-.07.66-.07l-.23,1.03c-.29,0-.54.03-.74.09ZM179.3,35.93h-1.11l.89-4.22h1.11l-.89,4.22ZM180.41,30.73h-1.13l.2-.95h1.13l-.2.95ZM184.69,32.96c-.02.13-.04.27-.07.41-.02.15-.06.3-.09.46l-.07.32h-2.63c-.02.11-.04.21-.06.3-.02.09-.02.18-.02.25,0,.11.03.2.09.27.06.06.16.1.32.12.15.02.37.03.65.03.12,0,.26,0,.41,0,.15,0,.3-.01.46-.02.16-.02.31-.03.44-.05l-.17.82c-.13.03-.28.05-.46.07-.18.02-.36.04-.54.05-.19.01-.37.02-.55.02-.45,0-.81-.04-1.06-.11s-.43-.19-.54-.34c-.11-.15-.16-.35-.16-.59,0-.15.01-.32.04-.51.03-.19.07-.4.11-.62.09-.38.19-.7.28-.98.1-.27.23-.5.39-.68.16-.19.38-.32.65-.4.28-.08.63-.13,1.07-.13.4,0,.71.04.93.11.22.07.38.17.47.32.09.14.14.32.14.54,0,.11-.01.22-.03.35ZM188.88,32.57c-.12-.02-.27-.04-.45-.05-.17-.02-.34-.02-.5-.02-.22,0-.41.01-.55.05-.14.03-.26.09-.35.19-.09.09-.17.22-.22.4-.06.17-.12.4-.18.68-.04.18-.07.33-.09.46-.02.14-.04.25-.04.34,0,.15.03.26.09.33.05.08.14.13.27.16.13.02.3.03.51.03.14,0,.31,0,.5-.02.19,0,.36-.03.51-.05l-.16.79c-.17.04-.36.07-.57.1-.21.02-.42.04-.63.04-.42,0-.75-.05-.99-.13-.24-.09-.41-.22-.51-.39-.1-.17-.15-.37-.15-.62,0-.1,0-.25.04-.46s.07-.44.12-.69c.07-.33.15-.63.24-.89.09-.25.2-.47.35-.65.14-.17.34-.31.59-.39.24-.09.56-.14.95-.14.25,0,.5.02.75.04.24.02.46.05.65.09l-.18.8ZM193.67,33c-.03.15-.05.3-.09.46l-.52,2.47h-1.1l.49-2.28c.02-.14.04-.27.07-.39.02-.12.03-.22.03-.29,0-.18-.05-.3-.15-.35-.1-.04-.27-.07-.5-.07-.21,0-.37.03-.5.08s-.24.12-.31.22c-.07.09-.14.22-.18.38-.05.16-.09.33-.14.53l-.47,2.17h-1.09l1.3-6.15h1.1l-.52,2.43h.05c.1-.12.21-.23.33-.31.12-.09.26-.15.43-.19s.36-.07.57-.07c.32,0,.57.04.75.11s.3.17.37.32c.07.15.11.34.11.57,0,.1,0,.22-.03.36Z"/>
        </g>
      </g>
      <g>
        <path d="M54.49,29.06c-.17,0-.34-.04-.5-.12l-1.83-.95c-.54-.28-.75-.94-.47-1.48.28-.54.94-.75,1.48-.47l1.83.95c.54.28.75.94.47,1.48-.19.38-.58.59-.98.59Z"/>
        <path d="M29.64,46.51c-.87,0-1.72-.14-2.45-.4-.57-.21-.86-.84-.66-1.41s.84-.86,1.41-.66c.9.33,2.22.35,3.18.07.58-.17,1.19.16,1.37.74.17.58-.16,1.19-.74,1.37-.65.19-1.38.3-2.12.3ZM34.96,44.53c-.4,0-.78-.22-.98-.59-.28-.54-.07-1.2.47-1.48l3.49-1.81c.54-.28,1.2-.07,1.48.47.28.54.07,1.2-.47,1.48l-3.49,1.81c-.16.08-.33.12-.5.12ZM24.06,44.4c-.17,0-.34-.04-.5-.12l-3.49-1.81c-.54-.28-.75-.94-.47-1.48.28-.54.94-.75,1.48-.47l3.49,1.81c.54.28.75.94.47,1.48-.2.38-.58.59-.98.59ZM41.94,40.91c-.4,0-.78-.22-.98-.59-.28-.54-.07-1.2.47-1.48l3.49-1.81c.54-.28,1.2-.07,1.48.47.28.54.07,1.2-.47,1.48l-3.49,1.81c-.16.08-.33.12-.5.12ZM17.08,40.79c-.17,0-.34-.04-.5-.12l-3.49-1.81c-.54-.28-.75-.94-.47-1.48.28-.54.94-.75,1.48-.47l3.49,1.81c.54.28.75.94.47,1.48-.2.38-.58.59-.98.59ZM48.93,37.3c-.4,0-.78-.22-.98-.59-.28-.54-.07-1.2.47-1.48l3.49-1.81c.54-.28,1.2-.07,1.48.47.28.54.07,1.2-.47,1.48l-3.49,1.81c-.16.08-.33.12-.5.12ZM10.09,37.17c-.17,0-.34-.04-.5-.12l-3.49-1.81c-.54-.28-.75-.94-.47-1.48.28-.54.94-.75,1.48-.47l3.49,1.81c.54.28.75.94.47,1.48-.2.38-.58.59-.98.59ZM55.91,33.68c-.4,0-.78-.22-.98-.59-.28-.54-.07-1.2.47-1.48l1.21-.63c.28-.15.41-.28.45-.34,0,0-.01-.02-.03-.03-.38-.47-.31-1.16.16-1.54.47-.38,1.16-.31,1.54.16.35.43.53.92.53,1.42,0,.92-.6,1.75-1.65,2.29l-1.21.62c-.16.08-.33.12-.5.12ZM57.08,30.67h0s0,0,0,0ZM3.11,33.56c-.17,0-.34-.04-.5-.12l-.96-.5C.6,32.39,0,31.56,0,30.64c0-.64.3-1.26.84-1.75.45-.41,1.15-.37,1.55.08.41.45.37,1.14-.08,1.55-.05.05-.09.09-.1.11.04.06.17.2.45.34l.96.5c.54.28.75.94.47,1.48-.2.38-.58.59-.98.59Z"/>
        <path d="M5.03,28.93c-.4,0-.78-.22-.98-.59-.28-.54-.07-1.2.47-1.48l1.83-.95c.54-.28,1.2-.07,1.48.47s.07,1.2-.47,1.48l-1.83.95c-.16.08-.33.12-.5.12Z"/>
      </g>
      <path d="M29.89,39.12c-1.1,0-2.19-.22-3.05-.66L1.9,25.55c-1.05-.54-1.65-1.38-1.65-2.29,0-.92.6-1.75,1.65-2.29l5.05-2.61,20.82,10.78c1.09.56,2.99.56,4.08,0l20.9-10.82,5.13,2.66c1.05.54,1.65,1.38,1.65,2.29,0,.92-.6,1.75-1.65,2.29h0s-24.94,12.91-24.94,12.91c-.85.44-1.95.66-3.05.66ZM2.46,23.25c.04.06.17.2.45.34l24.94,12.91c1.09.56,2.99.56,4.08,0l24.94-12.91c.28-.15.41-.28.45-.34-.04-.06-.17-.2-.45-.34l-4.12-2.13-19.89,10.3c-1.71.89-4.39.89-6.1,0L6.95,20.82l-4.04,2.09c-.28.15-.41.28-.45.34Z"/>
      <path d="M29.81,31.74c-1.1,0-2.19-.22-3.05-.66L1.82,18.16c-1.05-.54-1.65-1.38-1.65-2.29,0-.92.6-1.75,1.65-2.29L26.76.66c1.71-.89,4.39-.89,6.1,0l24.94,12.91c1.05.54,1.65,1.38,1.65,2.29,0,.92-.6,1.75-1.65,2.29h0s-24.94,12.91-24.94,12.91c-.85.44-1.95.66-3.05.66ZM2.38,15.87c.04.06.17.2.45.34l24.94,12.91c1.09.56,2.99.56,4.08,0l24.94-12.91c.28-.15.41-.28.45-.34-.04-.06-.17-.2-.45-.34L31.85,2.61c-1.09-.56-2.99-.56-4.08,0L2.83,15.52c-.28.15-.41.28-.45.34Z"/>
    </g>
  </g>
</svg>