<?xml version="1.0" encoding="UTF-8"?>
<svg id="Layer_2" data-name="Layer 2" xmlns="http://www.w3.org/2000/svg" viewBox="0 0 163.57 151.59">
  <defs>
    <style>
      .cls-1 {
        fill-rule: evenodd;
      }
    </style>
  </defs>
  <g id="Layer_1-2" data-name="Layer 1">
    <g>
      <g>
        <path class="cls-1" d="M8.99,129.07l-2.26-1.09c-2.3-1.09-3.45-2.54-3.45-4.33,0-.45.08-.9.25-1.35.17-.45.39-.84.68-1.17.69-.81,1.64-1.22,2.84-1.22.82,0,1.55.2,2.18.6.63.4,1.21,1.02,1.73,1.86.29.46.54.96.75,1.5.21.54.46,1.32.75,2.34h.37l-.11-6.38h-.37c-.13.55-.38.82-.76.82-.15,0-.32-.03-.51-.09-.19-.06-.56-.2-1.09-.41-.72-.3-1.29-.5-1.72-.6-.43-.1-.89-.15-1.4-.15-1.55,0-2.9.52-4.03,1.57-.64.59-1.14,1.3-1.5,2.12-.36.82-.54,1.68-.54,2.57,0,1.45.46,2.67,1.38,3.68.33.36.77.72,1.31,1.08.54.35,1.32.79,2.34,1.3,1.16.59,2.02,1.08,2.58,1.46.56.39,1,.79,1.31,1.21.3.41.54.89.71,1.46.18.57.27,1.12.27,1.67,0,1.26-.4,2.31-1.21,3.13-.8.82-1.82,1.24-3.05,1.24-1.77,0-3.24-.9-4.4-2.69-.62-.97-1.16-2.3-1.61-3.99l-.37-.02-.05,6.64h.37c.19-.51.55-.77,1.06-.77.16,0,.31.02.43.06.13.04.52.21,1.19.5,1.27.55,2.6.82,3.98.82,1.51,0,2.82-.34,3.94-1.02,1.11-.68,1.95-1.64,2.51-2.89.4-.9.59-1.84.59-2.82,0-1.48-.44-2.78-1.32-3.89-.77-1-2.03-1.91-3.77-2.73Z"/>
        <path class="cls-1" d="M33.47,120.89c1.18.33,2.08.88,2.69,1.65.62.77,1.07,1.89,1.36,3.38l.37-.03-.29-5.93H15.86l-.29,5.93.37.03c.26-1.29.63-2.3,1.11-3.05.52-.81,1.19-1.39,2-1.72.81-.33,2.04-.54,3.69-.63.77-.04,1.49-.06,2.17-.06v16.39c0,1.1-.06,1.92-.18,2.44-.12.52-.35.96-.68,1.3-.3.31-.64.54-1.02.67-.38.14-.88.23-1.5.26v.37h10.27v-.37c-.61-.03-1.11-.12-1.49-.26-.38-.14-.72-.36-1.02-.67-.33-.34-.56-.78-.68-1.31-.12-.53-.18-1.34-.18-2.43v-16.39c2.38,0,4.07.14,5.06.43Z"/>
        <path class="cls-1" d="M58.81,140.81c-.36-.28-.7-.69-1.01-1.24-.31-.55-.73-1.46-1.25-2.73l-6.99-16.89h-.92l-5.88,15.15c-.54,1.38-.97,2.42-1.29,3.11-.33.69-.66,1.26-1,1.7-.41.55-.82.94-1.25,1.19-.43.25-.93.39-1.49.42v.37h7.2v-.37c-.65-.05-1.19-.22-1.61-.51-.3-.21-.54-.49-.71-.84-.18-.34-.27-.71-.27-1.11,0-.67.24-1.6.72-2.78l.4-1,.84-2.22h7.07l1.54,3.79.27.67c.3.74.45,1.33.45,1.77,0,.74-.33,1.32-1,1.74-.38.24-1.04.4-1.99.48v.37h10.56v-.37c-.66-.07-1.16-.16-1.49-.27-.33-.1-.63-.25-.88-.44ZM44.54,132.41l3.18-8.32,3.37,8.32h-6.56Z"/>
        <path class="cls-1" d="M64.82,139.28c-.12.53-.35.97-.68,1.31-.59.61-1.42.92-2.51.92v.39h19.18l.21-6.59-.39-.03c-.2,1-.43,1.8-.67,2.41-.24.61-.55,1.16-.92,1.64-.56.71-1.27,1.23-2.15,1.57-.87.34-1.95.51-3.22.51s-2.2-.18-2.94-.54c-.74-.36-1.3-.92-1.67-1.7-.21-.44-.36-1.01-.43-1.7-.08-.7-.11-1.76-.11-3.18v-9.27c0-1.12.06-1.95.19-2.49.13-.54.37-.98.74-1.33.29-.28.62-.48,1-.61.37-.13.86-.21,1.45-.24v-.37h-10.27v.37c.58.02,1.05.1,1.42.22.37.13.7.33,1,.61.36.34.61.78.75,1.33.13.54.2,1.38.2,2.51v11.84c0,1.09-.06,1.9-.18,2.43Z"/>
        <path class="cls-1" d="M100.71,135.27c-.2,1-.43,1.8-.67,2.41-.24.61-.55,1.16-.92,1.64-.56.71-1.27,1.23-2.14,1.57-.87.34-1.95.51-3.22.51s-2.2-.18-2.94-.54c-.74-.36-1.3-.92-1.67-1.7-.21-.44-.36-1.01-.43-1.7-.08-.7-.11-1.76-.11-3.18v-9.27c0-1.12.06-1.95.19-2.49.13-.54.37-.98.74-1.33.29-.28.62-.48,1-.61.37-.13.86-.21,1.45-.24v-.37h-10.27v.37c.58.02,1.05.1,1.42.22.37.13.7.33,1,.61.36.34.61.78.75,1.33.13.54.2,1.38.2,2.51v11.84c0,1.09-.06,1.9-.18,2.43-.12.53-.35.97-.68,1.31-.59.61-1.42.92-2.51.92v.39h19.18l.21-6.59-.39-.03Z"/>
        <path class="cls-1" d="M108.76,123.04c.1-.76.35-1.36.77-1.78.3-.31.64-.54,1.02-.67s.88-.23,1.49-.26v-.37h-10.27v.37c.61.03,1.11.12,1.49.26s.72.36,1.01.67c.34.34.57.78.69,1.3.12.53.18,1.34.18,2.44v11.84c0,1.1-.06,1.92-.18,2.44-.12.52-.35.96-.69,1.3-.29.3-.62.52-1,.67-.38.14-.88.23-1.5.27v.37h10.27v-.37c-.73-.04-1.31-.17-1.75-.38-.44-.21-.8-.53-1.08-.96-.19-.31-.33-.72-.42-1.24-.09-.51-.13-1.22-.13-2.1v-11.84c0-.74.03-1.39.1-1.96Z"/>
        <path class="cls-1" d="M135.09,138.32c.94-1.05,1.66-2.21,2.15-3.49.49-1.28.74-2.6.74-3.97,0-2.73-.94-5.17-2.83-7.32-1.16-1.32-2.51-2.34-4.05-3.06-1.54-.72-3.14-1.09-4.79-1.09-1.3,0-2.58.23-3.86.68-1.27.46-2.46,1.11-3.57,1.95-1.48,1.15-2.6,2.49-3.37,4.03-.77,1.54-1.16,3.21-1.16,5.01,0,1.37.24,2.69.71,3.96.48,1.27,1.16,2.4,2.05,3.4,1.12,1.28,2.46,2.26,4.02,2.96,1.55.7,3.18,1.05,4.88,1.05s3.38-.36,4.96-1.08c1.58-.72,2.95-1.73,4.11-3.04ZM131.56,139.17c-.77.97-1.58,1.66-2.43,2.09-.85.43-1.84.64-2.96.64s-2.1-.22-2.95-.65c-.85-.43-1.66-1.13-2.42-2.08-1.69-2.13-2.54-4.75-2.54-7.86,0-1.77.23-3.42.69-4.97.46-1.54,1.11-2.85,1.96-3.91.71-.89,1.48-1.53,2.31-1.93.83-.4,1.81-.6,2.95-.6s2.14.2,2.98.6c.84.4,1.6,1.04,2.29,1.92.85,1.07,1.5,2.38,1.97,3.92.47,1.54.7,3.17.7,4.9,0,3.14-.85,5.78-2.54,7.93Z"/>
        <path class="cls-1" d="M156.16,119.96v.37c.61.03,1.11.12,1.49.26.38.14.72.36,1.02.67.33.34.56.78.68,1.3.12.53.18,1.34.18,2.44v11.6l-13.05-16.65h-6.19v.37c.62.03,1.12.12,1.5.26.38.14.71.36,1,.67.33.34.56.78.68,1.31.12.53.18,1.34.18,2.42v11.86c0,1.09-.06,1.9-.18,2.43-.12.53-.35.97-.68,1.31-.3.31-.64.54-1.02.67-.38.14-.88.23-1.49.26v.37h7.41v-.37c-.61-.03-1.11-.12-1.49-.26-.38-.14-.72-.36-1.02-.67-.33-.34-.56-.78-.68-1.3s-.18-1.34-.18-2.44v-13.98l15.14,19.02h.72v-16.9c0-1.08.06-1.89.18-2.42.12-.53.35-.97.68-1.31.6-.62,1.44-.93,2.51-.93v-.37h-7.41Z"/>
        <g>
          <g>
            <path class="cls-1" d="M27.4,146.8c-.38-.32-.9-.48-1.57-.48h-1.95v5.22h.55v-1.65h1.4c.67,0,1.19-.16,1.57-.47.38-.32.57-.75.57-1.31s-.19-.99-.57-1.31ZM27,149.07c-.27.23-.67.34-1.19.34h-1.39v-2.61h1.39c.52,0,.91.11,1.19.34.27.23.41.55.41.97s-.14.73-.41.96Z"/>
            <path class="cls-1" d="M36.22,149.15c.21-.28.31-.63.31-1.03,0-.56-.19-.99-.57-1.31-.38-.32-.9-.48-1.57-.48h-1.95v5.22h.55v-1.66h1.4c.14,0,.28,0,.42-.02l1.19,1.68h.6l-1.28-1.79c.38-.12.68-.33.88-.61ZM34.38,149.42h-1.39v-2.62h1.39c.52,0,.91.11,1.19.34.27.23.41.55.41.97s-.14.73-.41.96c-.27.23-.67.34-1.19.34Z"/>
            <polygon class="cls-1" points="41.67 149.13 44.37 149.13 44.37 148.66 41.67 148.66 41.67 146.8 44.7 146.8 44.7 146.32 41.12 146.32 41.12 151.54 44.81 151.54 44.81 151.07 41.67 151.07 41.67 149.13"/>
            <polygon class="cls-1" points="52.11 150.19 49.84 146.32 49.39 146.32 49.39 151.54 49.92 151.54 49.92 147.39 51.97 150.88 52.23 150.88 54.28 147.37 54.28 151.54 54.81 151.54 54.81 146.32 54.36 146.32 52.11 150.19"/>
            <rect x="59.8" y="146.32" width=".55" height="5.22"/>
            <path class="cls-1" d="M69.04,149.29c0,.61-.14,1.06-.41,1.36-.27.3-.67.45-1.19.45s-.91-.15-1.19-.45c-.27-.3-.41-.75-.41-1.36v-2.97h-.55v2.99c0,.74.19,1.31.57,1.69.38.39.91.58,1.58.58s1.2-.19,1.58-.58c.38-.39.56-.95.56-1.69v-2.99h-.54v2.97Z"/>
            <polygon class="cls-1" points="77.24 150.19 74.98 146.32 74.52 146.32 74.52 151.54 75.05 151.54 75.05 147.39 77.1 150.88 77.36 150.88 79.41 147.37 79.41 151.54 79.94 151.54 79.94 146.32 79.49 146.32 77.24 150.19"/>
          </g>
          <g>
            <polygon class="cls-1" points="89.71 151.54 90.26 151.54 90.26 149.33 92.96 149.33 92.96 148.85 90.26 148.85 90.26 146.8 93.29 146.8 93.29 146.32 89.71 146.32 89.71 151.54"/>
            <rect x="97.71" y="146.32" width=".55" height="5.22"/>
            <polygon class="cls-1" points="102.43 146.8 104.26 146.8 104.26 151.54 104.81 151.54 104.81 146.8 106.65 146.8 106.65 146.32 102.43 146.32 102.43 146.8"/>
            <polygon class="cls-1" points="114.63 150.56 111.27 146.32 110.81 146.32 110.81 151.54 111.36 151.54 111.36 147.31 114.72 151.54 115.18 151.54 115.18 146.32 114.63 146.32 114.63 150.56"/>
            <polygon class="cls-1" points="120.71 149.13 123.41 149.13 123.41 148.66 120.71 148.66 120.71 146.8 123.74 146.8 123.74 146.32 120.16 146.32 120.16 151.54 123.85 151.54 123.85 151.07 120.71 151.07 120.71 149.13"/>
            <path class="cls-1" d="M130.97,148.99c-.24-.09-.55-.19-.93-.28-.32-.08-.58-.15-.77-.22s-.35-.16-.48-.29c-.13-.13-.19-.29-.19-.5,0-.28.12-.51.35-.68.23-.18.58-.26,1.03-.26.24,0,.48.04.73.11.25.07.48.18.7.32l.19-.44c-.21-.14-.46-.26-.74-.34-.29-.08-.58-.12-.88-.12-.43,0-.79.06-1.07.19-.29.13-.5.3-.64.52s-.21.46-.21.72c0,.32.08.58.25.77.17.19.37.33.6.42.23.09.55.19.94.29.33.08.58.15.77.22s.34.16.47.29c.13.12.19.29.19.5,0,.27-.12.5-.35.67-.23.17-.58.26-1.05.26-.33,0-.66-.06-.97-.18-.31-.12-.56-.27-.75-.46l-.22.43c.19.2.47.37.82.49s.73.19,1.12.19c.43,0,.79-.06,1.08-.19.29-.13.51-.3.65-.51.14-.22.21-.46.21-.72,0-.32-.08-.57-.25-.76-.16-.19-.36-.33-.6-.42Z"/>
            <path class="cls-1" d="M138.84,148.99c-.24-.09-.55-.19-.93-.28-.32-.08-.58-.15-.77-.22s-.35-.16-.48-.29c-.13-.13-.19-.29-.19-.5,0-.28.12-.51.35-.68.23-.18.58-.26,1.03-.26.24,0,.48.04.73.11.25.07.48.18.7.32l.19-.44c-.21-.14-.46-.26-.74-.34-.29-.08-.58-.12-.88-.12-.43,0-.79.06-1.07.19-.29.13-.5.3-.64.52s-.21.46-.21.72c0,.32.08.58.25.77.17.19.37.33.6.42.23.09.55.19.94.29.33.08.58.15.77.22s.34.16.47.29c.13.12.19.29.19.5,0,.27-.12.5-.35.67-.23.17-.58.26-1.05.26-.33,0-.66-.06-.97-.18-.31-.12-.56-.27-.75-.46l-.22.43c.19.2.47.37.82.49s.73.19,1.12.19c.43,0,.79-.06,1.08-.19.29-.13.51-.3.65-.51.14-.22.21-.46.21-.72,0-.32-.08-.57-.25-.76-.16-.19-.36-.33-.6-.42Z"/>
          </g>
        </g>
      </g>
      <g>
        <path d="M72.55,29.66c-1.56,6.08,2.56,13.24-1.76,15.35,1.35-.03,2.7-.21,4.08-1.69.41-.17.41-3.22.38-5.19,1.24.62.93,5.95.62,6.85-.73,2.32-3.25,6.19-5.25,7.64-5.22,6.88,1.56,10.47.59,16.56-.8-5.81-5.43-8.54-2.52-14.76-8.33,3.53-7.57,15.25-6.4,21.54.1.66,1.24-4.18,1.31-3.53.59,4.11.45,8.16-3.56,11.27,4.84-1.45,8.16-3.01,10.06-7.67.21,1.24.35,5.7.17,7.02.52-.35,2.87-.48,3.35-.03.66.59.83,1.42,1.07,2.11h3.84c-.38-.97-.59-1.69-1.49-2.45-1.14-.97-2.59-.59-3.73-3.22-.59-1.87-.1-4.6.21-5.95.93-1.04,1.83-2.04,2.7-3.08,2.39-2.25,2.66-6.74,3.01-7.23.73,2.07-1,8.33-2.77,10.09,1.14,1.49,3.73,5.5,4.39,9.2.35-.52,2.11-.86,2.73-.62.9.35.45,2.66.93,3.25h3.8c-.48-.66-.8-1.87-1.24-2.73-.8-.48-3.46-1.83-4.01-3.73-1.24-1.52-2.11-3.77-2.35-5.12.41-1.62,3.22-5.08,3.98-7.36.8-2.42.52-7.64-.21-9.61-.17-.45-1.83,3.01-2.01,2.83-.62-3.01,5.91-9.06,7.99-11.72-1.38-.1-2.39-.14-3.18-.03,2.9-1.14,6.22-2.32,6.53-3.73.55-2.66,1.59-3.42,2.56-3.91-.59,1.35-.93,2.35-1.07,3.6,1.14.45,1.38.73-.17,1.14-.24.52-1,1.28-1.24,1.8.93,1.24,1.76,2.97,2.73,4.22.07-2.39,1.28-5.15,1.94-7.5.45-2.25.9-4.49,1.31-6.74-.73-.69-4.22.17-4.81,1.04-.52-3.35-1.73-6.4-.83-7.19.83.93,2.39,2.14,3.22,3.08,1.11-.55,1.62-.69.86.73.24.52.45,1.04.69,1.56,1.56.14,3.11.24,4.67.38-2.21-1.52-3.6-3.46-4.6-5.57-1.94-1-3.87-2.04-5.81-3.04-1.38-.35-1.94,1.35-2.04,2.25-.03.35-1.97,8.61-2.18,8.5-.17-.1-.07-3.42-.28-3.53-2.73-1.31-5.19-2.45-5.22-6.4.03.52.62,1.62,2.07,2.35,1.45.59,1.31,2.28,1.14,2.45.35.35,1,.35,1.38.07.17-.14-.69-.93-.48-.97.07-.03,1.38.9,1.42.83.48-.8,1-.9,1.28-1.07,0-1.35.1-2.45-.31-4.04-.03-.21.38-1.52.31-1.73-.38-1.38-.45-2.07-.8-3.42.93.48,1.76.52,2.56-.24-2.14-.14-2.66-3.7-5.22-2.77l.69-2.32c-.86-.1-2.42,1.07-2.97,1.97-.66-.03-1.31-.03-1.94,0-.41.03-.83.07-1.24.14-8.16,1.11-10.54,8.44-11.1,11.3.73-1.21,1.69-2.18,2.21-1.21ZM89.63,27.21c-.21.35-.59.45-1.11.28-.28-.41-.48-.83-.45-1.28.31.35.9.69,1.56,1ZM82.58,21.05c-3.53.9-5.57,3.39-7.16,7.02.07-2.42,1.45-6.08,7.16-7.02Z"/>
        <path d="M76.53,4.39c-2.28-.28-4.63-.41-7.02-.35-1.11.83-2.14,1.69-3.15,2.59,1.35.1,2.66.28,3.94.52,1.94-1.07,4.04-1.97,6.22-2.77Z"/>
        <path d="M63.25,12.31l3.08.03c1,0,2.01.14,2.97.24-1.35-1.21-2.83-2.39-4.36-3.42l-2.01.38c-.35.07-.66.14-1,.21l-.97.28c.76.73,1.52,1.49,2.28,2.28Z"/>
        <path d="M60.9,7.47c.28-.21.59-.41.9-.59l1.8-1.21c.48-1.9,1.07-3.73,1.8-5.6-1,.76-2.01,1.49-2.9,2.32-.93.83-1.83,1.62-2.7,2.45.07,1.11.17,2.21.28,3.32l.83-.69Z"/>
        <path d="M63.56,14.87c-.76-.48-1.56-.97-2.35-1.45-.8-.45-1.66-.93-2.49-1.35l-1.87.69-.97.35c-.31.14-.62.28-.93.41.86.66,1.73,1.28,2.59,1.97l3.04-.41c.97-.14,2.01-.14,2.97-.21Z"/>
        <path d="M54.51,11.03l.8-.73,1.59-1.45c.07-1,.24-1.9.41-2.87.17-.97.35-1.94.55-2.9-.86.9-1.76,1.76-2.56,2.7-.8.97-1.56,1.9-2.32,2.83.21,1.07.48,2.18.76,3.22.28-.28.52-.55.76-.8Z"/>
        <path d="M58.24,17.94c-1.62-.73-3.39-1.45-5.19-2.04l-1.8.93c-.59.31-1.21.62-1.76,1,.97.52,1.9,1,2.83,1.56l2.94-.86c1-.21,2.01-.38,2.97-.59Z"/>
        <path d="M49.36,14.66l1.38-1.69c-.07-1.94-.03-3.84.1-5.88-.73,1.04-1.45,2.01-2.14,3.04-.66,1.07-1.24,2.11-1.87,3.15.38,1,.8,2.07,1.21,3.08.41-.59.86-1.14,1.31-1.69Z"/>
        <path d="M53.4,21.78c-1.73-.48-3.56-.93-5.43-1.28l-1.62,1.21c-.55.41-1.11.8-1.62,1.28,1.04.35,2.04.73,3.04,1.14l2.8-1.31c.93-.35,1.9-.69,2.83-1.04Z"/>
        <path d="M44.14,19.81l1.11-1.87c-.35-1.9-.59-3.8-.76-5.81-.59,1.11-1.14,2.21-1.66,3.32-.48,1.14-.93,2.28-1.38,3.39.52.97,1.07,1.94,1.66,2.87.31-.66.69-1.28,1.04-1.9Z"/>
        <path d="M49.15,26.31c-1.8-.24-3.66-.41-5.53-.45l-1.42,1.42c-.48.48-1,.97-1.42,1.49,1.07.21,2.11.41,3.18.69l2.56-1.69,2.63-1.45Z"/>
        <path d="M39.71,25.69l.83-2.01c-.62-1.8-1.14-3.7-1.59-5.64-.41,1.21-.8,2.39-1.18,3.53-.31,1.21-.59,2.39-.86,3.56.66.86,1.35,1.73,2.04,2.59.21-.73.52-1.35.76-2.04Z"/>
        <path d="M45.62,31.39c-1.8.03-3.66.14-5.57.35-.8,1.07-1.62,2.14-2.39,3.28,1.07.03,2.18.1,3.25.21.76-.69,1.52-1.38,2.28-2.04l2.42-1.8Z"/>
        <path d="M36.74,30.04c-.86-1.69-1.66-3.49-2.42-5.36-.21,1.24-.41,2.45-.62,3.66-.14,1.21-.24,2.45-.35,3.63.8.76,1.56,1.52,2.39,2.25.28-1.35.66-2.73,1-4.18Z"/>
        <path d="M37.46,38.1c-.66,1.18-1.28,2.39-1.9,3.6,1.07-.1,2.18-.21,3.28-.28.66-.8,1.28-1.62,1.97-2.35l2.07-2.14c-1.76.28-3.6.66-5.43,1.18Z"/>
        <path d="M33.56,41.21c.1-1.42.21-2.87.35-4.29-1.11-1.56-2.18-3.22-3.18-4.94-.03,1.28-.07,2.52-.07,3.73s.14,2.45.21,3.63c.9.66,1.76,1.28,2.7,1.87Z"/>
        <path d="M38.43,46.53l.38-.66c.14-.21.28-.41.45-.62.59-.83,1.14-1.66,1.73-2.45-1.69.55-3.42,1.21-5.19,1.97-.28.62-.45,1.28-.69,1.9l-.66,1.94c1.07-.28,2.14-.52,3.18-.76l.8-1.31Z"/>
        <path d="M28.85,44.29l.21.9.41,1.76c.97.52,1.97,1,2.94,1.45l-.17-2.14c-.03-.73-.14-1.45-.1-2.18-1.31-1.38-2.63-2.83-3.91-4.43.14,1.24.31,2.49.52,3.7.03.35.07.66.1.93Z"/>
        <path d="M37.43,54.38l.59-1.45c.17-.48.45-.93.66-1.38l.66-1.35c.24-.45.41-.9.69-1.31-.86.38-1.62.83-2.42,1.28s-1.59.93-2.42,1.45l-.24,1c-.07.35-.14.66-.17,1-.1.66-.28,1.35-.35,2.01.97-.45,1.97-.86,3.01-1.24Z"/>
        <path d="M27.96,51.27c.21.59.35,1.18.55,1.73l.66,1.69c1.04.35,2.07.69,3.15,1-.21-.69-.31-1.38-.48-2.07-.07-.35-.17-.69-.24-1.07l-.17-1.07c-.76-.59-1.52-1.18-2.28-1.83-.76-.62-1.52-1.28-2.21-1.97.1.62.31,1.21.48,1.8l.55,1.8Z"/>
        <path d="M38.5,59.39l.41-1.49c.28-.97.66-1.94.97-2.83-1.49,1.04-3.01,2.14-4.39,3.39-.14,1.35-.17,2.7-.17,4.08.9-.55,1.87-1.11,2.83-1.62l.35-1.52Z"/>
        <path d="M29.13,60.81l.9,1.59c1.07.21,2.14.38,3.25.55-.55-1.31-1.07-2.66-1.52-4.04-1.73-.93-3.35-1.97-5.01-3.11.52,1.14.97,2.28,1.52,3.39l.86,1.62Z"/>
        <path d="M39.81,67.21l.14-1.52.21-1.52.1-.76.14-.76.28-1.45c-1.31,1.21-2.66,2.56-3.84,3.98.07,1.35.24,2.7.41,4.04.83-.66,1.69-1.35,2.56-2.01Z"/>
        <path d="M32.04,69.9c1.11.03,2.18.07,3.28.07-.73-1.21-1.45-2.49-2.11-3.77-1.83-.66-3.6-1.45-5.39-2.35l1,1.59.48.8.52.76,1.07,1.49,1.14,1.42Z"/>
        <path d="M42.41,73.19l-.1-1.56-.03-1.52v-.76l.03-.76.07-1.49c-1.11,1.42-2.25,2.94-3.22,4.53.28,1.31.62,2.63,1.04,3.94.69-.8,1.45-1.59,2.21-2.39Z"/>
        <path d="M35.11,77.02c1.11-.1,2.18-.24,3.28-.41-.9-1.11-1.8-2.21-2.63-3.42-1.9-.38-3.77-.9-5.7-1.52l1.21,1.42.62.69.62.66,1.28,1.31,1.31,1.28Z"/>
        <path d="M45.86,78.75l-.31-1.52c-.1-.52-.17-1-.24-1.52-.17-1-.24-2.01-.35-2.97-.9,1.56-1.8,3.25-2.52,4.94.45,1.28,1,2.52,1.59,3.77.55-.9,1.18-1.8,1.83-2.7Z"/>
        <path d="M42.37,82.69c-1.07-.97-2.11-1.94-3.11-3.01-1.94-.1-3.87-.35-5.84-.66.97.83,1.87,1.66,2.83,2.42.48.38.97.76,1.45,1.11l1.49,1.04c1.07-.28,2.11-.55,3.18-.9Z"/>
        <path d="M48.63,86.67c.45-.97.93-1.97,1.42-2.94l-.55-1.45c-.17-.48-.31-.97-.48-1.45-.31-.97-.55-1.94-.8-2.9-.66,1.69-1.28,3.46-1.76,5.25.31.59.66,1.18,1.04,1.76.41.59.76,1.18,1.14,1.73Z"/>
        <path d="M47.18,88.16c-.62-.38-1.18-.8-1.76-1.21-.59-.41-1.18-.86-1.73-1.31-1.94.17-3.87.24-5.88.21,1.07.69,2.07,1.35,3.15,1.97.55.31,1.04.62,1.59.9l1.62.83c1.04-.45,2.04-.9,3.01-1.38Z"/>
        <path d="M52.64,89.64c.45.52.86,1.04,1.35,1.56.31-1.04.62-2.07,1-3.11-.52-.93-1-1.8-1.42-2.73-.45-.9-.83-1.83-1.21-2.77-.41,1.76-.76,3.6-.97,5.46l.62.8.62.8Z"/>
        <path d="M52.78,92.86c-.66-.28-1.28-.62-1.94-.93l-.97-.48-.93-.55c-1.9.45-3.8.8-5.77,1.07,1.14.52,2.25,1.04,3.42,1.49,1.14.45,2.28.83,3.42,1.21.9-.59,1.87-1.18,2.77-1.8Z"/>
        <path d="M58.38,93.51c.52.45,1,.9,1.56,1.31.14-1.07.31-2.14.52-3.22-.62-.83-1.24-1.62-1.8-2.49-.28-.41-.55-.83-.83-1.28l-.76-1.28c-.07.9-.14,1.83-.17,2.77-.03.93-.03,1.83,0,2.8.48.48.97.93,1.49,1.38Z"/>
        <path d="M59,96.69c-.69-.17-1.38-.41-2.04-.66-.69-.24-1.38-.45-2.04-.73-.9.35-1.8.69-2.73,1.04-.93.31-1.87.59-2.83.86l1.8.52c.59.17,1.21.31,1.8.45,1.18.31,2.39.48,3.56.69.83-.69,1.66-1.45,2.49-2.18Z"/>
        <path d="M63.25,91.02l-.93-1.18c.07.9.14,1.83.24,2.77.1.9.24,1.83.41,2.77.55.41,1.11.76,1.66,1.14l.86.55.86.52c0-1.11,0-2.18.03-3.25-.73-.76-1.49-1.42-2.14-2.21-.35-.35-.69-.73-1-1.11Z"/>
        <path d="M64.64,99.43l-1.07-.21c-.69-.14-1.42-.24-2.11-.41-.83.48-1.69.97-2.56,1.42-.86.45-1.76.86-2.66,1.28l1.83.28c.62.07,1.24.1,1.83.17,1.21.14,2.45.14,3.63.17.73-.83,1.45-1.66,2.14-2.52l-1.04-.17Z"/>
        <path d="M69.06,93.34l-1.11-1c.17.9.41,1.8.62,2.7.24.9.52,1.76.8,2.66.59.31,1.21.59,1.83.9l.93.41c.31.14.62.24.93.38-.17-1.07-.31-2.14-.45-3.22-.83-.62-1.66-1.18-2.45-1.87l-1.11-.97Z"/>
        <path d="M72.76,101.43c-.35,0-.73.03-1.07,0l-1.07-.03c-.73-.03-1.45-.03-2.18-.1-.76.59-1.52,1.21-2.32,1.76-.8.55-1.62,1.11-2.45,1.66h1.87l1.87-.1c1.21-.07,2.45-.24,3.63-.38.59-.93,1.18-1.87,1.73-2.8Z"/>
        <path d="M75.18,94.76l-1.24-.83c.31.86.66,1.69,1.04,2.56.38.83.76,1.66,1.21,2.52.62.24,1.28.41,1.94.62.66.17,1.31.38,1.97.52-.31-1.04-.62-2.07-.9-3.11-.93-.48-1.83-.93-2.7-1.49-.45-.28-.9-.52-1.31-.8Z"/>
        <path d="M97.27,6.64c-1-.9-2.04-1.76-3.15-2.59-2.39-.03-4.74.07-7.02.35,2.18.76,4.25,1.69,6.22,2.73,1.28-.21,2.59-.38,3.94-.48Z"/>
        <path d="M101.83,6.85c.31.21.59.38.9.59l.86.66c.1-1.11.21-2.21.28-3.32-.86-.8-1.76-1.62-2.7-2.45s-1.9-1.59-2.9-2.32c.73,1.87,1.31,3.7,1.8,5.6l1.76,1.24Z"/>
        <path d="M100.66,9.51l-2.01-.38c-1.52,1.04-2.97,2.21-4.36,3.42.97-.1,1.97-.21,2.97-.24l3.08-.03c.73-.8,1.49-1.56,2.25-2.32l-.97-.28c-.31-.03-.66-.1-.97-.17Z"/>
        <path d="M106.71,8.82l1.59,1.45.8.73c.24.24.48.52.76.8.28-1.07.55-2.14.76-3.22-.73-.93-1.52-1.87-2.32-2.83-.8-.93-1.69-1.8-2.56-2.7.21.97.38,1.97.55,2.9.17.97.35,1.9.41,2.87Z"/>
        <path d="M106.78,12.76l-1.9-.66c-.83.38-1.66.86-2.49,1.35-.8.48-1.59.93-2.35,1.45.97.07,2.01.07,3.01.17l3.04.41c.86-.69,1.69-1.31,2.59-1.97-.31-.14-.62-.28-.93-.41l-.97-.35Z"/>
        <path d="M112.86,12.96l1.38,1.69c.45.55.9,1.11,1.31,1.69.41-1,.86-2.07,1.21-3.08-.59-1.04-1.21-2.07-1.87-3.15-.66-1.04-1.38-2.01-2.14-3.04.14,2.04.21,3.94.1,5.88Z"/>
        <path d="M110.58,15.9c-1.8.59-3.53,1.31-5.19,2.04.97.21,1.97.38,2.94.62l2.94.86c.97-.55,1.87-1.07,2.83-1.56-.55-.38-1.18-.69-1.76-1l-1.76-.97Z"/>
        <path d="M120.5,21.71c.59-.93,1.14-1.9,1.66-2.87-.45-1.11-.9-2.25-1.38-3.39-.52-1.11-1.07-2.21-1.66-3.32-.17,2.01-.41,3.94-.76,5.81l1.11,1.87c.38.62.76,1.24,1.04,1.9Z"/>
        <path d="M115.66,20.54c-1.87.31-3.7.76-5.43,1.28.93.35,1.87.66,2.83,1.04l2.8,1.31c1.04-.41,2.01-.8,3.04-1.14-.48-.45-1.07-.86-1.62-1.28l-1.62-1.21Z"/>
        <path d="M124.65,27.73c.73-.86,1.38-1.73,2.04-2.59-.28-1.18-.55-2.35-.86-3.56-.38-1.14-.76-2.35-1.18-3.53-.48,1.97-1,3.84-1.59,5.64l.83,2.01c.28.69.55,1.31.76,2.04Z"/>
        <path d="M121.44,27.28l-1.42-1.42c-1.9.07-3.77.24-5.53.45l2.66,1.45,2.56,1.69c1.07-.28,2.14-.48,3.18-.69-.45-.55-.97-1-1.45-1.49Z"/>
        <path d="M130.25,32.01c-.1-1.18-.17-2.42-.35-3.63-.21-1.21-.41-2.42-.62-3.66-.76,1.87-1.56,3.66-2.42,5.36.35,1.42.69,2.8.97,4.22.86-.76,1.66-1.52,2.42-2.28Z"/>
        <path d="M117.98,31.39l2.39,1.83c.76.66,1.52,1.35,2.28,2.04,1.07-.1,2.18-.17,3.25-.21-.76-1.14-1.59-2.21-2.39-3.28-1.87-.24-3.73-.38-5.53-.38Z"/>
        <path d="M130.08,41.21c.93-.62,1.8-1.24,2.7-1.87.07-1.18.21-2.42.21-3.63s-.03-2.45-.07-3.73c-1.04,1.73-2.07,3.39-3.18,4.94.14,1.45.24,2.87.35,4.29Z"/>
        <path d="M120.74,36.92l2.07,2.14c.69.76,1.28,1.56,1.97,2.35,1.07.07,2.18.14,3.28.28-.62-1.24-1.24-2.45-1.9-3.6-1.87-.52-3.66-.9-5.43-1.18Z"/>
        <path d="M131.39,46.29l-.17,2.14c.97-.45,1.97-.93,2.94-1.45l.41-1.76.21-.9c.07-.31.1-.59.14-.9.17-1.21.35-2.45.52-3.7-1.28,1.59-2.59,3.04-3.91,4.43,0,.69-.1,1.42-.14,2.14Z"/>
        <path d="M127.8,44.77c-1.76-.76-3.46-1.42-5.19-1.97.59.8,1.14,1.59,1.73,2.45.14.21.31.41.45.62l.38.66.76,1.35c1.07.24,2.14.48,3.18.76l-.66-1.94c-.17-.69-.35-1.35-.66-1.94Z"/>
        <path d="M132.19,51.51l-.17,1.07c-.07.35-.14.69-.24,1.07-.17.69-.28,1.42-.48,2.07,1.07-.31,2.11-.66,3.15-1l.66-1.69c.21-.55.38-1.14.55-1.73l.55-1.76c.17-.59.38-1.21.48-1.8-.69.69-1.49,1.35-2.21,1.97-.76.59-1.52,1.21-2.28,1.8Z"/>
        <path d="M128.9,53.58c-.07-.35-.1-.66-.17-1l-.24-1c-.8-.52-1.59-.97-2.42-1.45-.8-.45-1.59-.9-2.42-1.28.28.41.48.86.69,1.31l.66,1.35c.21.45.48.93.66,1.38l.59,1.45c1.04.38,2.04.8,3.04,1.21-.14-.62-.28-1.31-.38-1.97Z"/>
        <path d="M130.32,62.95c1.11-.14,2.14-.35,3.25-.55l.9-1.59.83-1.62c.59-1.11,1.04-2.25,1.52-3.39-1.66,1.14-3.28,2.18-5.01,3.11-.41,1.38-.93,2.73-1.49,4.04Z"/>
        <path d="M128.11,58.46c-1.38-1.21-2.9-2.35-4.39-3.39.31.93.69,1.87.97,2.83l.41,1.49.35,1.49c.93.52,1.9,1.07,2.83,1.62,0-1.35-.03-2.7-.17-4.04Z"/>
        <path d="M128.28,69.97c1.11,0,2.18-.03,3.28-.07l1.14-1.42,1.07-1.49.52-.76.48-.8,1-1.59c-1.83.9-3.56,1.69-5.39,2.35-.62,1.28-1.35,2.52-2.11,3.77Z"/>
        <path d="M126.79,65.2c-1.21-1.42-2.56-2.77-3.84-3.98l.28,1.45.14.76.1.76.21,1.52.14,1.52c.86.66,1.73,1.35,2.56,2.04.17-1.38.35-2.73.41-4.08Z"/>
        <path d="M125.24,76.61c1.11.17,2.18.31,3.28.41l1.31-1.24,1.28-1.31.62-.66.62-.69,1.21-1.42c-1.94.62-3.77,1.14-5.7,1.52-.8,1.14-1.69,2.28-2.63,3.39Z"/>
        <path d="M121.3,71.67l-.1,1.56c.76.76,1.52,1.59,2.21,2.39.38-1.31.76-2.63,1.04-3.94-.97-1.59-2.11-3.11-3.22-4.53l.07,1.49.03.76v.76l-.03,1.52Z"/>
        <path d="M121.26,82.69c1.07.35,2.11.62,3.18.9l1.49-1.04c.48-.35.97-.73,1.45-1.11,1-.76,1.9-1.59,2.83-2.42-2.01.31-3.91.55-5.84.66-1,1.07-2.04,2.07-3.11,3.01Z"/>
        <path d="M118.32,75.74c-.07.48-.17,1-.24,1.52l-.31,1.52c.62.9,1.24,1.8,1.83,2.7.59-1.24,1.14-2.49,1.59-3.77-.73-1.69-1.62-3.39-2.52-4.94-.1.97-.14,1.97-.35,2.97Z"/>
        <path d="M119.95,85.67c-.55.45-1.14.9-1.73,1.31-.59.41-1.18.83-1.76,1.21,1,.48,2.01.93,3.01,1.35l1.62-.83c.55-.28,1.07-.59,1.59-.9,1.07-.59,2.11-1.28,3.15-1.97-2.01.03-3.94,0-5.88-.17Z"/>
        <path d="M114.07,82.31l-.55,1.45c.52.97.97,1.94,1.42,2.94.41-.55.73-1.14,1.11-1.73.38-.55.69-1.18,1.04-1.76-.48-1.8-1.11-3.6-1.76-5.25-.24.93-.45,1.94-.8,2.9-.14.45-.28.97-.45,1.45Z"/>
        <path d="M113.73,91.44l-.97.48c-.66.31-1.28.66-1.94.93.9.62,1.83,1.21,2.77,1.8,1.14-.38,2.32-.76,3.42-1.21,1.14-.45,2.28-.97,3.42-1.49-1.97-.28-3.91-.59-5.77-1.07l-.93.55Z"/>
        <path d="M108.64,88.09c.35,1.04.69,2.04,1,3.11.48-.48.9-1.04,1.35-1.56l.66-.76.62-.8c-.21-1.87-.55-3.7-.97-5.46-.38.9-.76,1.87-1.21,2.77-.45.9-.97,1.76-1.45,2.7Z"/>
        <path d="M108.71,95.31c-.66.28-1.35.52-2.04.73-.69.24-1.35.45-2.04.66.8.73,1.66,1.49,2.49,2.18,1.18-.21,2.39-.41,3.56-.69.59-.14,1.21-.28,1.8-.45l1.8-.52c-.97-.28-1.9-.55-2.83-.86-.9-.35-1.83-.69-2.73-1.04Z"/>
        <path d="M105.77,87.88c-.28.41-.55.83-.83,1.28-.55.86-1.18,1.66-1.8,2.49.21,1.07.38,2.14.52,3.22.55-.41,1.04-.86,1.56-1.31s1-.9,1.49-1.38c.03-.93.03-1.87,0-2.8-.03-.93-.1-1.87-.17-2.77l-.76,1.28Z"/>
        <path d="M102.18,98.8c-.69.17-1.42.31-2.11.41l-1.07.21-1.07.14c.69.86,1.42,1.69,2.14,2.52,1.18-.03,2.42-.03,3.63-.17.62-.07,1.24-.1,1.83-.17l1.83-.28c-.9-.41-1.8-.83-2.66-1.28-.83-.41-1.69-.9-2.52-1.38Z"/>
        <path d="M99.34,92.17c-.66.76-1.42,1.45-2.14,2.21.03,1.07.03,2.14.03,3.25l.86-.52.86-.55c.55-.38,1.14-.73,1.66-1.14.17-.93.31-1.83.41-2.77.1-.93.17-1.87.24-2.77l-.93,1.18c-.31.35-.66.73-1,1.11Z"/>
        <path d="M95.2,101.29c-.73.07-1.45.1-2.18.1l-1.07.03h-1.07c.55.93,1.14,1.9,1.76,2.8,1.18.14,2.42.31,3.63.38l1.87.1h1.87c-.83-.55-1.66-1.11-2.45-1.66-.83-.59-1.62-1.18-2.35-1.76Z"/>
        <path d="M93.4,94.31c-.76.66-1.62,1.24-2.45,1.87-.1,1.07-.28,2.14-.45,3.22.31-.14.62-.24.93-.38l.93-.41c.62-.28,1.24-.55,1.83-.9.31-.9.55-1.8.8-2.66.24-.9.45-1.8.62-2.7l-1.11,1-1.11.97Z"/>
        <path d="M84.44,97.01c-.28,1.07-.59,2.07-.9,3.11.66-.14,1.31-.35,1.97-.52.66-.17,1.31-.38,1.94-.62.41-.83.83-1.69,1.21-2.52.38-.86.73-1.73,1.04-2.56l-1.24.83c-.41.28-.86.52-1.28.8-.9.55-1.8,1-2.73,1.49Z"/>
        <path d="M85.55,103.47c-1-.48-2.01-.9-3.08-1.21.38-.1.8-.17,1.18-.28,1.04-.24,2.11-.38,3.15-.59,1.76-.21,3.46-.55,5.15-1,2.18-.45,4.32-1.07,6.43-1.83,5.32-1.94,10.23-4.74,14.59-8.37,8.68-7.23,14.8-17.63,16.8-28.59.52-2.87.8-5.7.83-8.4,0-.9-.03-1.83-.07-2.73-.03-.48-.03-1-.07-1.49-.14-1.31-.28-2.66-.48-4.18-.93-5.57-2.8-10.92-5.57-15.87-5.36-9.71-14.45-17.67-25.03-21.75l-.17.48c10.44,4.04,19.46,11.89,24.75,21.54,2.73,4.91,4.6,10.2,5.5,15.7.21,1.52.38,2.87.48,4.15,0,.48.03,1,.07,1.49.03.9.07,1.8.07,2.7,0,2.66-.28,5.46-.8,8.33-1.97,10.86-8.02,21.16-16.63,28.31-4.32,3.6-9.2,6.36-14.45,8.3-5.19,1.87-10.68,2.83-16.42,2.87-5.7-.03-11.24-1-16.42-2.87-5.25-1.9-10.13-4.7-14.45-8.3-8.61-7.16-14.66-17.46-16.63-28.31-.52-2.83-.8-5.64-.8-8.33,0-.9.03-1.8.07-2.7.03-.48.03-1,.07-1.49.14-1.28.28-2.66.48-4.15.9-5.53,2.77-10.82,5.5-15.73,5.29-9.61,14.31-17.46,24.75-21.54l-.17-.48c-10.51,4.08-19.64,12.03-24.99,21.75-2.77,4.94-4.63,10.3-5.57,15.9-.21,1.52-.38,2.9-.48,4.22,0,.48-.03,1-.07,1.49-.03.9-.07,1.83-.07,2.73,0,2.7.28,5.53.83,8.4,1.97,10.96,8.09,21.36,16.8,28.59,4.36,3.63,9.26,6.43,14.59,8.37,2.32.83,4.7,1.49,7.16,1.97,1.52.38,3.08.66,4.63.86,1.04.21,2.11.35,3.15.59.38.07.8.17,1.18.28-1.04.31-2.07.69-3.08,1.21-2.73,1.35-5.15,3.35-6.88,5.88-.35.59-.73,1.24-1.07,1.8.28-.38.97-1.31,1.24-1.66.48-.48.9-1.11,1.35-1.59,2.39-2.66,5.57-4.49,8.99-5.46,3.42.97,6.6,2.8,8.99,5.46.45.48.86,1.11,1.35,1.59.28.38.97,1.28,1.24,1.66-.35-.59-.73-1.24-1.07-1.8-1.69-2.56-4.11-4.6-6.85-5.91Z"/>
      </g>
    </g>
  </g>
</svg>