<?xml version="1.0" encoding="UTF-8"?>
<svg id="Layer_2" data-name="Layer 2" xmlns="http://www.w3.org/2000/svg" viewBox="0 0 195.31 132.55">
  <g id="Layer_1-2" data-name="Layer 1">
    <g>
      <path d="M0,125.44v-10.04h4.91v9.58c0,1.92,1.22,3.3,3.42,3.3s3.39-1.37,3.39-3.3v-9.58h4.91v10.01c0,4.18-2.66,7.14-8.3,7.14s-8.33-2.96-8.33-7.11"/>
      <path d="M25.28,122.51v10.04h4.91v-9.58c0-1.92,1.22-3.3,3.42-3.3s3.39,1.37,3.39,3.3v9.58h4.91v-10.01c0-4.18-2.66-7.14-8.3-7.14s-8.33,2.96-8.33,7.11"/>
      <rect x="50.57" y="115.4" width="4.88" height="16.78"/>
      <polygon points="69.61 132.18 62.93 115.4 68.45 115.4 72.57 126.94 76.75 115.4 82.18 115.4 75.53 132.18 69.61 132.18"/>
      <polygon points="89.66 132.18 89.66 115.4 102.84 115.4 102.84 119.61 94.54 119.61 94.54 121.56 102.65 121.56 102.65 125.78 94.54 125.78 94.54 127.97 102.84 127.97 102.84 132.18 89.66 132.18"/>
      <path d="M122.47,132.18l-2.81-5.37h-2.14v5.37h-4.88v-16.78h9.12c3.84,0,6.1,2.59,6.1,5.7s-1.95,4.7-3.54,5.19l3.63,5.89h-5.49ZM122.93,121.11c0-.89-.67-1.49-1.74-1.49h-3.66v2.99h3.66c1.07,0,1.74-.64,1.74-1.49"/>
      <path d="M135.29,130.08l2.13-3.81c1.19,1.13,3.45,2.17,5.62,2.17,1.62,0,2.44-.49,2.44-1.25,0-2.04-9.61-.24-9.61-6.71,0-2.84,2.65-5.43,7.05-5.43,2.96,0,5.37.89,7.17,2.41l-2.23,3.51c-1.28-1.07-3.42-1.8-4.97-1.8-1.37,0-2.08.49-2.08,1.16,0,1.86,9.61.18,9.61,6.62,0,3.45-2.75,5.61-7.57,5.61-3.32,0-6.01-1.1-7.57-2.47"/>
      <path d="M169.28,115.4l6.65,16.78h-5.43l-.86-2.32h-6.68l-.82,2.32h-5.46l6.68-16.78h5.92ZM166.32,120.25l-1.98,5.4h3.93l-1.95-5.4Z"/>
      <polygon points="183.41 132.18 183.41 115.4 188.29 115.4 188.29 127.97 195.31 127.97 195.31 132.18 183.41 132.18"/>
      <path d="M85.54,85.42l-4.9,8.49-4.15-2.4,4.68-8.1c.94-1.62.58-3.38-1.28-4.45-1.83-1.06-3.54-.49-4.47,1.13l-4.68,8.1-4.15-2.4,4.88-8.46c2.04-3.54,5.73-4.74,10.5-1.98,4.77,2.75,5.6,6.57,3.57,10.07"/>
      <path d="M109.84,10.88l4.9-8.49,4.15,2.4-4.68,8.1c-.94,1.62-.58,3.38,1.28,4.45,1.83,1.06,3.54.49,4.47-1.13l4.68-8.1,4.15,2.4-4.88,8.46c-2.04,3.54-5.73,4.74-10.5,1.98-4.77-2.75-5.6-6.57-3.57-10.07"/>
      <path d="M68.53,74.36l-8.49,4.9-2.4-4.15,8.1-4.68c1.62-.94,2.19-2.64,1.12-4.5-1.06-1.83-2.81-2.19-4.44-1.26l-8.1,4.68-2.4-4.15,8.46-4.88c3.53-2.04,7.33-1.24,10.09,3.53,2.75,4.77,1.56,8.49-1.95,10.51"/>
      <path d="M126.85,21.95l8.49-4.9,2.4,4.15-8.1,4.68c-1.62.94-2.19,2.64-1.12,4.5,1.06,1.83,2.81,2.19,4.44,1.26l8.1-4.68,2.4,4.15-8.46,4.88c-3.53,2.04-7.33,1.24-10.09-3.53-2.75-4.77-1.56-8.49,1.95-10.51"/>
      <path d="M59.34,56.27h-9.8v-4.8h9.35c1.88,0,3.22-1.19,3.22-3.34s-1.34-3.31-3.22-3.31h-9.35v-4.8h9.77c4.08,0,6.97,2.59,6.97,8.1s-2.89,8.13-6.94,8.13"/>
      <path d="M136.04,40.04h9.8v4.8h-9.35c-1.88,0-3.22,1.19-3.22,3.34s1.34,3.31,3.22,3.31h9.35v4.8h-9.77c-4.08,0-6.97-2.59-6.97-8.1s2.89-8.13,6.94-8.13"/>
      <path d="M60.42,36l-8.49-4.9,2.4-4.15,8.1,4.68c1.62.94,3.38.58,4.45-1.28,1.06-1.83.49-3.54-1.13-4.47l-8.1-4.68,2.4-4.15,8.46,4.88c3.54,2.04,4.74,5.73,1.98,10.5-2.75,4.77-6.57,5.6-10.07,3.57"/>
      <path d="M134.96,60.3l8.49,4.9-2.4,4.15-8.1-4.68c-1.62-.94-3.38-.58-4.45,1.28-1.06,1.83-.49,3.54,1.13,4.47l8.1,4.68-2.4,4.15-8.46-4.88c-3.54-2.04-4.74-5.73-1.98-10.5,2.75-4.77,6.57-5.6,10.07-3.57"/>
      <path d="M71.49,18.99l-4.9-8.49,4.15-2.4,4.68,8.1c.94,1.62,2.64,2.19,4.5,1.12,1.83-1.06,2.19-2.81,1.26-4.44l-4.68-8.1,4.15-2.4,4.88,8.46c2.04,3.53,1.24,7.33-3.53,10.09-4.77,2.75-8.49,1.56-10.51-1.95"/>
      <path d="M123.9,77.31l4.9,8.49-4.15,2.4-4.68-8.1c-.94-1.62-2.64-2.19-4.5-1.12-1.83,1.06-2.19,2.81-1.26,4.44l4.68,8.1-4.15,2.4-4.88-8.46c-2.04-3.53-1.24-7.33,3.53-10.09,4.77-2.75,8.49-1.56,10.51,1.95"/>
      <path d="M89.57,9.8V0h4.8v9.35c0,1.88,1.19,3.22,3.34,3.22s3.31-1.34,3.31-3.22V0h4.8v9.77c0,4.08-2.59,6.97-8.1,6.97s-8.13-2.89-8.13-6.94"/>
      <path d="M105.81,86.5v9.8h-4.8v-9.35c0-1.88-1.19-3.22-3.34-3.22s-3.31,1.34-3.31,3.22v9.35h-4.8v-9.77c0-4.08,2.59-6.97,8.1-6.97s8.13,2.89,8.13,6.94"/>
    </g>
  </g>
</svg>