<?xml version="1.0" encoding="UTF-8"?>
<svg id="Layer_2" data-name="Layer 2" xmlns="http://www.w3.org/2000/svg" viewBox="0 0 170.48 71.51">
  <g id="Layer_1-2" data-name="Layer 1">
    <g>
      <path d="M67.51,28.59c.5.13,1.15.16,2,.16,3.19,0,5.17-1.66,5.17-4.46,0-2.51-1.69-4.01-4.7-4.01-1.22,0-2.05.13-2.49.25v8.05h.02ZM61.56,16.18c1.85-.32,4.46-.57,8.13-.57s6.36.73,8.13,2.18c1.69,1.38,2.84,3.65,2.84,6.32s-.87,4.94-2.44,6.48c-2.05,1.99-5.08,2.88-8.64,2.88-.78,0-1.5-.04-2.05-.13v9.79h-5.96v-26.96h-.02Z"/>
      <path d="M84.26,14.36h5.99v11.31h.09c.63-.86,1.43-1.5,2.37-2.02.87-.48,2-.77,3.12-.77,3.83,0,6.74,2.72,6.74,8.68v11.58h-5.99v-10.9c0-2.6-.87-4.39-3.12-4.39-1.58,0-2.56,1.06-3,2.15-.16.41-.19.93-.19,1.38v11.76h-5.99V14.36h-.02Z"/>
      <path d="M112.47,33.21c0,3.4,1.38,5.96,3.94,5.96,2.33,0,3.83-2.4,3.83-5.96,0-2.95-1.1-5.96-3.83-5.96-2.87,0-3.94,3.04-3.94,5.96ZM126.42,33.01c0,7.25-5.02,10.58-10.17,10.58-5.64,0-9.98-3.81-9.98-10.22s4.11-10.51,10.29-10.51c5.92.02,9.86,4.19,9.86,10.15Z"/>
      <path d="M130.13,29.64c0-2.47-.09-4.58-.16-6.32h5.21l.28,2.72h.12c.78-1.25,2.77-3.17,5.96-3.17,3.94,0,6.9,2.67,6.9,8.52v11.74h-5.99v-10.99c0-2.56-.87-4.3-3.03-4.3-1.65,0-2.65,1.18-3.03,2.31-.16.36-.24.97-.24,1.54v11.44h-5.99v-13.5h-.02Z"/>
      <path d="M164.92,30.99c0-1.5-.63-4.01-3.4-4.01-2.52,0-3.55,2.34-3.71,4.01h7.1ZM157.85,35.19c.19,2.56,2.65,3.78,5.45,3.78,2.05,0,3.71-.29,5.33-.81l.78,4.17c-1.97.81-4.37,1.22-6.98,1.22-6.55,0-10.29-3.88-10.29-10.1,0-5.03,3.03-10.58,9.73-10.58,6.23,0,8.6,4.99,8.6,9.9,0,1.06-.12,1.99-.19,2.43h-12.43v-.02Z"/>
      <path d="M25.58,29.04c0,6.53-3.55,9.61-8.99,9.56-.75,0-1.58,0-2.09-.13v-17.88c.5-.13,1.38-.25,2.72-.25,5.17.02,8.41,3.02,8.36,8.7Z"/>
      <path d="M47.71,28.75c-.44-.09-.94-.16-1.62-.16-2.21,0-3.71,1.22-4.09,3.11-.09.41-.12.89-.12,1.38v10.06h-6.01v-13.3c0-2.92-.09-4.83-.16-6.53h5.17l.19,3.65h.16c.99-2.88,3.36-4.1,5.21-4.1.56,0,.84,0,1.27.09v5.8ZM8.46,43.01v-26.83c2.21-.36,5.08-.57,8.13-.57,5.05,0,8.32.93,10.88,2.92,2.77,2.11,4.49,5.48,4.49,10.29,0,5.23-1.85,8.84-4.42,11.06-2.8,2.4-7.05,3.53-12.26,3.53-3.12.02-5.33-.18-6.83-.39ZM54.59,10.53c0-.75-.28-1.25-.94-1.61-4.28-2.29-8.76-4.06-13.39-5.42-3.83-1.15-7.7-2.2-11.55-3.31-.98-.29-1.9-.21-2.86.07-4.02,1.16-8.06,2.26-12.07,3.45-4.35,1.31-8.6,2.94-12.64,5.1-.56.3-1.04.63-1.15,1.32v2.47c.02.14.03.29.03.43.02,8.23.02,16.47.02,24.7,0,.86.14,1.66.45,2.45,2.28,5.84,5.26,11.24,9.07,16.14,4.2,5.37,9.16,9.86,14.8,13.57.71.47,1.46.91,2.19,1.38.49.32.96.3,1.46,0,5.4-3.22,10.22-7.2,14.45-11.92,4.88-5.44,8.6-11.63,11.37-18.45.49-1.2.73-2.47.73-3.78V10.53Z"/>
    </g>
  </g>
</svg>