<?xml version="1.0" encoding="UTF-8"?>
<svg id="Layer_2" data-name="Layer 2" xmlns="http://www.w3.org/2000/svg" viewBox="0 0 183.39 46">
  <g id="Layer_1-2" data-name="Layer 1">
    <path d="M7.32,26.87v9.1c0,.4.1.72.29.94.19.22.53.39,1,.52v.65H0v-.65c.48-.13.82-.31,1.01-.53.19-.22.28-.53.28-.93v-11.52c0-.42-.09-.74-.28-.95-.19-.22-.53-.39-1.01-.53v-.65h1.29s15.22,0,15.22,0c1.83,0,3.12-.19,3.86-.59.47-.26.85-.66,1.14-1.22.29-.56.43-1.18.43-1.85s-.14-1.27-.43-1.83c-.29-.56-.67-.96-1.14-1.22-.73-.39-2.01-.59-3.86-.59H1.29v-2.42c0-.42-.09-.74-.28-.95-.19-.22-.53-.39-1.01-.53v-.65h17.22c2.01,0,3.6.13,4.78.4,1.18.27,2.22.74,3.12,1.4.93.69,1.66,1.59,2.18,2.71.53,1.16.79,2.39.79,3.68,0,1.86-.5,3.49-1.5,4.89-.86,1.2-2.01,2.05-3.43,2.56-1.42.5-3.41.76-5.95.76H7.32ZM71.58,12.6c0-.42.09-.74.28-.96.19-.22.53-.39,1.01-.52v-.65h-8.61v.65c.49.13.82.31,1.01.53.19.22.28.53.28.95v23.35c0,.42-.09.73-.28.95-.19.22-.53.39-1.01.53v.65h24.27c.42,0,.73.09.95.28.22.19.39.53.53,1.01h.65v-7.14h-.65c-.13.48-.31.82-.53,1.01-.22.19-.53.28-.95.28h-16.96V12.6ZM94.57,36.9c-.19.22-.53.39-1.01.53v.65h24.27c.42,0,.73.09.95.28.22.19.39.53.53,1.01h.65v-7.14h-.65c-.13.48-.31.82-.53,1.01-.22.19-.53.28-.95.28h-16.96V12.6c0-.42.09-.74.28-.96.19-.22.53-.39,1.01-.52v-.65h-8.61v.65c.49.13.82.31,1.01.53.19.22.28.53.28.95v23.35c0,.42-.09.73-.28.95ZM123.49,33.08c.53,1.41,1.47,2.53,2.83,3.36,2.33,1.41,5.69,2.12,10.09,2.12,6.08,0,10.09-1.31,12.03-3.92,1.08-1.46,1.62-3.64,1.62-6.57v-15.46c0-.42.09-.73.28-.95.19-.22.53-.39,1.01-.53v-.65h-8.13v.65c.48.13.82.31,1.01.53.19.22.28.53.28.95v13.76c0,1.59-.09,2.77-.26,3.53-.18.76-.5,1.4-.97,1.91-1.29,1.37-3.51,2.06-6.65,2.06s-5.34-.69-6.63-2.06c-.49-.51-.82-1.15-.99-1.91-.18-.76-.26-1.94-.26-3.53v-13.76c0-.42.1-.74.29-.96.19-.22.53-.39,1.01-.52v-.65h-8.61v.65c.49.13.82.31,1.01.53.19.22.28.53.28.95v15.46c0,1.94.26,3.61.77,5.01ZM172.45,37.42v.65h10.94v-.65c-.7-.11-1.25-.32-1.65-.65-.4-.32-1.05-1.08-1.97-2.26l-6-7.72,2.89.37-2.27-1.47,7.26-1.66-7.26-1.66,2.27-1.47-3.21.41,5.91-7.33c1.15-1.39,1.86-2.19,2.13-2.42.28-.22.74-.37,1.39-.43v-.65h-10.77v.65c.93.15,1.4.52,1.4,1.11,0,.33-.33.92-.97,1.74l-1.84,2.28.14-3.03-1.33,3.43-1.41-6.18-1.41,6.18-1.33-3.43.14,2.91-1.68-2.17c-.58-.75-.87-1.29-.87-1.61,0-.61.4-1.02,1.21-1.23v-.65h-11.07l.02.65c.73.07,1.25.23,1.59.49.33.26.99,1.05,1.99,2.35l5.62,7.27-2.77-.35,2.27,1.47-7.26,1.66,7.26,1.66-2.27,1.47,2.68-.34-6.19,7.69c-1.04,1.3-1.73,2.1-2.07,2.38-.34.28-.83.46-1.45.53v.65h10.6v-.65c-.9-.08-1.35-.46-1.35-1.13,0-.3.28-.8.83-1.51l2.92-3.85-.14,2.41,1.21-2.47,1.53,6.7,1.52-6.68,1.22,2.52-.1-1.82,2.19,3.4c.48.63.73,1.09.73,1.37,0,.54-.4.89-1.21,1.05ZM35.03,14.51c-.17-.08-.33-.14-.49-.21-.04-.02-.08-.03-.11-.04-.71.72-1.35,1.52-1.91,2.42-1.41,2.29-2.12,4.82-2.12,7.58,0,1.89.34,3.69,1.03,5.4.78,1.94,1.93,3.6,3.44,4.99,2.82,2.6,6.61,3.9,11.39,3.9,6.36,0,10.94-2.24,13.74-6.71,1.43-2.29,2.14-4.76,2.14-7.4,0-4.31-1.49-7.83-4.47-10.55-2.81-2.59-6.61-3.89-11.4-3.9h-13.01v.64h.05c1.4.34,2.73.84,3.96,1.47.6.31,1.18.66,1.73,1.04,1.05.71,1.99,1.54,2.82,2.46,1.3-.61,2.78-.92,4.42-.92,2.66.03,4.87.81,6.64,2.34,2.08,1.79,3.12,4.25,3.12,7.37,0,1.28-.24,2.52-.73,3.72-.55,1.35-1.35,2.48-2.39,3.41-1.74,1.56-3.94,2.34-6.6,2.34s-4.86-.78-6.62-2.34c-2.08-1.84-3.12-4.26-3.12-7.25,0-2.78.9-5.07,2.69-6.85-1.33-1.41-2.85-2.32-4.2-2.91ZM73.84,3.49v-.94H22.92c-7.64.16-15.28.28-22.92.47,7.64.19,15.28.31,22.93.47h50.91ZM160.47,3.29l11.46-.23,5.73-.11,5.73-.14-5.73-.13-5.73-.12-11.46-.22h-22.92s-27.99,0-27.99,0v.94h50.92ZM177.66,45.39l-5.73-.11-11.46-.22h-22.92s-45.85,0-45.85,0H22.92c-7.64.16-15.28.28-22.92.47,7.64.19,15.28.31,22.92.47h137.54s11.46-.22,11.46-.22l5.73-.11,5.73-.14-5.73-.14ZM78.11.98c.06-.04.16-.07.3-.07h1.86v4.53c0,.14-.02.24-.07.3-.04.06-.13.1-.26.14v.14h1.38v-.14c-.13-.03-.22-.08-.26-.14-.04-.06-.07-.16-.07-.3V.91h1.86c.14,0,.24.02.3.07.06.04.11.13.14.26h.14V.03h-.14c-.03.13-.08.22-.14.26-.02.01-.04.03-.07.03-.06.02-.13.03-.23.03h-4.44c-.1,0-.17,0-.23-.03-.03,0-.05-.02-.07-.03-.06-.04-.1-.13-.14-.26h-.14v1.2h.14c.03-.13.08-.22.14-.26ZM90.36,5.88c-.13-.03-.22-.08-.26-.14-.04-.06-.07-.16-.07-.3v-2.08h3.75v2.08c0,.14-.02.24-.07.3-.04.06-.13.1-.26.14v.14h1.38v-.14c-.13-.03-.22-.08-.26-.14-.04-.06-.07-.16-.07-.3V.9c0-.14.02-.24.07-.3.04-.06.13-.11.26-.14v-.14h-1.38v.14c.13.03.22.08.26.14.04.06.07.16.07.3v1.91h-3.75V.9c0-.14.02-.24.07-.3.04-.06.13-.1.26-.14v-.14h-1.38v.14c.13.03.21.08.26.14.04.06.07.16.07.3v4.54c0,.14-.02.24-.07.3-.04.06-.13.1-.26.14v.14h1.38v-.14ZM105.28,6.08c.06.04.1.13.13.26h.14v-1.2h-.14c-.03.13-.08.22-.13.26-.06.04-.16.07-.3.07h-3.52v-2.11h2.22c.14,0,.24.02.3.07.06.04.11.13.14.26h.14v-1.2h-.14c-.03.13-.08.22-.13.26-.06.04-.16.07-.3.07h-2.22V.88h3.49c.14,0,.24.02.3.07.06.04.1.13.14.26h.14V0h-.14c-.03.13-.08.22-.14.26-.06.04-.16.07-.3.07h-4.54v.14c.13.03.22.08.26.14.04.06.07.16.07.3v4.54c0,.14-.02.24-.06.3-.04.06-.13.1-.26.14v.14h4.57c.14,0,.24.02.3.07Z"/>
  </g>
</svg>