<?xml version="1.0" encoding="UTF-8"?>
<svg id="Layer_2" data-name="Layer 2" xmlns="http://www.w3.org/2000/svg" viewBox="0 0 219.1 45.2">
  <g id="Layer_1-2" data-name="Layer 1">
    <path d="M34.93,9.37l-9.23,14.44h8.41l.82-14.44ZM18.59,45.2H0l3.12-9.39h3.58L24.55,8.62h-3.78L23.64,0h195.46L49.38,6.39h-2.75l1.37,30.55h3.44l158.37,6.46-183.33,1.81,2.77-8.34h4.11l.4-6.57h-12.01l-4.25,6.57h3.85l-2.77,8.34ZM71.09,34.22h-19.59l1.58-5.47h1.85l3.43-11.92h-1.85l1.58-5.48h11.77l-1.58,5.48h-1.95l-3.43,11.92h4.87l1.06-3.67h4.92l-2.63,9.15ZM91,34.22h-18.35l1.48-5.47h1.73l3.22-11.92h-1.73l1.48-5.48h11.02l-1.48,5.48h-1.83l-3.21,11.92h4.56l.99-3.67h4.6l-2.47,9.15ZM100.16,34.22h-7.47l1.48-5.47h1.48l3.22-11.92h-1.52l1.48-5.48h11.63l.46,8.83,5.29-8.83h11.56l-1.48,5.48h-1.51l-3.22,11.92h1.55l-1.48,5.47h-10.06l1.48-5.47h1.54l3.45-12.78-10.74,18.25h-2.89l-.88-18.09-3.4,12.62h1.52l-1.48,5.47ZM142.47,34.22h-18.39l1.48-5.47h1.49l3.22-11.92h-1.52l1.48-5.48h18.42l-1.97,7.32h-5.06l.5-1.84h-4.38l-.95,3.51h3.81l-1.25,4.65h-3.81l-1.01,3.75h4.38l.5-1.84h5.06l-1.97,7.32ZM160.16,34.22h-10.82l1.48-5.47h1.67l3.22-11.92h-2.22l-1.12,4.16h-3.61l2.6-9.64h19.11l-2.6,9.64h-3.61l1.12-4.16h-2.2l-3.22,11.92h1.7l-1.48,5.47ZM178.33,17.15l-3.52,6.33h3.45l.07-6.33ZM171.91,34.22h-7.64l1.48-5.47h1.47l6.83-11.92h-1.55l1.48-5.48h13.86l-1.48,5.48h-1.55l.47,11.92h1.41l-1.48,5.47h-10.06l1.35-5.01h1.69l.04-2.88h-4.93l-1.62,2.88h1.58l-1.35,5.01ZM204.89,34.22h-18.35l1.48-5.47h1.73l3.22-11.92h-1.73l1.48-5.48h11.02l-1.48,5.48h-1.83l-3.21,11.92h4.56l.99-3.67h4.6l-2.47,9.15Z"/>
  </g>
</svg>