<?xml version="1.0" encoding="UTF-8"?>
<svg id="Layer_2" data-name="Layer 2" xmlns="http://www.w3.org/2000/svg" viewBox="0 0 176.08 20.12">
  <g id="Layer_1-2" data-name="Layer 1">
    <g>
      <g>
        <path d="M0,.82h15.49c5.4,0,6.71,2.71,6.71,6.35v1.59c0,2.77-1.2,5.94-5.22,5.94H5.68v4.66H0V.82ZM5.68,10.09h8.83c1.33,0,1.84-.87,1.84-1.97v-.72c0-1.25-.61-1.97-2.33-1.97H5.68v4.66Z"/>
        <path d="M23.5.82h17.01c4.38,0,5.56,2.18,5.56,5.51v1.18c0,2.48-.56,3.94-3.17,4.56v.05c1.69.31,3.1,1.05,3.1,4.1v3.15h-5.68v-2.23c0-1.95-.56-2.59-2.33-2.59h-8.94v4.81h-5.54V.82ZM29.04,9.93h9.4c1.54,0,2.1-.61,2.1-1.95v-.61c0-1.64-.82-1.95-2.61-1.95h-8.89v4.51Z"/>
        <polygon points="93.17 .52 87.93 12.5 82.72 .52 72.72 .52 72.72 19.05 78.3 19.05 78.29 5.31 78.88 5.29 85.8 19.05 87.43 19.05 88.46 19.05 90.08 19.05 97 5.33 97.6 5.28 97.59 19.05 103.15 19.05 103.15 .52 93.17 .52"/>
        <path d="M128.56.82h9.3l9.86,13.51.15-.02.02-13.5h5.58l.04,18.54h-9.42l-9.78-13.47h-.05v13.47h-5.68V.82Z"/>
        <path d="M154.41.82h21.66v4.61h-7.99v13.93h-5.68V5.43h-7.99V.82Z"/>
      </g>
      <g>
        <g>
          <path d="M62.98,20.12h-8.32l-.03-.04-5.73-5.53v-7.99l.03-.04,6.62-6.52h8.22l5.77,5.64v8.19l-6.56,6.3ZM54.76,19.85h8.11l6.4-6.13v-7.96L63.65.26h-8l-6.51,6.41v7.76l5.62,5.41Z"/>
          <path d="M63.49,19.32h-8.05l-5.49-5.57v-7.99l5.13-4.97h7.62l5.77,5.66v8.15l-.04.04-4.94,4.67ZM55.56,19.05h7.83l4.84-4.54v-7.93l-5.63-5.51h-7.4l-4.98,4.82v7.77l5.34,5.4Z"/>
          <rect x="62.49" y=".4" width="1.15" height=".26" transform="translate(17.22 43.84) rotate(-43.85)"/>
          <rect x="68.23" y="6.02" width="1.28" height=".26" transform="translate(8.6 40.04) rotate(-34.45)"/>
          <rect x="54.54" y="19.46" width="1.12" height=".26" transform="translate(2.29 44.7) rotate(-45)"/>
          <rect x="48.88" y="13.97" width="1.32" height=".26" transform="translate(1.44 32.51) rotate(-36.83)"/>
        </g>
        <path d="M59.6,15.19c-3.05,0-5.53-2.52-5.53-5.61s2.48-5.61,5.53-5.61,5.53,2.52,5.53,5.61-2.48,5.61-5.53,5.61ZM59.6,4.24c-2.9,0-5.27,2.4-5.27,5.34s2.36,5.34,5.27,5.34,5.27-2.4,5.27-5.34-2.36-5.34-5.27-5.34Z"/>
        <path d="M58.54,15.98c-3.05,0-5.53-2.52-5.53-5.61s2.48-5.61,5.53-5.61,5.53,2.52,5.53,5.61-2.48,5.61-5.53,5.61ZM58.54,5.03c-2.9,0-5.27,2.4-5.27,5.34s2.36,5.34,5.27,5.34,5.27-2.4,5.27-5.34-2.36-5.34-5.27-5.34Z"/>
        <rect x="58.63" y="4.38" width=".85" height=".26" transform="translate(33.39 57.89) rotate(-68.7)"/>
        <rect x="61.23" y="5.18" width="1.23" height=".26" transform="translate(12.45 42.9) rotate(-42.19)"/>
        <rect x="63.08" y="7.11" width="1.33" height=".26" transform="translate(9.21 41.03) rotate(-38.26)"/>
        <rect x="63.89" y="9.91" width="1.15" height=".26" transform="translate(1.1 25.56) rotate(-22.61)"/>
        <rect x="59.14" y="15.04" width=".26" height=".82" transform="translate(-1.72 9.77) rotate(-9.29)"/>
        <rect x="55.91" y="14.67" width="1.22" height=".26" transform="translate(9.63 49.66) rotate(-51.31)"/>
        <rect x="53.82" y="12.74" width="1.33" height=".26" transform="translate(4.25 37.59) rotate(-39.49)"/>
        <rect x="53.07" y="9.96" width="1.2" height=".26" transform="translate(1.48 26.17) rotate(-27.77)"/>
      </g>
      <g>
        <g>
          <path d="M120.16,20.12h-8.32l-5.79-5.57v-7.99l6.68-6.56h8.22l5.79,5.64v8.19l-6.57,6.3ZM111.94,19.85h8.11l6.4-6.13v-7.96l-5.62-5.49h-8l-6.51,6.41v7.76l5.62,5.41Z"/>
          <path d="M120.68,19.32h-8.05l-5.51-5.57v-7.99l5.14-4.97h7.62l5.77,5.66v8.15l-.04.04-4.94,4.67ZM112.74,19.05h7.83l4.82-4.54v-7.93l-5.62-5.51h-7.4l-4.99,4.82v7.77l5.35,5.4Z"/>
          <polygon points="119.92 1.02 119.74 .83 120.56 .04 120.75 .23 119.92 1.02"/>
          <rect x="125.41" y="6.02" width="1.28" height=".26" transform="translate(18.67 72.47) rotate(-34.49)"/>
          <rect x="111.72" y="19.46" width="1.12" height=".26" transform="translate(19.04 85.14) rotate(-45)"/>
          <rect x="106.06" y="13.97" width="1.32" height=".26" transform="translate(12.85 66.78) rotate(-36.83)"/>
        </g>
        <path d="M116.78,15.19c-3.05,0-5.53-2.52-5.53-5.61s2.48-5.61,5.53-5.61,5.53,2.52,5.53,5.61-2.48,5.61-5.53,5.61ZM116.78,4.24c-2.9,0-5.27,2.4-5.27,5.34s2.36,5.34,5.27,5.34,5.27-2.4,5.27-5.34-2.36-5.34-5.27-5.34Z"/>
        <path d="M115.72,15.98c-3.05,0-5.53-2.52-5.53-5.61s2.48-5.61,5.53-5.61,5.53,2.52,5.53,5.61-2.48,5.61-5.53,5.61ZM115.72,5.03c-2.9,0-5.27,2.4-5.27,5.34s2.36,5.34,5.27,5.34,5.27-2.4,5.27-5.34-2.36-5.34-5.27-5.34Z"/>
        <rect x="115.81" y="4.38" width=".85" height=".26" transform="translate(69.8 111.17) rotate(-68.7)"/>
        <rect x="118.41" y="5.18" width="1.23" height=".26" transform="translate(27.32 81.37) rotate(-42.23)"/>
        <rect x="120.26" y="7.11" width="1.33" height=".26" transform="translate(21.49 76.44) rotate(-38.26)"/>
        <rect x="121.07" y="9.91" width="1.15" height=".26" transform="translate(5.49 47.54) rotate(-22.61)"/>
        <rect x="116.32" y="15.04" width=".26" height=".82" transform="translate(-.97 19) rotate(-9.29)"/>
        <rect x="113.09" y="14.67" width="1.22" height=".26" transform="translate(31.02 94.24) rotate(-51.27)"/>
        <rect x="111" y="12.74" width="1.33" height=".26" transform="translate(17.26 73.88) rotate(-39.45)"/>
        <rect x="110.25" y="9.96" width="1.2" height=".26" transform="translate(8.02 52.72) rotate(-27.72)"/>
      </g>
      <g>
        <path d="M175.17,18.3c.12,0,.2-.04.2-.51v-.29c0-.39-.03-.49-.16-.49s-.18.06-.18.36v.77c0,.77-.17,1-.77,1-.55,0-.63-.44-.63-1.01v-.58c0-1.08.15-1.27.67-1.28v.83c-.13.04-.15.12-.15.62s.01.57.16.57c.09,0,.13-.06.13-.49v-.57c0-.99.33-1.06.72-1.06.58,0,.73.23.73,1.17v.78c0,.76-.18,1.04-.72,1.04v-.85Z"/>
        <path d="M174.98,15.66v-.9h.88v.9h-.88Z"/>
        <path d="M173.66,14.15v-.77h.42c-.35-.1-.45-.44-.45-.81,0-.6.26-.84.86-.84.06,0,.12,0,.19,0v.71c-.28,0-.41.06-.41.4,0,.28.11.48.37.48h1.21v.83h-2.19Z"/>
        <path d="M174.98,12.03v-.9h.88v.9h-.88Z"/>
        <path d="M174.49,10.61c-.72,0-.87-.49-.87-.91v-1.23c0-.42.15-.91.87-.91h.52c.72,0,.87.49.87.91v1.23c0,.42-.15.91-.87.91h-.52ZM174.86,9.78c.31,0,.41-.18.41-.56v-.2c0-.53-.07-.64-.36-.64h-.3c-.29,0-.36.1-.36.64v.2c0,.38.09.56.41.56h.21Z"/>
        <path d="M174.98,6.98v-.9h.88v.9h-.88Z"/>
      </g>
    </g>
  </g>
</svg>