<?xml version="1.0" encoding="UTF-8"?>
<svg id="Layer_2" data-name="Layer 2" xmlns="http://www.w3.org/2000/svg" viewBox="0 0 127.22 143.03">
  <g id="Layer_1-2" data-name="Layer 1">
    <g>
      <g>
        <path d="M10.08,93.91L0,80.61h3.8l8.56,11.25,9.24-11.25h2.45l-10.48,12.8v10.71h-3.49v-10.21Z"/>
        <path d="M29.27,101.85c-1.74-1.73-2.6-4.24-2.6-7.51v-13.74h3.49v14.51c0,2.51.59,4.42,1.78,5.74,1.19,1.32,3.11,1.98,5.78,1.98s4.53-.65,5.73-1.95c1.2-1.3,1.8-3.22,1.8-5.78v-14.51h3.49v13.74c0,3.27-.86,5.77-2.59,7.51-1.72,1.74-4.53,2.6-8.43,2.6s-6.71-.87-8.45-2.6Z"/>
        <path d="M61.36,92.57l-4.16,4.16v7.39h-3.49v-23.51h3.49v13l13.13-13h3.02l-9.64,9.61,10.68,13.9h-4.13l-8.9-11.55Z"/>
        <path d="M82.62,103.01c-1.9-.96-3.36-2.36-4.37-4.18-1.01-1.82-1.51-4.01-1.51-6.57s.5-4.66,1.51-6.47c1.01-1.8,2.46-3.17,4.37-4.11,1.9-.94,4.18-1.41,6.82-1.41s4.91.47,6.8,1.41c1.89.94,3.34,2.31,4.35,4.11,1.01,1.8,1.51,3.96,1.51,6.47s-.5,4.74-1.51,6.57c-1.01,1.83-2.46,3.22-4.35,4.18-1.89.96-4.16,1.44-6.8,1.44s-4.91-.48-6.82-1.44ZM96.19,100.09c1.59-1.84,2.38-4.44,2.38-7.83s-.79-5.87-2.37-7.67c-1.58-1.8-3.83-2.7-6.77-2.7s-5.19.9-6.78,2.69c-1.59,1.79-2.38,4.36-2.38,7.69s.79,5.99,2.38,7.83c1.59,1.84,3.85,2.75,6.78,2.75s5.16-.92,6.75-2.75Z"/>
        <path d="M106.43,80.61h3.53l14.31,18.24v-18.24h2.96v23.51h-1.75l-16.09-20.45v20.45h-2.96v-23.51Z"/>
      </g>
      <g>
        <path d="M27.04,124.73c-.73-.73-1.1-1.77-1.1-3.12s.36-2.34,1.09-3.06c.73-.72,1.76-1.09,3.09-1.09,1.07,0,1.95.23,2.64.7.69.47,1.11,1.12,1.26,1.95h-.88c-.13-.67-.46-1.19-.99-1.58-.53-.38-1.18-.58-1.97-.58-1.05,0-1.87.32-2.44.95-.57.63-.85,1.53-.85,2.7s.29,2.11.86,2.76c.57.64,1.39.97,2.45.97.78,0,1.43-.19,1.95-.57.52-.38.85-.91.98-1.58h.88c-.15.82-.57,1.47-1.26,1.94-.69.47-1.56.71-2.62.71-1.34,0-2.38-.37-3.11-1.1Z"/>
        <path d="M46.96,123.57h-4.86l-1.08,2.14h-.63l4.23-8.26h.42l3.99,8.26h-1.07l-1-2.14ZM46.72,123.07l-2.1-4.5-2.27,4.5h4.37Z"/>
        <path d="M55.79,117.57h3.69c.95,0,1.7.17,2.26.51.55.34.83.8.83,1.39,0,.52-.22.96-.65,1.33-.43.37-.99.59-1.69.67.96.09,1.67.29,2.13.61.46.32.69.81.69,1.46,0,.71-.28,1.24-.84,1.62-.56.37-1.38.56-2.45.56h-3.96v-8.14ZM59.04,121.24c.83,0,1.46-.15,1.91-.44s.66-.71.66-1.26c0-.5-.21-.86-.62-1.1-.41-.24-1.05-.36-1.91-.36h-2.33v3.16h2.29ZM59.87,125.21c.7,0,1.24-.15,1.63-.46s.59-.73.59-1.27c0-1.16-1.04-1.74-3.13-1.74h-2.22v3.48h3.13Z"/>
        <path d="M70.64,117.57h.95v8.14h-.95v-8.14Z"/>
        <path d="M79.64,117.57h.98l5.22,6.58v-6.58h.74v8.14h-.36l-5.84-7.37v7.37h-.74v-8.14Z"/>
        <path d="M95.05,125.16c-.65-.45-1.02-1.09-1.09-1.94h.87c.06.72.33,1.25.8,1.59.47.34,1.17.51,2.08.51.84,0,1.48-.15,1.94-.44.45-.29.68-.71.68-1.24,0-.33-.09-.6-.26-.82s-.47-.41-.88-.58c-.41-.17-.98-.32-1.71-.46-.77-.15-1.39-.31-1.87-.5-.48-.19-.84-.42-1.08-.7-.24-.28-.36-.62-.36-1.03,0-.67.31-1.18.94-1.55.63-.36,1.46-.55,2.5-.55s1.82.19,2.41.56c.59.37.94.9,1.05,1.58h-.87c-.12-.57-.39-.98-.83-1.24s-1.05-.4-1.83-.4-1.37.13-1.78.38c-.42.25-.62.61-.62,1.06,0,.28.08.52.24.71.16.19.44.36.82.51.38.15.92.29,1.62.43.84.16,1.51.35,2.01.55.5.21.87.46,1.11.77s.36.7.36,1.16c0,.72-.32,1.28-.95,1.69-.63.4-1.5.6-2.6.6s-2.03-.22-2.69-.67Z"/>
      </g>
      <g>
        <polygon points="58.76 25.77 58.76 20.42 58.5 20.78 58.5 26.13 58.76 25.77"/>
        <path d="M63.61,0c-17.12,0-31.04,13.93-31.04,31.04s13.93,31.04,31.04,31.04,31.04-13.93,31.04-31.04S80.73,0,63.61,0ZM63.61,1.31c16.39,0,29.73,13.34,29.73,29.73,0,5.74-1.63,11.1-4.46,15.65h-8.18v-4.75l4.29,3.03.76-1.07-5.04-3.56v-2.79l3.14,2.22.76-1.07-3.9-2.75v-2.82l.14.1,4.65,3.29.76-1.07-5.56-3.92v-1.76l2.46,1.74.76-1.07-1.96-1.38-.49-.35-.76-.54v-1.88l.34.24.84.6.19.14,3.64,2.58.76-1.07-4.59-3.24-1.19-.84v-1.31l3.48,2.46.76-1.07-4.23-2.99v-2.2l2.75,1.94.76-1.07-3.5-2.47-.03-.02-.15-.11-.47-.33-.47.33-.15.11-.03.02-2.85,2.01.76,1.07,2.09-1.47v2.78l-.07.05-4.16,2.94.76,1.07,3.47-2.45v2.38l-.64.45-.72.51-4.57,3.22-8.83-20.35-10.36,14.24-2.64,1.86-3.75-2.65v-1.46l2.75,1.94.76-1.07-3.5-2.47-.18-.13-.26-.19-.21-.15-.21.15-.26.19-.19.13-4.28,3.02.76,1.07,3.52-2.49v2.01l-.09.06-2.49,1.75-2.98,2.1.76,1.07,2.98-2.1,1.82-1.28v1.41l-.4.28h0s-.76.54-.76.54l-2.22,1.57.76,1.08,2.62-1.85v1.04l-2.89,2.04-.61.43-3.8,2.68.76,1.08,3.8-2.69.61-.43,2.14-1.51v2.19l-3.5,2.47.76,1.07,2.75-1.94v11.48h-8.23c-2.83-4.55-4.46-9.91-4.46-15.65,0-16.39,13.34-29.73,29.73-29.73ZM47.88,28.88v-3.69l2.61,1.84-2.61,1.84ZM47.88,34.48l4.02,2.84.76-1.07-.45-.32-4.32-3.05v-1.59l.5.35,2.75,1.94.76-1.07-3.43-2.42,2.84-2.01,1.31-.93.9-.64v20.18h-5.63v-12.22ZM62.63,15.11l.92-1.26-.08.11v5.37h-.02l-.49.68-1.21,1.67v-5.35l-.25.34.98-1.35v5.35l.26-.36v-5.35l-.11.15ZM77.95,40.87l-.53-1.23-.89-2.06,2.86-2.05v8.63l-1.43-3.3ZM73.93,34.89l.46,1.06v7.89l-.73-1.68v-7.89l.27.62ZM74.65,36.55l.18.41.08.18-.08.06.54,1.23.02-.02v7.72l-.73-1.68v-7.89ZM79.39,28.83v1.33l-3.59,2.54.56,1.21,3.02-2.14v2.16l-3.39,2.43-.08-.18-.63-1.46-.53-1.23-.76-1.75,4.76-3.36.64-.45v.9ZM73.36,33.58l.04.08v7.89l-.73-1.68v-7.9l.7,1.6ZM72.4,39.27l-.73-1.68v-7.9l.73,1.68v7.9ZM71.41,36.99l-.73-1.68v-7.91l.73,1.69v7.9ZM70.42,34.7l-.49-1.12-.24-.56v-7.91l.73,1.68v7.91ZM54.83,29.76l2.78-1.96,5.35-7.34v13.12h-8.13v-3.82ZM64.27,21.18l5.38,12.4h-5.38v-12.4ZM69.43,32.41l-.73-1.69v-7.91l.73,1.69v7.91ZM68.43,30.12l-.73-1.69v-7.91l.73,1.69v7.91ZM67.44,27.83l-.73-1.68v-7.91l.73,1.68v7.91ZM66.45,25.54l-.73-1.69v-7.91l.73,1.69v7.91ZM65.45,23.25l-.73-1.68v-7.91l.73,1.68v7.91ZM64.46,20.96l-.19-.45-.51-1.18h-.03v-5.74l.61-.83.13.29v7.91ZM61.68,21.77l-.93,1.28v-5.35l.73-1.01v5.35l.2-.27ZM60.58,23.28l-.9,1.24.08-.11v-5.35l-.12.17.94-1.29-.09.12v5.35l.09-.12ZM59.5,24.77l-1.94,2.66.21-.29v-5.35l1.72-2.37v5.35ZM57.51,27.49l-.07.1-.69.49.03-.02v-4.91l-.13.18.87-1.19v5.35ZM56.52,28.24l-.82.58.09-.06v-4.25l.73-1v4.73ZM55.52,24.87v4.07l-.7.49v-3.85l.37-.26.5-.68-.17.24ZM54.83,34.89h8.13v2.26h-6.17v9.54h-1.95v-11.81ZM58.09,38.46h11.04v8.23h-11.04v-8.23ZM64.27,37.15v-2.26h5.95s5.12,11.81,5.12,11.81h-4.89v-9.54h-6.17ZM75.65,46.69v-7.85l.68,1.57.05.11v6.17h-.73ZM76.64,41.12l.22.51.51,1.17v3.88h-.73v-5.57ZM77.63,43.42l.73,1.69v1.59h-.73v-3.28ZM78.63,45.71l.43.99h-.43v-.99ZM63.61,60.77c-10.09,0-19.03-5.05-24.4-12.77h48.81c-5.37,7.71-14.31,12.77-24.4,12.77Z"/>
      </g>
      <path d="M74.22,140.87h-6.95c-.17,0-.23-.23-.09-.31l1.16-.69c.17-.1.06-.36-.13-.31l-3.97,1.12c-.11.03-.21-.05-.21-.16v-.36c0-.09-.08-.17-.17-.17h-.5c-.09,0-.17.08-.17.17v.36c0,.11-.11.19-.21.16l-3.97-1.12c-.19-.05-.3.21-.13.31l1.16.69c.15.09.09.31-.09.31h-6.95c-.18,0-.23.25-.07.32l3.14,1.44c.13.06.27-.06.23-.2l-.15-.5c-.03-.11.05-.22.16-.22h3.64c.17,0,.23.23.09.31l-1.16.69c-.17.1-.06.36.13.31l3.97-1.12c.11-.03.21.05.21.16v.36c0,.09.08.17.17.17h.5c.09,0,.17-.08.17-.17v-.36c0-.11.11-.19.21-.16l3.97,1.12c.19.05.3-.21.13-.31l-1.16-.69c-.15-.09-.08-.31.09-.31h3.64c.11,0,.19.11.16.22l-.15.5c-.04.14.1.26.23.2l3.14-1.44c.16-.08.11-.32-.07-.32Z"/>
    </g>
  </g>
</svg>