<?xml version="1.0" encoding="UTF-8"?>
<svg id="Layer_2" data-name="Layer 2" xmlns="http://www.w3.org/2000/svg" viewBox="0 0 9.25 9.33">
  <defs>
    <style>
      .cls-1 {
        fill-rule: evenodd;
      }
    </style>
  </defs>
  <g id="Layer_1-2" data-name="Layer 1">
    <g>
      <path class="cls-1" d="M3.81,4.29h1.21c.26,0,.46-.06.59-.18.12-.1.2-.26.24-.47l.02-.15c0-.13-.04-.24-.12-.31-.09-.09-.24-.14-.44-.14h-1.24l-.27,1.26ZM2.31,6.92l.99-4.7h2.37c.41,0,.72.1.93.31.19.19.28.43.28.73,0,.1,0,.19-.03.27-.06.27-.17.5-.34.71-.17.21-.38.35-.62.43.15.05.26.13.32.23.06.1.1.23.1.38,0,.08,0,.15,0,.2,0,.05-.02.13-.05.24l-.04.2-.06.22s-.02.11-.03.21c-.01.1-.02.16-.02.2,0,.07,0,.13.03.17.02.04.06.07.11.08l-.03.13h-1.08v-.18c-.01-.13,0-.28.04-.47.03-.19.06-.36.09-.53,0-.06.02-.11.03-.16,0-.05.01-.09.01-.13,0-.12-.04-.21-.12-.27-.1-.07-.26-.1-.49-.1h-1.04l-.39,1.84h-.95ZM4.63,8.44c2.07,0,3.74-1.69,3.74-3.77S6.69.89,4.63.89.88,2.58.88,4.66s1.68,3.77,3.74,3.77ZM4.63,9.23c2.5,0,4.53-2.05,4.53-4.57S7.13.09,4.63.09.09,2.14.09,4.66s2.03,4.57,4.53,4.57Z"/>
      <path d="M4.63,9.33C2.08,9.33,0,7.23,0,4.66S2.08,0,4.63,0s4.63,2.09,4.63,4.66-2.08,4.66-4.63,4.66ZM4.63.19C2.18.19.19,2.19.19,4.66s1.99,4.48,4.44,4.48,4.44-2.01,4.44-4.48S7.07.19,4.63.19ZM4.63,8.53c-2.12,0-3.84-1.73-3.84-3.87S2.51.8,4.63.8s3.84,1.73,3.84,3.87-1.72,3.87-3.84,3.87ZM4.63.98C2.61.98.98,2.63.98,4.66s1.64,3.68,3.65,3.68,3.65-1.65,3.65-3.68S6.64.98,4.63.98ZM6.29,7.01h-1.24l-.02-.26c0-.14.02-.3.05-.49l.12-.69s.01-.08.01-.11c0-.12-.05-.17-.08-.19-.08-.06-.23-.09-.44-.09h-.96l-.39,1.84h-1.14l1.03-4.89h2.44c.43,0,.76.11.99.34.2.2.31.47.31.79,0,.1-.01.2-.03.29-.06.28-.18.53-.36.75-.13.16-.29.29-.47.38.07.05.13.11.18.18.07.12.11.26.11.43,0,.09,0,.16-.01.21,0,.05-.02.13-.05.25l-.04.19-.06.22s-.02.1-.03.19c-.01.09-.02.16-.02.19,0,.08.01.11.02.14,0,0,.02.02.05.03l.08.02-.06.29ZM5.22,6.83h.89s-.05-.05-.06-.08c-.03-.06-.04-.13-.04-.21,0-.04,0-.11.02-.21.01-.1.03-.17.03-.21l.06-.22.04-.19c.03-.11.04-.19.05-.24,0-.04,0-.11,0-.18,0-.13-.03-.24-.08-.33-.05-.08-.15-.15-.28-.19l-.26-.09.26-.09c.23-.08.42-.21.58-.4.16-.19.27-.42.32-.67.02-.08.02-.16.02-.26,0-.27-.08-.49-.25-.66-.19-.19-.48-.29-.86-.29h-2.29l-.95,4.52h.76l.39-1.84h1.11c.25,0,.43.04.55.12.11.07.16.19.16.34,0,.04,0,.09-.01.14l-.12.69c-.03.18-.05.33-.05.45v.08ZM5.03,4.38h-1.33l.3-1.44h1.32c.22,0,.39.05.51.16.1.1.15.23.15.38l-.02.16c-.05.23-.14.41-.27.53-.15.14-.37.21-.65.21ZM3.93,4.2h1.1c.23,0,.41-.05.53-.16.1-.09.17-.23.21-.42l.02-.14c0-.09-.03-.17-.09-.24-.08-.07-.2-.11-.38-.11h-1.16l-.23,1.07Z"/>
    </g>
  </g>
</svg>