<?xml version="1.0" encoding="UTF-8"?>
<svg id="Layer_2" data-name="Layer 2" xmlns="http://www.w3.org/2000/svg" viewBox="0 0 163.08 42.48">
  <g id="Layer_1-2" data-name="Layer 1">
    <g>
      <g>
        <path d="M60.94,21.97v-1.46c0-.13.11-.24.24-.24h6.47c.13,0,.27.11.27.24v1.46c0,.13-.13.24-.27.24h-6.47c-.13,0-.24-.11-.24-.24Z"/>
        <g>
          <path d="M50.94,13.54c3.98,0,7.62,1.19,7.64,7.85v1.01c0,.13-.13.27-.27.27h-12.21c-.13,0-.27.13-.24.27.74,3.77,3.63,4.51,6.13,4.51,1.91,0,4.17-.24,5.33-1.38.03-.03.08-.03.11-.03.13,0,.24.11.24.24v1.49c0,.21-.11.42-.29.53-1.41.8-3.69,1.11-5.39,1.11-4.01,0-8.73-1.19-8.73-7.93s3.66-7.93,7.67-7.93ZM46.05,20.68h10.03c-.24-4.38-2.52-5.17-5.15-5.17s-4.75.77-5.12,4.91c0,.13.11.27.24.27Z"/>
          <path d="M78.82,13.57c4.01,0,8.17,1.19,8.17,7.93s-4.17,7.93-8.17,7.93c-2.04,0-4.62-.58-5.7-2.34v5.94c0,.13-.13.24-.27.24h-1.96c-.13,0-.27-.11-.27-.24v-11.54c0-6.74,4.19-7.93,8.2-7.93ZM78.82,27.47c2.79,0,5.7-.9,5.7-5.97s-2.92-5.97-5.7-5.97-5.7.9-5.7,5.97,2.92,5.97,5.7,5.97Z"/>
          <path d="M89.97,28.75V9.46c0-.16.13-.27.29-.27h1.94c.16,0,.27.11.27.27v6.42c1.19-1.83,3.66-2.31,5.7-2.31,4.01,0,8.17,1.17,8.17,7.91v7.27c0,.16-.11.27-.27.27h-1.94c-.16,0-.27-.11-.27-.27v-7.27c0-5.07-2.92-5.97-5.7-5.97s-5.7.9-5.7,5.97v7.27c0,.16-.11.27-.27.27h-1.94c-.16,0-.29-.11-.29-.27Z"/>
          <path d="M117.43,13.52c4.01,0,8.17,1.19,8.17,7.93s-4.17,7.93-8.17,7.93-8.2-1.19-8.2-7.93,4.19-7.93,8.2-7.93ZM111.73,21.45c0,5.07,2.92,5.97,5.7,5.97s5.7-.9,5.7-5.97-2.92-5.97-5.7-5.97-5.7.9-5.7,5.97Z"/>
          <path d="M128.5,28.75v-7.27c0-6.74,4.19-7.91,8.2-7.91s8.17,1.17,8.17,7.91v7.27c0,.16-.11.27-.27.27h-1.94c-.16,0-.27-.11-.27-.27v-7.27c0-5.07-2.92-5.97-5.7-5.97s-5.7.9-5.7,5.97v7.27c0,.16-.11.27-.27.27h-1.94c-.16,0-.29-.11-.29-.27Z"/>
          <path d="M155.43,13.54c3.98,0,7.62,1.19,7.64,7.85v1.01c0,.13-.13.27-.27.27h-12.21c-.13,0-.27.13-.24.27.74,3.77,3.63,4.51,6.13,4.51,1.91,0,4.17-.24,5.33-1.38.03-.03.08-.03.11-.03.13,0,.24.11.24.24v1.49c0,.21-.11.42-.29.53-1.41.8-3.69,1.11-5.39,1.11-4.01,0-8.73-1.19-8.73-7.93s3.66-7.93,7.67-7.93ZM150.55,20.68h10.03c-.24-4.38-2.52-5.17-5.15-5.17s-4.75.77-5.12,4.91c0,.13.11.27.24.27Z"/>
        </g>
      </g>
      <path d="M30.97,22.7l-3.92-3.92-3.02,3.02,2.75,2.75c.41.41,1.08.41,1.49,0l.66-.66.42.42c.65.65.65,1.71,0,2.37l-13.03,13.03c-.65.65-1.71.65-2.37,0l-8.25-8.25c-.65-.65-.65-1.71,0-2.37l.97-.97-1.61-1.61-.97.97c-1.54,1.54-1.54,4.05,0,5.59l8.25,8.25c1.54,1.54,4.05,1.54,5.59,0l13.03-13.03c1.54-1.54,1.54-4.05,0-5.59ZM22.62,14.36c-1.55-1.45-3.98-1.41-5.49.09l-7.63,7.63,1.61,1.61,7.63-7.63c.62-.62,1.61-.65,2.27-.09M28.02,9.4L19.78,1.15c-1.54-1.54-4.05-1.54-5.59,0L1.15,14.19c-1.54,1.54-1.54,4.05,0,5.59l8.25,8.25c1.54,1.54,4.05,1.54,5.59,0l13.03-13.03c1.54-1.54,1.54-4.05,0-5.59ZM13.38,26.41c-.65.65-1.71.65-2.37,0L2.76,18.17c-.65-.65-.65-1.71,0-2.37L15.8,2.76c.65-.65,1.71-.65,2.37,0l.42.42-.66.66c-.41.41-.41,1.08,0,1.49l5.92,5.92c.41.41,1.08.41,1.49,0l.66-.66.42.42c.65.65.65,1.71,0,2.37l-13.03,13.03Z"/>
    </g>
  </g>
</svg>