<?xml version="1.0" encoding="UTF-8"?>
<svg id="Layer_2" data-name="Layer 2" xmlns="http://www.w3.org/2000/svg" viewBox="0 0 165.33 50.18">
  <g id="Layer_1-2" data-name="Layer 1">
    <g>
      <path d="M0,31.68V4.62h7.9v10.09h9.33V4.62h7.9v27.07h-7.9v-10.09H7.9v10.09H0Z"/>
      <path d="M35.13,32.1c-1.26,0-2.43-.22-3.51-.67-1.08-.45-1.94-1.15-2.58-2.1-.64-.95-.97-2.16-.97-3.61,0-2.1.7-3.73,2.1-4.9,1.4-1.16,3.52-1.74,6.35-1.74h5.17v-.38c0-.78-.32-1.36-.97-1.72-.64-.36-1.78-.55-3.4-.55-2.3,0-4.57.35-6.81,1.05v-4.75c1.01-.39,2.27-.72,3.78-.99,1.51-.27,3.05-.4,4.62-.4,3.17,0,5.67.64,7.52,1.93,1.85,1.29,2.77,3.33,2.77,6.14v12.27h-6.89l-.38-1.6c-.7.62-1.6,1.11-2.71,1.47-1.11.36-2.47.55-4.1.55ZM37.82,27.48c.9,0,1.66-.15,2.29-.46.63-.31,1.16-.69,1.58-1.13v-2.48h-3.82c-1.74,0-2.61.69-2.61,2.06s.85,2.02,2.56,2.02Z"/>
      <path d="M52.78,31.68V11.76h7.4l.21,1.51c.76-.5,1.76-.95,3.01-1.34,1.25-.39,2.58-.59,4.01-.59,2.49,0,4.31.62,5.46,1.85,1.15,1.23,1.72,3.14,1.72,5.72v12.78h-7.9v-11.98c0-.9-.2-1.54-.59-1.93-.39-.39-1.08-.59-2.06-.59-.59,0-1.2.14-1.83.42-.63.28-1.14.62-1.53,1.01v13.07h-7.9Z"/>
      <path d="M86.36,32.1c-1.88,0-3.51-.32-4.9-.95-1.39-.63-2.47-1.66-3.24-3.09-.77-1.43-1.16-3.33-1.16-5.72s.43-4.47,1.3-6.09c.87-1.63,2.03-2.85,3.49-3.68,1.46-.83,3.04-1.24,4.75-1.24.92,0,1.84.1,2.75.29.91.2,1.7.48,2.37.84V3.36h7.9v28.33h-6.85l-.38-1.56c-.79.62-1.66,1.1-2.63,1.45s-2.11.53-3.43.53ZM88.63,26.39c1.2,0,2.24-.41,3.11-1.22v-7.06c-.79-.7-1.82-1.05-3.11-1.05-1.04,0-1.88.46-2.52,1.39-.65.92-.97,2.24-.97,3.95s.28,2.77.84,3.26c.56.49,1.44.74,2.65.74Z"/>
      <path d="M102.59,23.51v-6h8.67v6h-8.67Z"/>
      <path d="M114.17,31.68V4.62h20.51v6.05h-12.61v4.41h11.05v6.14h-11.05v4.41h12.61v6.05h-20.51Z"/>
      <g>
        <path d="M0,49.98v-12.76h2.16v5.55h6.14v-5.55h2.16v12.76h-2.16v-5.55H2.16v5.55H0Z"/>
        <path d="M15.89,50.18c-.59,0-1.15-.11-1.65-.32-.51-.21-.92-.53-1.22-.96-.3-.43-.46-.96-.46-1.6,0-.9.31-1.62.92-2.17.61-.55,1.56-.82,2.84-.82h3.01v-.42c0-.45-.07-.81-.21-1.07-.14-.26-.39-.46-.75-.57-.36-.12-.9-.18-1.6-.18-1.11,0-2.15.17-3.11.5v-1.61c.42-.17.94-.31,1.55-.42.61-.11,1.26-.16,1.96-.16,1.37,0,2.42.28,3.14.83.72.55,1.08,1.46,1.08,2.71v6.04h-1.84l-.14-.95c-.38.37-.86.65-1.42.85-.56.2-1.27.3-2.11.3ZM16.47,48.63c.65,0,1.21-.11,1.69-.33.48-.22.87-.51,1.18-.88v-1.64h-2.97c-.63,0-1.09.12-1.38.37-.28.24-.43.62-.43,1.12s.17.84.5,1.05c.33.21.8.32,1.41.32Z"/>
        <path d="M23.8,49.98v-9.39h1.98l.1.99c.42-.33.93-.61,1.52-.84.59-.23,1.24-.35,1.95-.35,1.22,0,2.1.28,2.66.85.55.57.83,1.45.83,2.66v6.08h-2.14v-5.99c0-.73-.15-1.24-.45-1.53-.3-.29-.86-.44-1.67-.44-.49,0-.97.1-1.44.3s-.86.46-1.18.77v6.88h-2.16Z"/>
        <path d="M38.94,50.18c-.85,0-1.59-.15-2.24-.44-.65-.29-1.15-.77-1.51-1.45-.36-.67-.53-1.58-.53-2.71s.19-2.07.57-2.84c.38-.77.91-1.36,1.6-1.75.68-.4,1.45-.59,2.31-.59.57,0,1.07.07,1.52.2.44.13.87.34,1.28.61v-4.58h2.16v13.36h-1.84l-.14-.93c-.42.38-.89.67-1.39.85-.5.18-1.1.28-1.78.28ZM39.52,48.55c.96,0,1.77-.33,2.42-.99v-4.7c-.62-.55-1.4-.83-2.34-.83s-1.6.3-2.06.91c-.46.61-.69,1.49-.69,2.66s.21,1.9.64,2.32c.43.42,1.11.63,2.03.63Z"/>
        <path d="M48.18,49.98l-2.48-9.39h2.16l1.63,6.84,1.84-5.69v-1.15h1.64l2.04,6.84,1.63-6.84h2.14l-2.46,9.39h-2.04l-2-6.14-2.04,6.14h-2.06Z"/>
        <path d="M64.74,50.18c-1.64,0-2.91-.4-3.8-1.21-.9-.81-1.35-2.04-1.35-3.71,0-1.51.38-2.7,1.15-3.57.77-.87,1.93-1.31,3.49-1.31,1.43,0,2.5.37,3.22,1.12.72.75,1.08,1.71,1.08,2.88v1.74h-6.88c.11.91.44,1.54.99,1.88s1.4.51,2.54.51c.48,0,.96-.05,1.47-.14.5-.09.94-.21,1.31-.36v1.59c-.42.18-.91.32-1.46.42-.55.09-1.13.14-1.75.14ZM61.65,44.73h4.97v-.65c0-.65-.18-1.15-.54-1.52-.36-.36-.96-.55-1.8-.55-1,0-1.69.22-2.07.65s-.56,1.12-.56,2.06Z"/>
        <path d="M70.63,49.98v-9.39h1.98l.12,1.09c.45-.29.98-.55,1.61-.79.62-.24,1.24-.4,1.84-.5v1.64c-.37.07-.77.16-1.2.29-.43.13-.84.26-1.22.42-.38.15-.71.31-.97.47v6.78h-2.16Z"/>
        <path d="M77.74,49.98v-13.36h2.16v7.73l3.94-3.77h2.48l-3.83,3.79,4.04,5.61h-2.28l-3.11-4.46-1.25,1.19v3.27h-2.16Z"/>
        <path d="M91.85,50.18c-1.64,0-2.91-.4-3.8-1.21-.9-.81-1.35-2.04-1.35-3.71,0-1.51.38-2.7,1.15-3.57.77-.87,1.93-1.31,3.49-1.31,1.43,0,2.5.37,3.22,1.12.72.75,1.08,1.71,1.08,2.88v1.74h-6.88c.11.91.44,1.54.99,1.88s1.4.51,2.54.51c.48,0,.96-.05,1.47-.14.5-.09.94-.21,1.31-.36v1.59c-.42.18-.91.32-1.46.42-.55.09-1.13.14-1.75.14ZM88.76,44.73h4.97v-.65c0-.65-.18-1.15-.54-1.52-.36-.36-.96-.55-1.8-.55-1,0-1.69.22-2.07.65s-.56,1.12-.56,2.06Z"/>
        <path d="M97.74,49.98v-9.39h1.98l.12,1.09c.45-.29.98-.55,1.61-.79.62-.24,1.24-.4,1.84-.5v1.64c-.37.07-.77.16-1.2.29-.43.13-.84.26-1.22.42s-.71.31-.97.47v6.78h-2.16Z"/>
        <path d="M107.89,50.18c-.65,0-1.27-.05-1.85-.14s-1.07-.2-1.46-.34v-1.82c.45.17.94.3,1.49.4.54.09,1.06.14,1.55.14.74,0,1.27-.07,1.59-.2.32-.13.48-.39.48-.77,0-.28-.1-.5-.29-.65-.19-.16-.48-.3-.85-.44-.38-.13-.86-.29-1.44-.48-.55-.18-1.04-.39-1.45-.6-.41-.22-.73-.5-.95-.84-.22-.34-.34-.79-.34-1.35,0-.86.31-1.52.93-1.99.62-.47,1.62-.7,2.99-.7.54,0,1.06.04,1.55.12.49.08.9.18,1.25.3v1.8c-.37-.15-.78-.26-1.22-.34-.44-.08-.86-.12-1.24-.12-.69,0-1.21.06-1.56.18-.35.12-.53.36-.53.71s.18.63.54.78c.36.15.95.36,1.75.62.74.22,1.33.46,1.76.71.44.25.75.55.94.9.19.35.29.8.29,1.36,0,.92-.34,1.62-1.01,2.07-.67.46-1.65.68-2.93.68Z"/>
        <path d="M118.41,50.18c-1.64,0-2.91-.4-3.8-1.21-.9-.81-1.35-2.04-1.35-3.71,0-1.51.38-2.7,1.15-3.57.77-.87,1.93-1.31,3.49-1.31,1.43,0,2.5.37,3.22,1.12.72.75,1.08,1.71,1.08,2.88v1.74h-6.88c.11.91.44,1.54.99,1.88s1.4.51,2.54.51c.48,0,.96-.05,1.47-.14.5-.09.94-.21,1.31-.36v1.59c-.42.18-.91.32-1.46.42-.55.09-1.13.14-1.75.14ZM115.32,44.73h4.97v-.65c0-.65-.18-1.15-.54-1.52-.36-.36-.96-.55-1.8-.55-1,0-1.69.22-2.07.65s-.56,1.12-.56,2.06Z"/>
        <path d="M124.29,49.98v-9.39h1.98l.12,1.09c.45-.29.98-.55,1.61-.79.62-.24,1.24-.4,1.84-.5v1.64c-.37.07-.77.16-1.2.29-.43.13-.84.26-1.22.42s-.71.31-.97.47v6.78h-2.16Z"/>
        <path d="M134.03,49.98l-3.71-9.39h2.24l2.64,7.29,2.64-7.29h2.22l-3.69,9.39h-2.34Z"/>
        <path d="M142.45,49.98v-7.75h-1.43l.2-1.65h3.39v9.39h-2.16ZM142.27,38.62v-1.78h2.36v1.78h-2.36Z"/>
        <path d="M151.74,50.18c-1.65,0-2.9-.42-3.75-1.26-.85-.84-1.27-2.05-1.27-3.64s.47-2.88,1.4-3.69c.93-.81,2.18-1.21,3.74-1.21.65,0,1.19.05,1.63.14.44.09.87.24,1.28.44v1.61c-.69-.34-1.52-.51-2.5-.51-1.08,0-1.92.24-2.5.72-.58.48-.87,1.32-.87,2.51,0,1.12.26,1.95.77,2.47.51.52,1.37.78,2.56.78.94,0,1.79-.18,2.56-.53v1.64c-.44.17-.9.3-1.4.4s-1.05.14-1.66.14Z"/>
        <path d="M161.27,50.18c-1.64,0-2.91-.4-3.8-1.21-.9-.81-1.35-2.04-1.35-3.71,0-1.51.38-2.7,1.15-3.57.77-.87,1.93-1.31,3.49-1.31,1.43,0,2.5.37,3.22,1.12.72.75,1.08,1.71,1.08,2.88v1.74h-6.88c.11.91.44,1.54.99,1.88s1.4.51,2.54.51c.48,0,.96-.05,1.47-.14.5-.09.94-.21,1.31-.36v1.59c-.42.18-.91.32-1.46.42-.55.09-1.13.14-1.75.14ZM158.18,44.73h4.97v-.65c0-.65-.18-1.15-.54-1.52-.36-.36-.96-.55-1.8-.55-1,0-1.69.22-2.07.65s-.56,1.12-.56,2.06Z"/>
      </g>
      <path d="M134.99,31.68h8.66l2.43-3.21.93-1.24.93,1.24,2.43,3.21h8.62l-7.7-10.13,3.44-4.55,2.07-2.75.21-.28s0,0,.01,0c.45-.24,1.39.06,1.8.26,2.31,1.12,3.85,4.09,4.43,6.5.04.2.19,1.08.26,1.4h0s.05.26.05.26l1.49-.13.08-.38c.1-.55.26-2.38.17-2.86l-.05-.75-.02-.17-.04-.71c-.23-2.15-.75-4.31-1.86-6.17-1.88-3.14-8.23-6.84-8.23-6.84,0,0-.96.16-1.46.2-.86.06-2.81-.04-2.86-1.24-.02-.68.91-1.21.3-1.79-.19-.18-1.98-1.42-2.19-1.49-.24-.08-.47-.06-.63.14-1.19,1.76-2.52,3.44-3.67,5.22-.08.13-.17.25-.23.36-.16.27-.22.54.13.84.43.38,1.41,1.03,1.92,1.34.78.47,1.06-.27,1.74-.53.07-.03.14-.05.22-.06.71-.16,1.58.22,2.19.86.45.47.89,1.51.58,2.12l-.5.79-.49.62-.34.44-.81,1.11-1.97,2.66-2.35-3.13-.81-1.08h-8.53l7.36,9.79-5.25,6.91-2.44,3.21Z"/>
    </g>
  </g>
</svg>