<?xml version="1.0" encoding="UTF-8"?>
<svg id="Layer_2" data-name="Layer 2" xmlns="http://www.w3.org/2000/svg" xmlns:xlink="http://www.w3.org/1999/xlink" viewBox="0 0 147.1 89.52">
  <defs>
    <style>
      .cls-1 {
        clip-path: url(#clippath);
      }
    </style>
    <clipPath id="clippath">
      <path d="M63.09,37.86c.32.13.65.25.96.4.78.39,1.43.95,2.02,1.58.69.73,1.26,1.53,1.8,2.37.03.05.06.09.11.17.24-2.71-.95-4.76-2.85-6.5,2.44.68,4.54,1.91,6.24,3.78-.13.11-.26.2-.38.31-.69.63-.11,1.64.47,1.77.48.11.94.05,1.36-.19.36-.21.52-.56.59-.96.13-.8-.04-1.54-.38-2.26-.36-.78-.88-1.45-1.46-2.07-.18-.19-.36-.37-.54-.57,1.94-2.13,3.09-4.65,3.73-7.44.55,2.72,1.52,5.25,3.27,7.43-.3.38-.6.74-.88,1.12-.57.77-1,1.62-1.18,2.57-.09.48-.09.97.02,1.45.14.59.54.92,1.17.97.77.06,1.34-.58,1.18-1.34-.06-.27-.22-.47-.43-.64-.05-.04-.09-.07-.16-.13.47-.62,1.01-1.17,1.6-1.67,1.14-.97,2.43-1.67,3.86-2.12-.83.88-1.53,1.84-1.99,2.97-.46,1.13-.62,2.3-.48,3.53.03-.05.05-.1.08-.15.53-.98,1.13-1.9,1.87-2.73.57-.64,1.22-1.19,2.03-1.51.08-.03.16-.06.24-.08.02,0,.04,0,.09-.02-.09.08-.15.14-.22.19-.91.79-1.5,1.79-1.95,2.88-.44,1.08-.7,2.22-.87,3.37-.01.08-.02.14-.12.18-1.59.6-3.22,1.05-4.91,1.27-2.8.37-5.55.13-8.24-.72-.73-.23-1.44-.52-2.16-.79-.09-.03-.13-.09-.14-.18-.19-1.03-.46-2.05-.89-3.01-.52-1.17-1.23-2.21-2.26-3-.07-.05-.14-.11-.21-.16,0,0,0-.02-.01-.03,0-.01.01-.03.02-.04ZM73.59,35.19c0,.67.16,1.1.47,1.39.4.38.96.36,1.33-.04.59-.64.6-1.71.02-2.35-.37-.41-.92-.45-1.33-.07-.36.33-.48.76-.49,1.07ZM74.84,44.43c.57,0,1.02-.44,1.03-.99,0-.58-.44-1.01-1.02-1.01-.58,0-1.01.42-1.02,1,0,.57.44,1.01,1.01,1.01ZM77.64,43.62c-.01.36.27.66.64.67.36.01.68-.29.69-.64,0-.35-.29-.66-.64-.67-.4,0-.67.25-.68.64ZM70.52,43.61c0,.36.27.66.63.67.36.01.68-.29.69-.64,0-.34-.28-.65-.63-.67-.39-.02-.68.25-.69.64ZM67.53,43.41c0,.27.2.47.47.48.27,0,.48-.21.49-.48,0-.27-.21-.47-.48-.47-.27,0-.47.2-.47.47ZM80.78,44.01c.29,0,.47-.19.47-.47,0-.27-.19-.46-.47-.46-.29,0-.48.19-.48.47,0,.27.2.46.47.46Z"/>
    </clipPath>
  </defs>
  <g id="Layer_1-2" data-name="Layer 1">
    <g>
      <g>
        <g>
          <path d="M5.12,49.27c.08-.46.25-.71.47-.71s.39.14.74.85l7.51,15.19,7.48-15.38c.22-.44.36-.66.61-.66s.41.27.5.85l2.5,16.72c.25,1.72.52,2.51,1.35,2.76.8.25,1.35.27,1.71.27.25,0,.44.03.44.19,0,.22-.33.3-.72.3-.69,0-4.48-.05-5.58-.14-.63-.05-.8-.14-.8-.3,0-.14.11-.22.3-.3.16-.05.25-.41.14-1.17l-1.65-11.88h-.11l-6,12.18c-.63,1.28-.77,1.53-1.02,1.53s-.52-.55-.96-1.37c-.66-1.26-2.83-5.44-3.16-6.2-.25-.57-1.9-3.8-2.86-5.84h-.11l-1.43,10.65c-.05.49-.08.85-.08,1.28,0,.52.36.76.83.87.5.11.88.14,1.16.14.22,0,.41.05.41.19,0,.25-.25.3-.66.3-1.16,0-2.39-.08-2.89-.08-.52,0-1.84.08-2.72.08-.28,0-.5-.05-.5-.3,0-.14.16-.19.44-.19.22,0,.41,0,.83-.08.77-.16.99-1.23,1.13-2.16l2.72-17.59Z"/>
          <path d="M38.29,56.86c0-4.15,0-4.92-.06-5.79-.05-.93-.28-1.37-1.18-1.56-.22-.05-.69-.08-1.07-.08-.3,0-.47-.05-.47-.25s.19-.25.61-.25c1.46,0,3.19.08,3.77.08.94,0,3.03-.08,3.88-.08,1.73,0,3.58.16,5.06,1.17.77.52,1.87,1.91,1.87,3.74,0,2.02-.85,3.88-3.63,6.12,2.45,3.06,4.35,5.49,5.97,7.18,1.54,1.58,2.67,1.78,3.08,1.86.3.05.55.08.77.08s.33.08.33.22c0,.22-.19.27-.52.27h-2.61c-1.54,0-2.23-.14-2.94-.52-1.18-.63-2.23-1.91-3.77-4.02-1.1-1.5-2.37-3.36-2.72-3.77-.14-.16-.3-.19-.5-.19l-2.39-.06c-.14,0-.22.06-.22.22v.38c0,2.54,0,4.7.14,5.85.08.79.25,1.39,1.07,1.5.41.05,1.02.11,1.35.11.22,0,.33.08.33.22,0,.19-.19.27-.55.27-1.6,0-3.63-.08-4.04-.08-.52,0-2.26.08-3.36.08-.36,0-.55-.08-.55-.27,0-.14.11-.22.44-.22.41,0,.74-.05.99-.11.55-.11.69-.71.8-1.5.14-1.15.14-3.3.14-5.82v-4.81ZM41.53,59.02c0,.3.05.41.25.49.58.19,1.4.27,2.09.27,1.1,0,1.46-.11,1.95-.46.83-.6,1.62-1.86,1.62-4.1,0-3.88-2.59-5-4.21-5-.69,0-1.18.03-1.46.11-.19.05-.25.16-.25.38v8.3Z"/>
          <path d="M61.22,60.79c0-3.96,2.81-9.1,10.15-9.1,6.11,0,9.9,3.36,9.9,8.69s-3.91,9.51-10.15,9.51c-7.04,0-9.9-4.97-9.9-9.1ZM77.67,61.23c0-5.14-3.11-8.3-7.01-8.3-2.7,0-5.86,1.42-5.86,7.16,0,4.78,2.75,8.55,7.32,8.55,1.71,0,5.56-.79,5.56-7.4Z"/>
          <path d="M94.73,63.55c0-1.26-.22-1.75-.55-2.43-.16-.35-3.47-5.46-4.32-6.69-.61-.85-1.1-1.39-1.57-1.64-.3-.16-.72-.3-1.02-.3-.19,0-.36-.08-.36-.25s.16-.22.47-.22c.41,0,2.23.05,3.03.05.52,0,1.65-.05,2.75-.05.22,0,.36.05.36.22,0,.19-.16.19-.55.3-.19.05-.33.16-.33.36s.11.46.3.79c.44.71,3.6,6.15,4.02,6.8.3-.55,3.25-5.52,3.6-6.23.25-.52.36-.93.36-1.23,0-.22-.11-.44-.52-.52-.22-.05-.44-.08-.44-.27,0-.16.14-.22.41-.22.8,0,1.65.05,2.37.05.52,0,2.12-.05,2.59-.05.28,0,.44.05.44.19,0,.16-.19.27-.47.27-.25,0-.69.11-1.05.27-.52.25-.74.46-1.27,1.09-.8.93-4.26,6.45-4.7,7.43-.36.85-.3,1.56-.3,2.32v1.86c0,.38,0,1.34.06,2.32.06.68.28,1.12.99,1.23.36.05.88.08,1.21.08.27,0,.41.14.41.25,0,.16-.19.25-.52.25-1.51,0-3.14-.08-3.8-.08-.61,0-2.23.08-3.14.08-.33,0-.52-.05-.52-.25,0-.11.11-.25.39-.25.33,0,.63-.03.85-.08.5-.11.69-.55.74-1.23.08-.98.08-1.94.08-2.32v-1.91Z"/>
          <path d="M114.34,63.72c-.14,0-.16.03-.22.16l-1.29,3.14c-.25.57-.36,1.15-.36,1.42,0,.41.22.66.96.66h.36c.3,0,.36.11.36.25,0,.19-.14.25-.39.25-.8,0-1.93-.08-2.7-.08-.25,0-1.54.08-2.81.08-.3,0-.44-.05-.44-.25,0-.14.08-.25.28-.25.22,0,.49-.03.72-.03,1.1-.16,1.51-.87,2.01-2.05l6.33-14.5c.28-.66.47-.93.72-.93.36,0,.47.22.72.74.58,1.28,4.62,10.68,6.16,14.2.94,2.1,1.62,2.4,2.06,2.49.36.05.63.08.91.08.22,0,.33.08.33.25,0,.19-.14.25-1.04.25-.85,0-2.61,0-4.65-.05-.44-.03-.72-.03-.72-.19,0-.14.05-.22.3-.25.16-.03.33-.25.22-.52l-1.87-4.7c-.06-.14-.14-.16-.25-.16h-5.69ZM119.51,62.43c.11,0,.14-.05.11-.14l-2.28-5.82c-.03-.08-.06-.22-.11-.22-.08,0-.11.14-.14.22l-2.34,5.79c-.06.11,0,.16.08.16h4.68Z"/>
          <path d="M139.42,62.84c0,2.98,0,4.45.52,4.89.41.35,1.35.49,3.22.49,1.29,0,2.23-.03,2.83-.66.3-.3.55-.96.61-1.39.03-.22.08-.36.28-.36.16,0,.22.25.22.52s-.16,1.99-.36,2.68c-.16.52-.28.63-1.54.63-1.73,0-3.14-.03-4.35-.08-1.21-.03-2.23-.05-3.22-.05-.28,0-.8.03-1.38.03-.58.03-1.18.05-1.68.05-.3,0-.47-.08-.47-.25,0-.11.08-.25.39-.25.36,0,.63-.03.85-.08.49-.11.63-.55.72-1.23.11-.98.11-2.81.11-4.94v-4.1c0-3.52,0-4.18-.03-4.92-.05-.79-.27-1.04-1.04-1.26-.19-.05-.5-.08-.8-.08-.27,0-.41-.08-.41-.25s.16-.22.52-.22c1.13,0,2.67.05,3.33.05.58,0,2.56-.05,3.49-.05.36,0,.52.05.52.22s-.14.25-.44.25c-.28,0-.66.03-.94.08-.66.11-.85.44-.91,1.26-.06.74-.06,1.39-.06,4.92v4.1Z"/>
        </g>
        <g>
          <path d="M63.09,37.86c.32.13.65.25.96.4.78.39,1.43.95,2.02,1.58.69.73,1.26,1.53,1.8,2.37.03.05.06.09.11.17.24-2.71-.95-4.76-2.85-6.5,2.44.68,4.54,1.91,6.24,3.78-.13.11-.26.2-.38.31-.69.63-.11,1.64.47,1.77.48.11.94.05,1.36-.19.36-.21.52-.56.59-.96.13-.8-.04-1.54-.38-2.26-.36-.78-.88-1.45-1.46-2.07-.18-.19-.36-.37-.54-.57,1.94-2.13,3.09-4.65,3.73-7.44.55,2.72,1.52,5.25,3.27,7.43-.3.38-.6.74-.88,1.12-.57.77-1,1.62-1.18,2.57-.09.48-.09.97.02,1.45.14.59.54.92,1.17.97.77.06,1.34-.58,1.18-1.34-.06-.27-.22-.47-.43-.64-.05-.04-.09-.07-.16-.13.47-.62,1.01-1.17,1.6-1.67,1.14-.97,2.43-1.67,3.86-2.12-.83.88-1.53,1.84-1.99,2.97-.46,1.13-.62,2.3-.48,3.53.03-.05.05-.1.08-.15.53-.98,1.13-1.9,1.87-2.73.57-.64,1.22-1.19,2.03-1.51.08-.03.16-.06.24-.08.02,0,.04,0,.09-.02-.09.08-.15.14-.22.19-.91.79-1.5,1.79-1.95,2.88-.44,1.08-.7,2.22-.87,3.37-.01.08-.02.14-.12.18-1.59.6-3.22,1.05-4.91,1.27-2.8.37-5.55.13-8.24-.72-.73-.23-1.44-.52-2.16-.79-.09-.03-.13-.09-.14-.18-.19-1.03-.46-2.05-.89-3.01-.52-1.17-1.23-2.21-2.26-3-.07-.05-.14-.11-.21-.16,0,0,0-.02-.01-.03,0-.01.01-.03.02-.04ZM73.59,35.19c0,.67.16,1.1.47,1.39.4.38.96.36,1.33-.04.59-.64.6-1.71.02-2.35-.37-.41-.92-.45-1.33-.07-.36.33-.48.76-.49,1.07ZM74.84,44.43c.57,0,1.02-.44,1.03-.99,0-.58-.44-1.01-1.02-1.01-.58,0-1.01.42-1.02,1,0,.57.44,1.01,1.01,1.01ZM77.64,43.62c-.01.36.27.66.64.67.36.01.68-.29.69-.64,0-.35-.29-.66-.64-.67-.4,0-.67.25-.68.64ZM70.52,43.61c0,.36.27.66.63.67.36.01.68-.29.69-.64,0-.34-.28-.65-.63-.67-.39-.02-.68.25-.69.64ZM67.53,43.41c0,.27.2.47.47.48.27,0,.48-.21.49-.48,0-.27-.21-.47-.48-.47-.27,0-.47.2-.47.47ZM80.78,44.01c.29,0,.47-.19.47-.47,0-.27-.19-.46-.47-.46-.29,0-.48.19-.48.47,0,.27.2.46.47.46Z"/>
          <g class="cls-1">
            <rect x="80.3" y="43.08" width=".95" height=".94"/>
            <rect x="67.53" y="42.94" width=".95" height=".95"/>
            <rect x="70.51" y="42.96" width="1.34" height="1.34"/>
            <rect x="77.63" y="42.96" width="1.34" height="1.33"/>
            <rect x="73.83" y="42.42" width="2.04" height="2"/>
            <rect x="73.59" y="33.74" width="2.39" height="3.22"/>
            <rect x="63.07" y="28.25" width="21.99" height="17.9"/>
          </g>
        </g>
        <path d="M36.4,2.55c.08.07.25.08.37.06.3-.05.55-.22.82-.35,1.59-.74,2.9-.94,4.57-.35.02,0,.03.02.04.04.24.24.5.47.71.73,1.14,1.36.98,2.6,1.36,4.23.76,3.21,4.82,5.26,7.97,4.64,1.01-.2,2.01-.68,2.92-1.13.25-.13.49-.15.72.03l12.7,9.63c-7.89,6.92-15.61,13.94-22.86,21.54-.8.84-1.63,1.76-1.81,2.9,9.53-6.9,19.05-13.8,28.58-20.69.27-.19.57-.4.9-.38.29.01.54.19.77.36,9.54,6.98,19.07,14.84,28.61,21.83-.92-2.13-2.57-4.74-4.21-6.4-6.62-6.71-13.48-13.18-20.57-19.4l1.02-.74c.43-.19.81-.47,1.19-.74,3.33-2.44,6.65-4.88,9.98-7.32.38-.28.81-.58,1.28-.57.45,0,.84.27,1.23.49,2.78,1.54,6.57.63,8.63-1.79.56-.66,1.01-1.42,1.22-2.25.49-2.03-.67-4.26-2.52-5.24-1.85-.98-4.23-.76-6,.35-1.78,1.11-2.98,3.01-3.46,5.04-.14.59-.23,1.21-.59,1.69-.28.38-.69.63-1.09.87-2.44,1.48-4.87,2.96-7.35,4.36-2.49,1.4-5.05,2.78-8,2.8-.88,0-1.74-.25-2.59-.5-4.3-1.27-8.26-3.78-12-6.18-.26-.17-.5-.38-.75-.57-.06-.05-.15-.07-.22-.11-.09-.05-.18-.09-.26-.15-.28-.21-.55-.44-.84-.64-.27-.2-.46-.4-.45-.79.02-1-.35-2.18-.81-3.05-.82-1.56-2.19-2.88-3.87-3.48-.25-.09-.52-.17-.78-.22-.46-.09-.93-.1-1.4-.1-1.81,0-3.5.07-5.29-.29-2.67-.52-6.58-1.88-7.93,1.49-.04.1-.02.28.05.34ZM91.77,6.71c.09-.46.29-.94.62-1.43,1.91-2.78,6.63-3.98,8.71-.71,1.58,2.49-1.11,5.51-3.51,6.15-2.79.74-6.33-1.27-5.82-4.01ZM73.33,18.71c.4,0,.73.32.73.72s-.33.72-.73.72-.73-.32-.73-.72.33-.72.73-.72ZM45.45,5.22c.24-.67.69-1.26,1.27-1.68,1.26-.9,3.14-1.16,4.64-.84,1.5.32,2.78,1.58,3.34,2.99.87,2.2-.69,4.21-2.84,4.82-2.53.73-5.55-.85-6.44-3.35-.23-.65-.2-1.33.02-1.95Z"/>
        <rect y="36.61" width="42.84" height=".99"/>
        <rect x="104.26" y="36.61" width="42.84" height=".99"/>
        <rect y="74.19" width="147.1" height=".99"/>
      </g>
      <g>
        <path d="M14.33,89.33v-6.11h2.6c.51,0,.95.18,1.31.54.36.36.54.8.54,1.31,0,.41-.12.78-.36,1.1.36.36.54.8.54,1.31s-.18.95-.54,1.31c-.36.36-.8.54-1.31.54h-2.78ZM15.63,84.51v1.11h1.3c.15,0,.28-.05.39-.16.11-.11.16-.24.16-.39s-.05-.28-.16-.39c-.11-.11-.24-.16-.39-.16h-1.3ZM15.63,86.92v1.11h1.48c.15,0,.28-.05.39-.16.11-.11.16-.24.16-.39s-.05-.28-.16-.39c-.11-.11-.24-.16-.39-.16h-1.48Z"/>
        <path d="M30.35,88.59h-3.12l-.35.74h-1.43l2.85-6.11h.96l2.85,6.11h-1.42l-.35-.74ZM29.75,87.29l-.96-2.04-.96,2.04h1.91Z"/>
        <path d="M40.35,88.03v1.3h-1.28v-6.11h2.2c.66,0,1.22.23,1.69.7.47.47.7,1.04.7,1.7s-.23,1.23-.7,1.7c-.09.09-.19.18-.3.26l1,1.74h-1.48l-.74-1.3c-.05,0-.11,0-.16,0h-.92ZM40.35,84.51v2.22h.92c.3,0,.56-.11.78-.33.21-.22.32-.48.32-.79s-.11-.57-.32-.78c-.22-.22-.48-.33-.78-.33h-.92Z"/>
        <path d="M51.1,89.33v-6.11h2.59c.51,0,.95.18,1.31.54.36.36.54.8.54,1.31,0,.41-.12.78-.35,1.1.36.36.54.8.54,1.31s-.18.95-.54,1.31c-.36.36-.8.54-1.31.54h-2.78ZM52.4,84.51v1.11h1.29c.15,0,.28-.05.39-.16.11-.11.16-.24.16-.39s-.05-.28-.16-.39c-.11-.11-.24-.16-.39-.16h-1.29ZM52.4,86.92v1.11h1.48c.15,0,.28-.05.39-.16.11-.11.16-.24.16-.39s-.05-.28-.16-.39c-.11-.11-.24-.16-.39-.16h-1.48Z"/>
        <polygon points="67.3 83.22 67.3 84.51 64.46 84.51 64.46 85.63 66.73 85.63 66.73 86.92 64.46 86.92 64.46 88.03 67.3 88.03 67.3 89.33 63.14 89.33 63.14 83.22 67.3 83.22"/>
        <path d="M75.64,88.03v1.3h-1.28v-6.11h2.19c.66,0,1.22.23,1.68.7.46.47.69,1.04.69,1.7s-.23,1.23-.69,1.7c-.09.09-.19.18-.3.26l.99,1.74h-1.47l-.74-1.3c-.05,0-.11,0-.16,0h-.91ZM75.64,84.51v2.22h.91c.3,0,.56-.11.77-.33.21-.22.32-.48.32-.79s-.11-.57-.32-.78c-.21-.22-.47-.33-.77-.33h-.91Z"/>
        <path d="M87.33,87.46c.38.51.8.76,1.28.76.28,0,.5-.05.68-.17.18-.11.27-.28.27-.5-.01-.2-.12-.35-.32-.44l-1.36-.35c-.42-.14-.75-.36-1.01-.67-.25-.31-.38-.65-.38-1.02,0-.62.2-1.11.62-1.48.41-.37.89-.55,1.43-.55.83,0,1.52.32,2.07.96l-.96.81c-.28-.32-.63-.48-1.05-.48-.28,0-.5.06-.65.19-.15.12-.23.27-.23.45,0,.25.16.44.48.59l1.37.34c.81.32,1.22.88,1.22,1.67,0,.52-.19.98-.56,1.38-.38.39-.91.59-1.62.59-.96,0-1.72-.45-2.29-1.33l1.01-.73Z"/>
        <polygon points="98.14 83.22 99.43 83.22 99.43 85.63 102 85.63 102 83.22 103.29 83.22 103.29 89.33 102 89.33 102 86.92 99.43 86.92 99.43 89.33 98.14 89.33 98.14 83.22"/>
        <path d="M116.05,83.98c.62.63.94,1.4.94,2.29s-.31,1.66-.94,2.3c-.62.63-1.38.95-2.26.95s-1.64-.32-2.27-.95c-.62-.63-.94-1.4-.94-2.3s.31-1.66.94-2.29c.62-.63,1.38-.95,2.27-.95s1.63.31,2.26.95M113.79,84.33c-.53,0-.99.19-1.36.57-.38.38-.56.84-.56,1.37s.19,1,.56,1.38c.37.38.83.57,1.36.57s.98-.19,1.35-.57c.38-.38.56-.84.56-1.38s-.19-.99-.56-1.37c-.37-.38-.83-.57-1.35-.57"/>
        <path d="M125.46,88.03v1.3h-1.28v-6.11h2.2c.66,0,1.22.23,1.69.7.47.47.7,1.04.7,1.7s-.23,1.23-.7,1.7c-.47.47-1.03.7-1.69.7h-.92ZM125.46,84.51v2.22h.92c.3,0,.56-.11.78-.33.21-.22.32-.48.32-.79s-.11-.57-.32-.78c-.22-.22-.48-.33-.78-.33h-.92Z"/>
      </g>
    </g>
  </g>
</svg>