<?xml version="1.0" encoding="UTF-8"?>
<svg id="Layer_2" data-name="Layer 2" xmlns="http://www.w3.org/2000/svg" viewBox="0 0 148.17 38.93">
  <g id="Layer_1-2" data-name="Layer 1">
    <g id="Layer_1-2" data-name="Layer 1-2">
      <g>
        <path d="M49.42,37.04c-2.59-.86-4.61-1.97-6.08-3.35l1.95-4.11c1.41,1.27,3.21,2.3,5.4,3.08,2.2.79,4.45,1.18,6.77,1.18,3.06,0,5.34-.51,6.84-1.56,1.51-1.04,2.26-2.41,2.26-4.14,0-1.27-.42-2.3-1.23-3.08-.83-.79-1.85-1.39-3.06-1.81-1.21-.42-2.93-.89-5.14-1.43-2.78-.67-5.01-1.33-6.72-2.01-1.71-.67-3.16-1.7-4.38-3.08-1.21-1.38-1.81-3.26-1.81-5.61,0-1.96.51-3.74,1.56-5.32,1.04-1.58,2.61-2.84,4.72-3.8,2.11-.95,4.72-1.43,7.85-1.43,2.18,0,4.32.28,6.43.85,2.1.56,3.92,1.37,5.43,2.42l-1.74,4.22c-1.54-.99-3.2-1.73-4.96-2.24-1.76-.5-3.48-.76-5.16-.76-2.98,0-5.22.55-6.72,1.63-1.49,1.09-2.24,2.49-2.24,4.22,0,1.27.42,2.3,1.27,3.08.85.79,1.89,1.41,3.13,1.85,1.24.44,2.94.9,5.09,1.39,2.78.67,5.01,1.33,6.69,2.01,1.68.67,3.13,1.68,4.34,3.06,1.21,1.37,1.81,3.22,1.81,5.54,0,1.93-.53,3.7-1.58,5.3-1.05,1.6-2.65,2.86-4.8,3.8-2.15.93-4.77,1.39-7.91,1.39-2.78,0-5.45-.43-8.04-1.29Z"/>
        <path d="M104.29,28.69h-19.6l-4.06,9.22h-5.43L91.91,1.03h5.21l16.76,36.88h-5.54l-4.06-9.22h0ZM102.44,24.47l-7.96-18.08-7.96,18.08h15.92Z"/>
        <path d="M144.07,4.45c2.74,2.29,4.11,5.43,4.11,9.43s-1.37,7.14-4.11,9.43c-2.74,2.29-6.5,3.42-11.28,3.42h-9.12v11.17h-5.27V1.03h14.39c4.77,0,8.54,1.14,11.28,3.42ZM140.27,20.02c1.76-1.43,2.64-3.47,2.64-6.14s-.88-4.72-2.64-6.14c-1.76-1.43-4.3-2.13-7.64-2.13h-8.96v16.54h8.96c3.34,0,5.88-.71,7.64-2.13Z"/>
        <polygon points="41.9 0 38.73 0 36.5 0 35.22 1.82 24.77 16.75 22.98 14.19 22.67 13.74 14.32 1.82 13.05 0 10.81 0 12.09 1.82 21.16 14.77 22.98 17.39 23.66 18.34 24.77 19.93 25.89 18.34 25.96 18.24 26.7 17.19 37.45 1.82 40.62 1.82 27.79 20.16 27.47 20.61 27.47 20.61 26.35 22.21 25.96 22.76 25.96 25.96 25.96 37.11 18.17 37.11 18.17 27.84 18.17 26.17 18.17 25.95 18.17 22.76 16.35 20.15 3.52 1.82 6.68 1.82 17.43 17.19 18.17 18.24 20.95 22.21 20.95 22.21 21.16 22.49 21.16 25.1 21.16 27.01 21.16 29.63 21.16 30.21 21.16 32.83 21.16 34.78 22.98 34.78 22.98 30.68 22.98 30.2 22.98 29.63 22.98 27.01 22.98 25.1 22.98 22.49 22.98 21.92 22.07 20.61 21.16 19.3 8.91 1.82 7.64 0 5.41 0 2.24 0 0 0 1.28 1.82 16.35 23.34 16.35 37.11 16.35 38.93 18.17 38.93 25.96 38.93 27.79 38.93 27.79 37.11 27.79 24.25 27.79 23.34 28.59 22.2 42.86 1.82 44.13 0 41.9 0"/>
      </g>
    </g>
  </g>
</svg>